<svg width="80" height="80" viewBox="0 0 80 80" fill="none" xmlns="http://www.w3.org/2000/svg">
<g clip-path="url(#clip0_24_13713)">
<rect width="79.5" height="80" fill="white"/>
<g clip-path="url(#clip1_24_13713)">
<path d="M52.2594 63.0986C52.2594 63.6937 52.1472 66.1336 50.2237 68.1918C48.2141 70.3398 44.921 71.425 40.4266 71.425C28.9643 71.425 28.0063 64.5993 27.9277 63.413C28.9606 62.7057 29.694 62.077 30.1805 61.613C30.2554 62.3914 30.4387 63.151 30.7381 63.8733C31.1161 64.7976 31.6662 65.6097 32.3211 66.3581C32.9834 67.114 33.7132 67.8288 34.6075 68.304C35.5244 68.7943 36.5497 69.1086 37.5564 69.3444C39.5921 69.8196 41.7551 69.8907 43.7759 69.3107C45.4449 68.8279 46.983 67.8774 48.1131 66.5489C48.7118 65.8417 49.1946 65.0371 49.5014 64.1577C49.6624 63.6899 49.7559 63.2109 49.8382 62.7244C49.9131 62.2791 49.9992 61.8113 50.2387 61.4221C50.669 61.845 51.3314 62.4288 52.2594 63.0986Z" fill="#1A4730"/>
<path d="M78.2104 88.0852H1.32715C3.33296 81.5963 10.4768 69.7897 18.661 67.5331C22.3807 66.504 25.1237 65.1756 27.0622 63.9743C27.4177 66.1261 29.4048 72.3606 40.4255 72.3606C45.1968 72.3606 48.7294 71.1705 50.9186 68.8167C52.655 66.9494 53.0741 64.85 53.1677 63.7198C55.1398 64.9959 58.0026 66.4442 61.9468 67.5331C70.3705 69.857 77.3197 81.9293 78.2104 88.0852ZM46.3831 78.7822H45.4475C45.4475 81.6636 43.1049 84.0062 40.2272 84.0062C37.3494 84.0062 35.0031 81.6636 35.0031 78.7822H34.0675C34.0675 82.1801 36.8293 84.9418 40.2272 84.9418C43.6251 84.9418 46.3831 82.1801 46.3831 78.7822ZM43.7598 78.7822C43.7598 77.7531 43.2621 76.9185 42.6484 76.9185C42.0347 76.9185 41.537 77.7531 41.537 78.7822C41.537 79.8113 42.0347 80.6495 42.6484 80.6495C43.2621 80.6495 43.7598 79.815 43.7598 78.7822ZM39.1195 78.7822C39.1195 77.7531 38.6218 76.9185 38.0081 76.9185C37.3944 76.9185 36.8966 77.7531 36.8966 78.7822C36.8966 79.8113 37.3944 80.6495 38.0081 80.6495C38.6218 80.6495 39.1195 79.815 39.1195 78.7822Z" fill="#1A4730"/>
<path d="M42.6485 76.9185C43.2623 76.9185 43.76 77.753 43.76 78.7821C43.76 79.8112 43.2623 80.6495 42.6485 80.6495C42.0348 80.6495 41.5371 79.815 41.5371 78.7821C41.5371 77.7493 42.0348 76.9185 42.6485 76.9185Z" fill="#1A4730"/>
<path d="M46.3839 78.7822C46.3839 82.1801 43.6222 84.9418 40.228 84.9418C36.8338 84.9418 34.0684 82.1801 34.0684 78.7822H35.0039C35.0039 81.6637 37.3465 84.0063 40.228 84.0063C43.1095 84.0063 45.4484 81.6637 45.4484 78.7822H46.3839Z" fill="#1A4730"/>
<path d="M38.0089 76.9185C38.6226 76.9185 39.1203 77.753 39.1203 78.7821C39.1203 79.8112 38.6226 80.6495 38.0089 80.6495C37.3952 80.6495 36.8975 79.815 36.8975 78.7821C36.8975 77.7493 37.3952 76.9185 38.0089 76.9185Z" fill="#1A4730"/>
<path d="M40.4259 72.3606C29.4052 72.3606 27.4181 66.1261 27.0626 63.9743C25.1241 65.1756 22.3811 66.504 18.6613 67.5332C10.4772 69.7897 3.33334 81.5963 1.32753 88.0852H78.2108C77.3201 81.9293 70.3709 69.857 61.9472 67.5332C58.003 66.4442 55.1402 64.996 53.1681 63.7199C53.0745 64.85 52.6554 66.9494 50.919 68.8167C48.7298 71.1706 45.1972 72.3606 40.4259 72.3606ZM27.927 63.413C28.0056 64.5993 28.9636 71.425 40.4259 71.425C44.9203 71.425 48.2134 70.3398 50.223 68.1918C52.1464 66.1336 52.2587 63.6937 52.2587 63.0987C51.3306 62.4288 50.6683 61.845 50.2379 61.4222C49.9984 61.8114 49.9124 62.2791 49.8375 62.7244C49.7552 63.2109 49.6616 63.6899 49.5007 64.1577C49.1939 65.0371 48.7111 65.8417 48.1124 66.549C46.9822 67.8774 45.4442 68.8279 43.7752 69.3107C41.7544 69.8907 39.5914 69.8196 37.5556 69.3444C36.549 69.1086 35.5236 68.7943 34.6068 68.304C33.7124 67.8288 32.9827 67.114 32.3203 66.3581C31.6654 65.6097 31.1153 64.7976 30.7374 63.8733C30.438 63.151 30.2546 62.3914 30.1798 61.613C29.6933 62.077 28.9598 62.7057 27.927 63.413ZM30.5241 61.2725C30.584 62.2642 30.8272 63.2409 31.2575 64.1352C31.7365 65.1344 32.4438 65.9989 33.2222 66.781C33.9407 67.4995 34.7565 68.0309 35.707 68.3901C36.6613 68.7531 37.6529 69.0188 38.6596 69.1797C40.6205 69.4978 42.6899 69.3968 44.5461 68.6521C46.0766 68.0383 47.4575 66.9643 48.3706 65.5872C48.8196 64.9099 49.1564 64.1652 49.3398 63.3718C49.5119 62.6159 49.5419 61.8151 49.9722 61.1565C49.9273 61.1078 49.8824 61.0629 49.845 61.0217C50.0957 60.7111 50.223 60.3781 50.2454 60.0525L50.339 60.1685C50.3839 60.2247 53.7743 64.3074 62.1942 66.6313C70.9622 69.0487 78.5588 81.5701 79.2025 88.5081L79.2511 89.0208H0.0888672L0.253523 88.4295C1.93002 82.2923 9.20484 69.1685 18.4144 66.6313C26.8455 64.3036 30.1461 60.3032 30.1798 60.2621L30.3183 60.0899H30.7262V60.3743C30.685 60.6026 30.6812 60.8421 30.7149 61.0704C30.6625 61.1265 30.5989 61.1976 30.5241 61.2725Z" fill="#111111"/>
<g clip-path="url(#clip2_24_13713)">
<path d="M35.4904 79.2962H34.1622C34.0987 79.2962 34.0607 79.2451 34.0607 79.1976C34.0607 79.1536 34.0924 79.1158 34.1622 79.1158C34.1622 79.1158 34.3452 79.1026 34.3452 78.9653V76.8912C34.3452 76.7512 34.1486 76.7512 34.1486 76.7512C34.0815 76.7512 34.0498 76.7072 34.0498 76.6624C34.0498 76.6148 34.0851 76.5664 34.1486 76.5664H35.3817C35.7894 76.5664 36.0839 76.7099 36.0839 77.1736C36.0839 77.5626 35.9081 77.7298 35.6834 77.7606C35.9262 77.7879 36.2805 78.0677 36.2732 78.4875C36.266 78.8694 35.9996 79.2962 35.4895 79.2962H35.4904ZM35.2757 76.7952L34.9876 76.7917C34.9278 76.7917 34.9033 76.8155 34.9033 76.8736L34.8997 77.6955H35.2576C35.5176 77.6955 35.6191 77.4667 35.6191 77.2449C35.6227 77.0064 35.5203 76.7944 35.2748 76.7944L35.2757 76.7952ZM35.2829 77.9516H34.9033V78.975C34.9033 79.0295 34.935 79.0533 34.9767 79.0533H35.2856C35.6825 79.0533 35.7532 78.7567 35.7495 78.4558C35.7495 78.1689 35.5883 77.9507 35.282 77.9507L35.2829 77.9516Z" fill="white"/>
<path d="M38.2022 78.6546C38.2022 78.9107 37.9812 79.3472 37.3279 79.3472C36.8151 79.3472 36.4219 78.9345 36.4219 78.3915C36.4219 77.8486 36.8223 77.4394 37.3279 77.4394C37.8335 77.4394 38.0654 77.743 38.1216 78.1214L37.0117 78.5992C37.0362 78.9063 37.2011 79.0568 37.4439 79.0568C37.6405 79.0568 37.8054 78.931 37.8054 78.7937C37.8054 78.7558 37.7773 78.7154 37.7347 78.7154C37.7103 78.7154 37.693 78.7356 37.6713 78.7356C37.6468 78.7356 37.626 78.7154 37.626 78.6643C37.626 78.5446 37.7311 78.381 37.9214 78.381C38.0129 78.381 38.1071 78.4188 38.1606 78.5006C38.1887 78.5446 38.2031 78.5966 38.2031 78.6546H38.2022ZM37.6405 77.9691C37.6015 77.7949 37.4684 77.7306 37.3696 77.7306C37.1902 77.7306 37.0117 77.8943 37.0008 78.2454L37.6405 77.9691Z" fill="white"/>
<path d="M42.3971 76.9527C42.3971 77.1437 42.2603 77.3558 42.0102 77.3558C41.8625 77.3558 41.7502 77.2598 41.7502 77.1991C41.7502 77.1243 41.8208 77.1718 41.8208 77.0733C41.8208 76.9747 41.7366 76.9166 41.5535 76.9166C41.2518 76.9166 40.816 77.1146 40.4962 77.5238L41.8344 78.9741C41.9468 79.0973 42.0346 79.114 42.0772 79.114C42.0917 79.114 42.1017 79.1105 42.1017 79.1105C42.1751 79.114 42.2068 79.1545 42.2104 79.1958C42.2104 79.2469 42.1715 79.2979 42.1017 79.2979H40.9637C40.8967 79.2979 40.8514 79.2539 40.8514 79.2055C40.8514 79.055 41.1078 79.1677 41.1078 79.0216C41.1078 78.9978 41.0933 78.967 41.0588 78.9292L40.1872 77.9638C40.1483 78.0422 40.0894 78.1416 40.0713 78.2023V78.9635C40.0713 79.107 40.2824 79.114 40.2824 79.114C40.3385 79.114 40.3775 79.1615 40.3775 79.2064C40.3775 79.2539 40.3494 79.2988 40.2824 79.2988H39.3165C39.2531 79.2988 39.2214 79.2478 39.2214 79.2002C39.2214 79.1562 39.2495 79.1184 39.3165 79.1184C39.3165 79.1184 39.5131 79.1052 39.5131 78.9679V76.8938C39.5131 76.7574 39.3165 76.7574 39.3093 76.7574C39.2495 76.7574 39.2178 76.7098 39.2178 76.6614C39.2178 76.6174 39.2495 76.569 39.3192 76.569H40.2778C40.3449 76.569 40.373 76.6069 40.373 76.6474C40.373 76.8454 40.0676 76.6579 40.0676 76.9034V77.603C40.2606 77.1903 40.6403 76.8251 40.9954 76.6306C41.2382 76.4978 41.4693 76.4634 41.6523 76.4634C41.7927 76.4634 42.2702 76.467 42.3799 76.8357C42.3907 76.8735 42.3971 76.914 42.3971 76.9554V76.9527Z" fill="white"/>
<path d="M43.4475 79.2961H42.6076C42.5551 79.2961 42.527 79.2521 42.527 79.2037C42.527 79.1597 42.5515 79.1149 42.6076 79.1149C42.6076 79.1149 42.7481 79.1017 42.7481 78.9644V77.8142C42.7481 77.6743 42.6212 77.6743 42.6212 77.6743C42.5542 77.6743 42.5225 77.6303 42.5225 77.5819C42.5225 77.5379 42.5614 77.4895 42.6212 77.4895L43.3062 77.486L43.3026 78.96C43.3026 79.1034 43.4466 79.1105 43.4466 79.1105C43.5064 79.1105 43.5309 79.1615 43.5309 79.209C43.5273 79.253 43.4992 79.2944 43.4466 79.2944L43.4475 79.2961ZM43.0018 77.3038C42.8051 77.3038 42.6466 77.1806 42.6466 77.0275C42.6466 76.8744 42.8042 76.7512 43.0018 76.7512C43.1993 76.7512 43.3533 76.8744 43.3533 77.0275C43.3533 77.1806 43.1947 77.3038 43.0018 77.3038Z" fill="white"/>
<path d="M45.7487 79.2962H44.9088C44.8526 79.2962 44.8245 79.2486 44.8245 79.2002C44.8245 79.1518 44.849 79.1149 44.9088 79.1149C44.9088 79.1149 45.0492 79.1017 45.0492 78.9644V78.0906C45.0492 77.9128 44.9405 77.787 44.733 77.787C44.5853 77.787 44.5047 77.845 44.4204 77.9234L44.4168 78.9609C44.4168 79.1043 44.5609 79.1114 44.5609 79.1114C44.6134 79.1114 44.6451 79.1527 44.6451 79.1967C44.6451 79.2442 44.6171 79.2953 44.5609 79.2953H43.721C43.6684 79.2953 43.6403 79.2513 43.6403 79.2029C43.6403 79.1545 43.6648 79.114 43.721 79.114C43.721 79.114 43.8614 79.1008 43.8614 78.9635V77.8134C43.8614 77.6734 43.7346 77.6734 43.7346 77.6734C43.6675 77.6734 43.6367 77.6294 43.6367 77.5846C43.6367 77.537 43.6721 77.4886 43.7346 77.4886L44.4159 77.4851L44.4195 77.669C44.5002 77.5766 44.6551 77.4605 44.9324 77.4605C45.2522 77.4605 45.6037 77.5766 45.6037 77.9823V78.9582C45.6037 79.1052 45.7478 79.1087 45.7478 79.1087C45.8003 79.1087 45.8284 79.1466 45.8357 79.1906C45.8357 79.2381 45.8112 79.2926 45.7478 79.2926L45.7487 79.2962Z" fill="white"/>
<path d="M47.7962 76.9316C47.7962 76.9316 47.673 76.9316 47.673 77.0715V78.9653C47.673 79.1017 47.8134 79.1157 47.8134 79.1157C47.8623 79.1157 47.894 79.1501 47.894 79.1941C47.894 79.2451 47.8659 79.2961 47.8134 79.2961H47.1139L47.1176 79.18C47.0442 79.2486 46.8784 79.3305 46.7135 79.3305C46.2142 79.3305 45.9053 78.8869 45.9053 78.3713C45.9053 77.8556 46.1653 77.4402 46.6645 77.4402C46.8294 77.4402 46.9844 77.4878 47.1139 77.5661L47.1176 77.0715C47.1176 76.833 46.8784 77.0029 46.882 76.8392C46.882 76.7952 46.9173 76.7468 46.9835 76.7468H47.7953C47.8587 76.7468 47.894 76.7943 47.894 76.8392C47.894 76.8841 47.8696 76.9316 47.7953 76.9316H47.7962ZM46.8267 77.7236C46.5558 77.7236 46.486 78.007 46.486 78.3651C46.486 78.7233 46.5631 79.0101 46.8231 79.0101C47.0478 79.0101 47.1076 78.696 47.1076 78.3792C47.1076 78.0624 47.0405 77.7245 46.8267 77.7245V77.7236Z" fill="white"/>
</g>
</g>
<path d="M59.7699 35.7732C59.7924 35.9266 59.8036 36.08 59.8036 36.2372C59.8036 38.3553 57.9175 40.073 55.5936 40.073C55.313 40.073 55.036 40.0393 54.7666 39.9906V36.1287C54.8115 36.11 54.8564 36.0875 54.8938 36.0538C54.92 36.0351 55.1408 35.8555 55.5038 35.7058C55.4814 36.3757 55.7508 37.2139 56.7799 37.8538C56.8585 37.8987 56.9408 37.9212 57.0269 37.9212C57.1841 37.9212 57.3375 37.8426 57.4236 37.7004C57.562 37.4796 57.4909 37.1915 57.2739 37.0568C56.3907 36.5104 56.3945 35.848 56.4693 35.5037C57.0568 35.4925 57.7716 35.6759 58.55 36.3008C58.636 36.3719 58.7408 36.4056 58.8418 36.4056C58.9803 36.4056 59.115 36.3457 59.2086 36.2297C59.3021 36.1137 59.3321 35.9678 59.3021 35.8368L59.7699 35.7732Z" fill="#F5C09B"/>
<path d="M59.7699 35.7732L59.3021 35.8368C59.2797 35.7358 59.2235 35.6422 59.1375 35.5711C57.3861 34.1641 55.7171 34.4896 54.7666 35.0173V32.4876C55.0398 32.4352 55.313 32.4015 55.5936 32.4015C57.7454 32.4015 59.5229 33.8759 59.7699 35.7732Z" fill="#F5C09B"/>
<path d="M55.593 31.4659C58.4296 31.4659 60.7385 33.6065 60.7385 36.2372C60.7385 38.868 58.4296 41.0085 55.593 41.0085C55.3161 41.0085 55.0391 40.986 54.7659 40.9449V41.2892C54.7659 45.327 53.082 48.9756 50.3838 51.5802H50.4437V60.8159C50.4437 65.8753 46.3273 69.9917 41.2679 69.9917H39.2246C34.1652 69.9917 30.0488 65.8753 30.0488 60.8159V51.1161C29.7943 50.8467 29.5473 50.5735 29.3153 50.2854C27.2646 47.7482 26.1382 44.5561 26.1382 41.2892V40.9411C25.8538 40.986 25.5694 41.0085 25.2812 41.0085C22.4447 41.0085 20.1357 38.868 20.1357 36.2372C20.1357 33.6065 22.4447 31.4659 25.2812 31.4659C25.5694 31.4659 25.8538 31.4921 26.1382 31.537V27.8173C26.1382 19.925 32.5598 13.5034 40.4521 13.5034C48.3444 13.5034 54.7659 19.925 54.7659 27.8173V31.5295C55.0391 31.4921 55.3161 31.4659 55.593 31.4659ZM59.8029 36.2372C59.8029 36.08 59.7917 35.9266 59.7692 35.7732C59.5223 33.8759 57.7447 32.4015 55.593 32.4015C55.3123 32.4015 55.0391 32.4351 54.7659 32.4875V35.0173C55.7165 34.4896 57.3855 34.164 59.1368 35.5711C59.2229 35.6422 59.279 35.7358 59.3015 35.8368C59.3314 35.9678 59.3015 36.1137 59.2079 36.2297C59.1144 36.3457 58.9796 36.4056 58.8412 36.4056C58.7402 36.4056 58.6354 36.3719 58.5493 36.3008C57.7709 35.6759 57.0562 35.4925 56.4686 35.5037C56.3938 35.848 56.3901 36.5104 57.2732 37.0567C57.4903 37.1915 57.5614 37.4796 57.4229 37.7004C57.3368 37.8426 57.1834 37.9212 57.0262 37.9212C56.9402 37.9212 56.8578 37.8987 56.7792 37.8538C55.7501 37.2139 55.4807 36.3757 55.5032 35.7058C55.1402 35.8555 54.9194 36.0351 54.8932 36.0538C54.8558 36.0875 54.8109 36.11 54.7659 36.1287V39.9906C55.0354 40.0393 55.3123 40.073 55.593 40.073C57.9169 40.073 59.8029 38.3553 59.8029 36.2372ZM53.8304 41.2892V27.8173C53.8304 20.4414 47.8279 14.439 40.4521 14.439C33.0762 14.439 27.0738 20.4414 27.0738 27.8173V41.2892C27.0738 44.3428 28.1253 47.3253 30.0413 49.6941C32.5972 52.8563 36.3918 54.6675 40.4521 54.6675C47.8279 54.6675 53.8304 48.6688 53.8304 41.2892ZM49.5082 60.8159V52.366C47.0383 54.3868 43.8837 55.603 40.4521 55.603C37.0205 55.603 33.5777 54.3232 30.9843 52.0292V60.8159C30.9843 65.3589 34.6816 69.0562 39.2246 69.0562H41.2679C45.8109 69.0562 49.5082 65.3589 49.5082 60.8159ZM26.1382 39.9869V35.9416C25.9736 35.848 25.7079 35.717 25.3673 35.6197C25.4197 36.3046 25.1727 37.1877 24.095 37.8538C24.0201 37.8987 23.9341 37.9212 23.8517 37.9212C23.6946 37.9212 23.5411 37.8426 23.4513 37.7004C23.3166 37.4796 23.384 37.1915 23.6048 37.0567C24.4954 36.5066 24.4842 35.8331 24.4018 35.4925C23.7844 35.5075 23.0659 35.7058 22.3249 36.3008C22.2389 36.3719 22.1378 36.4056 22.033 36.4056C21.8983 36.4056 21.7599 36.3457 21.67 36.2297C21.5765 36.1137 21.5465 35.9678 21.5765 35.8368C21.5989 35.7358 21.6551 35.6422 21.7411 35.5711C23.3727 34.2576 25.0642 34.4484 26.1382 34.8975V32.4913C25.8575 32.4389 25.5694 32.4015 25.2812 32.4015C23.1332 32.4015 21.3557 33.8759 21.105 35.7732C21.0825 35.9266 21.0713 36.08 21.0713 36.2372C21.0713 38.3553 22.9611 40.073 25.2812 40.073C25.5731 40.073 25.8575 40.0393 26.1382 39.9869Z" fill="#111111"/>
<path d="M53.8299 27.8173V41.2892C53.8299 48.6688 47.8274 54.6675 40.4516 54.6675C36.3913 54.6675 32.5967 52.8563 30.0408 49.6941C28.1248 47.3253 27.0732 44.3428 27.0732 41.2892V27.8173C27.0732 20.4414 33.072 14.439 40.4516 14.439C47.8312 14.439 53.8299 20.4414 53.8299 27.8173Z" fill="#F5C09B"/>
<path d="M49.5082 52.366V60.8159C49.5082 65.3589 45.8109 69.0562 41.2679 69.0562H39.2247C34.6817 69.0562 30.9844 65.3589 30.9844 60.8159V52.0292C33.5777 54.3232 36.9195 55.603 40.4521 55.603C43.9847 55.603 47.0384 54.3868 49.5082 52.366Z" fill="#F5C09B"/>
<path d="M26.1382 35.9416V39.9869C25.8575 40.0393 25.5731 40.073 25.2812 40.073C22.9611 40.073 21.0713 38.3553 21.0713 36.2372C21.0713 36.08 21.0825 35.9266 21.105 35.7732L21.5765 35.8368C21.5465 35.9678 21.5765 36.1137 21.67 36.2297C21.7599 36.3457 21.8983 36.4056 22.033 36.4056C22.1378 36.4056 22.2389 36.3719 22.3249 36.3008C23.0659 35.7058 23.7844 35.5075 24.4018 35.4925C24.4842 35.8331 24.4954 36.5067 23.6048 37.0568C23.384 37.1915 23.3166 37.4796 23.4513 37.7004C23.5411 37.8426 23.6946 37.9212 23.8517 37.9212C23.9341 37.9212 24.0201 37.8988 24.095 37.8538C25.1727 37.1877 25.4197 36.3046 25.3673 35.6198C25.7079 35.7171 25.9736 35.848 26.1382 35.9416Z" fill="#F5C09B"/>
<path d="M26.1377 32.4913V34.8975C25.0637 34.4485 23.3723 34.2576 21.7407 35.5711C21.6546 35.6422 21.5985 35.7358 21.576 35.8368L21.1045 35.7732C21.3552 33.8759 23.1328 32.4015 25.2808 32.4015C25.5689 32.4015 25.8571 32.4389 26.1377 32.4913Z" fill="#F5C09B"/>
<g opacity="0.6">
<path d="M47.0943 53.7357C46.9821 53.803 46.8623 53.8667 46.7276 53.9153C44.1717 54.8621 40.6503 55.487 37.9372 54.9706C35.5272 54.5141 32.2678 53.1519 30.5352 51.2958L30.9281 59.8991C30.9281 59.8991 41.4399 60.1311 48.4453 53.1781C48.0187 53.4064 47.5621 53.5897 47.0906 53.7357H47.0943Z" fill="#111111"/>
</g>
<g clip-path="url(#clip3_24_13713)">
<path d="M40.3291 41.7682C40.0709 41.7682 39.8613 41.5586 39.8613 41.3004V31.1666C39.8613 30.9084 40.0709 30.6988 40.3291 30.6988C40.5873 30.6988 40.7969 30.9084 40.7969 31.1666V41.3004C40.7969 41.5586 40.5873 41.7682 40.3291 41.7682Z" fill="#111111"/>
<g opacity="0.1">
<path d="M38.9143 41.2667L39.8611 31.1666L40.3288 41.7644H39.3708C39.1014 41.7644 38.8881 41.5324 38.9143 41.263V41.2667Z" fill="#111111"/>
</g>
</g>
<path d="M40.7742 45.4205C39.1688 45.4205 37.919 44.7993 37.8404 44.7619C37.6084 44.6459 37.5185 44.3653 37.6346 44.1332C37.7506 43.9012 38.0312 43.8114 38.2632 43.9274C38.2932 43.9424 40.778 45.1586 42.9859 43.9349C43.2104 43.8114 43.4948 43.89 43.6221 44.1183C43.7455 44.3428 43.667 44.6272 43.4387 44.7544C42.5331 45.2559 41.6088 45.4243 40.7742 45.4243V45.4205Z" fill="#111111"/>
<path d="M34.0681 36.0726C34.9568 36.0726 35.6773 35.0171 35.6773 33.715C35.6773 32.4129 34.9568 31.3574 34.0681 31.3574C33.1794 31.3574 32.459 32.4129 32.459 33.715C32.459 35.0171 33.1794 36.0726 34.0681 36.0726Z" fill="#111111"/>
<path d="M47.9324 36.0726C48.8211 36.0726 49.5415 35.0171 49.5415 33.715C49.5415 32.4129 48.8211 31.3574 47.9324 31.3574C47.0437 31.3574 46.3232 32.4129 46.3232 33.715C46.3232 35.0171 47.0437 36.0726 47.9324 36.0726Z" fill="#111111"/>
<path d="M36.156 30.5416C36.0662 30.5416 35.9764 30.5154 35.8978 30.463C35.8679 30.4443 34.1315 29.3366 30.9618 29.7071C30.7036 29.7371 30.4716 29.5537 30.4417 29.2992C30.4117 29.041 30.5951 28.809 30.8496 28.7791C34.3934 28.3599 36.3356 29.6323 36.4142 29.6847C36.6275 29.8306 36.6836 30.1188 36.5414 30.3358C36.4516 30.4705 36.3019 30.5416 36.1523 30.5416H36.156Z" fill="#111111"/>
<path d="M45.4899 30.957C45.3665 30.957 45.2392 30.9083 45.1494 30.811C44.9735 30.6239 44.981 30.3283 45.1681 30.1524C45.2392 30.0851 46.9419 28.5133 50.5082 28.3449C50.7664 28.3375 50.9835 28.532 50.9984 28.7903C51.0097 29.0485 50.8113 29.2693 50.5531 29.2805C47.3573 29.4302 45.823 30.8223 45.808 30.8372C45.7182 30.9196 45.6022 30.9607 45.4899 30.9607V30.957Z" fill="#111111"/>
<path d="M47.9442 38.9017C50.7013 38.9017 52.9363 37.6669 52.9363 36.1437C52.9363 34.6205 50.7013 33.3857 47.9442 33.3857C45.1872 33.3857 42.9521 34.6205 42.9521 36.1437C42.9521 37.6669 45.1872 38.9017 47.9442 38.9017Z" fill="#111111"/>
<path d="M44.2536 36.3345C44.2124 36.3345 44.1675 36.3308 44.1264 36.3158C39.965 35.1482 37.9742 36.2559 37.9555 36.2672C37.7347 36.3944 37.4466 36.3233 37.3156 36.0988C37.1846 35.878 37.2557 35.5936 37.4765 35.4626C37.57 35.4065 39.7854 34.1229 44.3771 35.4139C44.6241 35.485 44.77 35.7433 44.7027 35.9902C44.6428 36.1961 44.4557 36.3308 44.2536 36.3308V36.3345Z" fill="#111111"/>
<path d="M52.6996 36.0613C52.6248 36.0613 52.5462 36.0426 52.4751 36.0052C52.2506 35.8817 52.1645 35.5973 52.288 35.369L54.1965 31.8925C54.32 31.6643 54.6044 31.5819 54.8327 31.7054C55.0572 31.8289 55.1433 32.1133 55.0198 32.3416L53.1113 35.8181C53.0252 35.9753 52.8643 36.0613 52.6996 36.0613Z" fill="#111111"/>
<path d="M33.5819 38.9017C36.339 38.9017 38.574 37.6669 38.574 36.1437C38.574 34.6205 36.339 33.3857 33.5819 33.3857C30.8249 33.3857 28.5898 34.6205 28.5898 36.1437C28.5898 37.6669 30.8249 38.9017 33.5819 38.9017Z" fill="#111111"/>
<path d="M28.8208 36.0613C28.6562 36.0613 28.4952 35.9753 28.4092 35.8181L26.5007 32.3416C26.3772 32.1133 26.4595 31.8289 26.6878 31.7054C26.9123 31.5819 27.1967 31.6643 27.3239 31.8925L29.2325 35.369C29.356 35.5973 29.2736 35.8817 29.0453 36.0052C28.9742 36.0426 28.8957 36.0613 28.8208 36.0613Z" fill="#111111"/>
<g clip-path="url(#clip4_24_13713)">
<path d="M25.7685 21.7175C27.0633 14.7421 33.1817 9.46188 40.5351 9.46188C47.8885 9.46188 54.0856 14.8132 55.3243 21.8598V23.1695L25.4766 23.3641L25.7685 21.7213V21.7175Z" fill="white"/>
<path d="M24.9141 23.8319L25.307 21.6315C26.6691 14.308 33.072 8.99411 40.534 8.99411C47.9959 8.99411 54.4811 14.3716 55.7871 21.7774L55.7946 21.8598V23.6335L24.9178 23.8319H24.9141ZM26.2276 21.7999L26.033 22.8889L54.8553 22.7017V21.8972C53.6129 14.9592 47.5955 9.92591 40.534 9.92591C33.4724 9.92591 27.5074 14.918 26.2276 21.7961V21.7999Z" fill="#111111"/>
<path d="M55.8446 22.5109C41.8264 18.4357 29.2077 21.1225 25.0988 22.2302C24.2718 22.451 23.6992 23.2556 23.6992 24.1762V27.0502C23.6992 28.3487 24.8219 29.3104 25.9857 28.9998C30.6297 27.7612 41.8226 25.6132 54.6247 29.1907C55.7136 29.4938 56.8026 28.693 56.9298 27.4805L57.2255 24.6814C57.3303 23.6897 56.7427 22.7691 55.8521 22.5109H55.8446Z" fill="white"/>
<path d="M55.0848 29.7258C54.8864 29.7258 54.6881 29.6996 54.4935 29.6435C41.6653 26.0585 30.3639 28.315 26.1015 29.4526C25.4429 29.6285 24.7469 29.4863 24.193 29.0635C23.5868 28.5994 23.2275 27.8472 23.2275 27.0502V24.1762C23.2275 23.0423 23.946 22.0543 24.9751 21.7774C29.6604 20.5163 42.0582 18.0165 55.9717 22.0618C57.0906 22.3874 57.8091 23.51 57.6819 24.7337L57.39 27.5329C57.3114 28.2776 56.9259 28.9362 56.3347 29.3404C55.9605 29.5948 55.5226 29.7258 55.0848 29.7258ZM40.0562 26.7658C44.4532 26.7658 49.4715 27.2672 54.748 28.7416C55.1147 28.8427 55.4889 28.779 55.8108 28.562C56.1738 28.315 56.4133 27.9034 56.4619 27.4319L56.7538 24.6327C56.8324 23.873 56.3871 23.1545 55.7135 22.9599C42.0283 18.982 29.8288 21.4406 25.2184 22.683C24.5972 22.8514 24.1631 23.4651 24.1631 24.1799V27.0539C24.1631 27.5591 24.3876 28.0344 24.7618 28.3225C25.0874 28.5732 25.4766 28.6518 25.8583 28.5508C28.4441 27.8622 33.5709 26.7658 40.0524 26.7658H40.0562Z" fill="#111111"/>
<path d="M27.8598 28.3711C27.6353 28.3711 27.4369 28.2102 27.3995 27.9782C27.3808 27.8697 26.9579 25.2651 26.8794 23.4389C26.8681 23.1807 27.0702 22.9637 27.3284 22.9524C27.5791 22.9412 27.8037 23.1433 27.8149 23.4015C27.8897 25.1753 28.3201 27.8061 28.3238 27.8323C28.365 28.0867 28.1929 28.3262 27.9384 28.3711C27.9122 28.3749 27.886 28.3786 27.8635 28.3786L27.8598 28.3711Z" fill="#111111"/>
<path d="M32.6052 25.9799C32.3882 25.9799 32.1973 25.8302 32.1487 25.6094C31.8643 24.2884 31.9616 21.3171 31.9653 21.1899C31.9728 20.9317 32.1973 20.7221 32.4481 20.7371C32.7063 20.7446 32.9084 20.9616 32.9009 21.2198C32.9009 21.2498 32.8036 24.2023 33.0618 25.4111C33.1179 25.6618 32.957 25.9125 32.7025 25.9649C32.6689 25.9724 32.6352 25.9761 32.6052 25.9761V25.9799Z" fill="#111111"/>
<path d="M38.0156 27.1849C37.7574 27.1849 37.5479 26.9753 37.5479 26.7171V22.1666C37.5479 21.9084 37.7574 21.6988 38.0156 21.6988C38.2738 21.6988 38.4834 21.9084 38.4834 22.1666V26.7171C38.4834 26.9753 38.2738 27.1849 38.0156 27.1849Z" fill="#111111"/>
<path d="M43.9965 27.2822C43.9965 27.2822 43.9778 27.2822 43.9665 27.2822C43.6148 27.2597 43.4688 25.7354 43.5287 22.7092C43.5324 22.451 43.7607 22.2602 44.0039 22.2489C44.2622 22.2527 44.468 22.466 44.4605 22.7242C44.4306 24.1687 44.4081 26.2942 44.4418 26.6722C44.4567 26.7246 44.4642 26.7807 44.4605 26.8406C44.4455 27.0876 44.2397 27.2784 43.9927 27.2784L43.9965 27.2822ZM44.0264 26.3466C44.0676 26.3466 44.1087 26.3579 44.1499 26.3691C44.1125 26.3579 44.0713 26.3466 44.0264 26.3466Z" fill="#111111"/>
<path d="M48.1082 24.5205C48.1082 24.5205 48.0895 24.5205 48.082 24.5205C47.8238 24.5055 47.6255 24.2847 47.6404 24.0265L47.8126 21.0814C47.8276 20.8232 48.0483 20.6286 48.3066 20.6398C48.5648 20.6548 48.7631 20.8756 48.7481 21.1338L48.576 24.0789C48.561 24.3296 48.3552 24.5205 48.1082 24.5205Z" fill="#111111"/>
<path d="M51.0325 28.1728C51.0325 28.1728 50.9951 28.1728 50.9764 28.1728C50.7182 28.1429 50.5348 27.9109 50.5647 27.6527C50.5647 27.6265 50.8716 24.9957 50.9689 23.3379C50.9839 23.0797 51.2046 22.8889 51.4628 22.9001C51.7211 22.9151 51.9157 23.1359 51.9007 23.3941C51.7996 25.0781 51.4928 27.735 51.4928 27.7612C51.4666 28.0007 51.2645 28.1766 51.0288 28.1766L51.0325 28.1728Z" fill="#111111"/>
<path d="M54.2876 26.6086C54.2689 26.6086 54.2502 26.6086 54.2315 26.6086C53.9733 26.5786 53.7936 26.3429 53.8236 26.0884C54.0481 24.2173 54.1304 22.0319 54.1304 22.0094C54.1379 21.7512 54.3662 21.5379 54.6132 21.5604C54.8714 21.5679 55.0735 21.7849 55.0622 22.0431C55.0622 22.0656 54.9799 24.2922 54.7479 26.2007C54.718 26.4364 54.5159 26.6123 54.2839 26.6123L54.2876 26.6086Z" fill="#111111"/>
<path d="M39.2853 18.9558C39.0271 18.9558 38.8176 18.7463 38.8176 18.488C38.8026 13.3051 39.7419 11.2768 39.783 11.1908C39.8953 10.9588 40.1722 10.8577 40.408 10.97C40.64 11.0823 40.741 11.3592 40.6288 11.5912C40.6138 11.6249 39.7381 13.5745 39.7531 18.4843C39.7531 18.7425 39.5435 18.9521 39.2853 18.9521V18.9558Z" fill="#111111"/>
<path d="M43.1736 20.8718H43.1661C42.9079 20.8718 42.7021 20.6585 42.7021 20.4003C42.7021 20.3703 42.732 17.3055 42.238 15.6103C42.1669 15.3633 42.3091 15.1013 42.5561 15.0302C42.8031 14.9591 43.0651 15.1013 43.1362 15.3483C43.6713 17.1783 43.6414 20.2805 43.6414 20.4115C43.6414 20.6697 43.4281 20.8755 43.1736 20.8755V20.8718Z" fill="#111111"/>
<path d="M49.2765 15.9434C49.0744 15.9434 48.8873 15.8124 48.8274 15.6103C48.82 15.5916 48.2212 13.612 46.2977 11.0523C46.1443 10.8465 46.1855 10.5546 46.3913 10.3974C46.5971 10.244 46.8927 10.2852 47.0462 10.491C49.0782 13.1966 49.6994 15.2585 49.7256 15.3446C49.7967 15.5916 49.6582 15.8498 49.4075 15.9246C49.3626 15.9359 49.3177 15.9434 49.2765 15.9434Z" fill="#111111"/>
<path d="M34.1243 21.0103C34.1019 21.0103 34.0794 21.0103 34.0532 21.0065C33.7988 20.9691 33.6229 20.7296 33.6603 20.4751L34.143 17.2494C34.1805 16.9949 34.42 16.8115 34.6744 16.8565C34.9289 16.8939 35.1048 17.1334 35.0674 17.3878L34.5846 20.6136C34.5509 20.8456 34.3489 21.014 34.1243 21.014V21.0103Z" fill="#111111"/>
<path d="M27.6009 21.9982C27.5784 21.9982 27.5597 21.9982 27.5373 21.9945C27.2828 21.9608 27.1032 21.725 27.1369 21.4668C27.1481 21.3957 27.3876 19.6968 28.6113 17.3841C28.731 17.1558 29.0155 17.0697 29.2437 17.1895C29.472 17.3092 29.5581 17.5937 29.4383 17.8219C28.2895 19.9887 28.0649 21.5753 28.0612 21.5903C28.0313 21.8261 27.8292 21.9945 27.5972 21.9945L27.6009 21.9982Z" fill="#111111"/>
<path d="M32.5073 15.412C32.4399 15.412 32.3725 15.397 32.3089 15.3671C32.0732 15.2585 31.9721 14.9816 32.0807 14.7458C33.5962 11.4864 36.8632 9.43194 37.2187 9.34962C37.4732 9.28974 37.7201 9.44691 37.78 9.69764C37.8324 9.92966 37.7089 10.1579 37.4919 10.2403C37.3384 10.3263 34.3709 12.0402 32.9264 15.1388C32.8478 15.3109 32.6794 15.4082 32.5035 15.4082L32.5073 15.412Z" fill="#111111"/>
<path d="M51.4393 21.8148C51.4393 21.8148 51.4206 21.8148 51.4093 21.8148C51.1511 21.7999 50.9565 21.5791 50.9715 21.3209L51.0838 19.4385C51.095 19.229 50.9416 19.0381 50.732 19.0119L46.2601 18.3907C46.1403 18.372 46.0281 18.4094 45.9383 18.488C45.8485 18.5666 45.7998 18.6751 45.7998 18.7949C45.7998 19.5433 45.7998 20.4564 45.7998 20.5387C45.7998 20.797 45.5977 21.0103 45.3395 21.014C45.1 21.014 44.868 20.8119 44.8643 20.5537C44.8643 20.4676 44.8643 19.5508 44.8643 18.7949C44.8643 18.4057 45.0327 18.039 45.3245 17.7845C45.6164 17.53 46.0056 17.414 46.3911 17.4664L50.863 18.0876C51.5515 18.1849 52.0605 18.8024 52.0193 19.4984L51.9071 21.3807C51.8921 21.6277 51.6863 21.8186 51.4393 21.8186V21.8148Z" fill="#111111"/>
</g>
</g>
<rect x="1" y="1" width="77.5" height="78" stroke="#111111" stroke-width="2"/>
<defs>
<clipPath id="clip0_24_13713">
<rect width="79.5" height="80" fill="white"/>
</clipPath>
<clipPath id="clip1_24_13713">
<rect width="79.3456" height="82.3656" fill="white" transform="translate(-0.00488281 6.74878)"/>
</clipPath>
<clipPath id="clip2_24_13713">
<rect width="13.8461" height="4.49062" fill="white" transform="translate(34.0498 74.8566)"/>
</clipPath>
<clipPath id="clip3_24_13713">
<rect width="1.88232" height="11.0694" fill="white" transform="translate(38.915 30.6988)"/>
</clipPath>
<clipPath id="clip4_24_13713">
<rect width="78.0807" height="80.2175" fill="white" transform="translate(1.49219 8.99411)"/>
</clipPath>
</defs>
</svg>
