<svg width="89" height="41" viewBox="0 0 89 41" fill="none" xmlns="http://www.w3.org/2000/svg">
<rect x="25.4094" y="6.23327" width="10.3287" height="2.52884" transform="rotate(60 25.4094 6.23327)" fill="black"/>
<rect x="25.4094" y="6.23327" width="10.3287" height="2.52884" transform="rotate(60 25.4094 6.23327)" stroke="black" stroke-width="0.903081"/>
<rect x="24.7854" y="6.54504" width="10.3287" height="2.52884" transform="rotate(60 24.7854 6.54504)" fill="#EEE5DA"/>
<rect x="24.7854" y="6.54504" width="10.3287" height="2.52884" transform="rotate(60 24.7854 6.54504)" stroke="black" stroke-width="0.903081"/>
<rect x="46.1744" y="0.45154" width="10.3287" height="2.52884" transform="rotate(90 46.1744 0.45154)" fill="black"/>
<rect x="46.1744" y="0.45154" width="10.3287" height="2.52884" transform="rotate(90 46.1744 0.45154)" stroke="black" stroke-width="0.903081"/>
<rect x="45.5509" y="0.45154" width="10.3287" height="2.52884" transform="rotate(90 45.5509 0.45154)" fill="#EEE5DA"/>
<rect x="45.5509" y="0.45154" width="10.3287" height="2.52884" transform="rotate(90 45.5509 0.45154)" stroke="black" stroke-width="0.903081"/>
<rect x="66.3399" y="8.35474" width="10.3287" height="2.52884" transform="rotate(135 66.3399 8.35474)" fill="black"/>
<rect x="66.3399" y="8.35474" width="10.3287" height="2.52884" transform="rotate(135 66.3399 8.35474)" stroke="black" stroke-width="0.903081"/>
<rect x="65.7154" y="7.73071" width="10.3287" height="2.52884" transform="rotate(135 65.7154 7.73071)" fill="#EEE5DA"/>
<rect x="65.7154" y="7.73071" width="10.3287" height="2.52884" transform="rotate(135 65.7154 7.73071)" stroke="black" stroke-width="0.903081"/>
<mask id="path-7-outside-1_43_9422" maskUnits="userSpaceOnUse" x="0" y="21.5759" width="89" height="20" fill="black">
<rect fill="white" y="21.5759" width="89" height="20"/>
<path d="M17.528 39.9999C16.776 38.6399 15.528 36.5599 13.784 33.7599L10.976 36.5439V39.9999H5C5.128 36.8959 5.192 33.9919 5.192 31.2879C5.192 28.5839 5.128 25.6799 5 22.5759H10.976V29.6079C13.92 26.6959 16.016 24.3519 17.264 22.5759H25.04L17.48 30.0639C18.6 31.6319 19.856 33.3359 21.248 35.1759C22.656 37.0159 23.928 38.6239 25.064 39.9999H17.528Z"/>
<path d="M44.03 33.4479L45.278 22.5759H51.134L47.918 39.9999H40.55L38.918 30.2799L37.022 39.9999H29.966L26.75 22.5759H32.606L33.83 33.3039L35.75 22.5759H42.158L44.03 33.4479Z"/>
<path d="M66.9909 27.3519C65.0869 27.2559 63.6789 27.1999 62.7669 27.1839V35.3919C63.6949 35.3759 65.1029 35.3199 66.9909 35.2239V39.9999H53.0469V35.2239C54.8869 35.3199 56.2869 35.3759 57.2469 35.3919V27.1839C56.2869 27.1999 54.8869 27.2559 53.0469 27.3519V22.5759H66.9909V27.3519Z"/>
<path d="M76.8821 35.2719C77.7941 35.2559 80.1461 35.1919 83.9381 35.0799C84.4181 35.0639 84.9781 35.0399 85.6181 35.0079C86.2581 34.9759 86.9701 34.9519 87.7541 34.9359C87.6421 35.6879 87.5701 36.4399 87.5381 37.1919C87.5221 37.9439 87.5141 38.8799 87.5141 39.9999H69.1061V34.6479C69.9861 34.1519 70.9461 33.5439 71.9861 32.8239C73.0261 32.0879 74.3701 31.1279 76.0181 29.9439C77.5541 28.8239 78.6661 28.0239 79.3541 27.5439C78.0901 27.5599 75.5541 27.6479 71.7461 27.8079C70.4341 27.8719 69.5541 27.9119 69.1061 27.9279C69.1061 26.7439 69.0901 25.7519 69.0581 24.9519C69.0421 24.1519 68.9941 23.3599 68.9141 22.5759H87.5141V27.9519C86.6661 28.5119 85.0981 29.5999 82.8101 31.2159C80.2501 33.0399 78.2741 34.3919 76.8821 35.2719Z"/>
<path d="M14.528 39.9999C13.776 38.6399 12.528 36.5599 10.784 33.7599L7.976 36.5439V39.9999H2C2.128 36.8959 2.192 33.9919 2.192 31.2879C2.192 28.5839 2.128 25.6799 2 22.5759H7.976V29.6079C10.92 26.6959 13.016 24.3519 14.264 22.5759H22.04L14.48 30.0639C15.6 31.6319 16.856 33.3359 18.248 35.1759C19.656 37.0159 20.928 38.6239 22.064 39.9999H14.528Z"/>
<path d="M41.03 33.4479L42.278 22.5759H48.134L44.918 39.9999H37.55L35.918 30.2799L34.022 39.9999H26.966L23.75 22.5759H29.606L30.83 33.3039L32.75 22.5759H39.158L41.03 33.4479Z"/>
<path d="M63.9909 27.3519C62.0869 27.2559 60.6789 27.1999 59.7669 27.1839V35.3919C60.6949 35.3759 62.1029 35.3199 63.9909 35.2239V39.9999H50.0469V35.2239C51.8869 35.3199 53.2869 35.3759 54.2469 35.3919V27.1839C53.2869 27.1999 51.8869 27.2559 50.0469 27.3519V22.5759H63.9909V27.3519Z"/>
<path d="M73.8821 35.2719C74.7941 35.2559 77.1461 35.1919 80.9381 35.0799C81.4181 35.0639 81.9781 35.0399 82.6181 35.0079C83.2581 34.9759 83.9701 34.9519 84.7541 34.9359C84.6421 35.6879 84.5701 36.4399 84.5381 37.1919C84.5221 37.9439 84.5141 38.8799 84.5141 39.9999H66.1061V34.6479C66.9861 34.1519 67.9461 33.5439 68.9861 32.8239C70.0261 32.0879 71.3701 31.1279 73.0181 29.9439C74.5541 28.8239 75.6661 28.0239 76.3541 27.5439C75.0901 27.5599 72.5541 27.6479 68.7461 27.8079C67.4341 27.8719 66.5541 27.9119 66.1061 27.9279C66.1061 26.7439 66.0901 25.7519 66.0581 24.9519C66.0421 24.1519 65.9941 23.3599 65.9141 22.5759H84.5141V27.9519C83.6661 28.5119 82.0981 29.5999 79.8101 31.2159C77.2501 33.0399 75.2741 34.3919 73.8821 35.2719Z"/>
</mask>
<path d="M17.528 39.9999C16.776 38.6399 15.528 36.5599 13.784 33.7599L10.976 36.5439V39.9999H5C5.128 36.8959 5.192 33.9919 5.192 31.2879C5.192 28.5839 5.128 25.6799 5 22.5759H10.976V29.6079C13.92 26.6959 16.016 24.3519 17.264 22.5759H25.04L17.48 30.0639C18.6 31.6319 19.856 33.3359 21.248 35.1759C22.656 37.0159 23.928 38.6239 25.064 39.9999H17.528Z" fill="#111111"/>
<path d="M44.03 33.4479L45.278 22.5759H51.134L47.918 39.9999H40.55L38.918 30.2799L37.022 39.9999H29.966L26.75 22.5759H32.606L33.83 33.3039L35.75 22.5759H42.158L44.03 33.4479Z" fill="#111111"/>
<path d="M66.9909 27.3519C65.0869 27.2559 63.6789 27.1999 62.7669 27.1839V35.3919C63.6949 35.3759 65.1029 35.3199 66.9909 35.2239V39.9999H53.0469V35.2239C54.8869 35.3199 56.2869 35.3759 57.2469 35.3919V27.1839C56.2869 27.1999 54.8869 27.2559 53.0469 27.3519V22.5759H66.9909V27.3519Z" fill="#111111"/>
<path d="M76.8821 35.2719C77.7941 35.2559 80.1461 35.1919 83.9381 35.0799C84.4181 35.0639 84.9781 35.0399 85.6181 35.0079C86.2581 34.9759 86.9701 34.9519 87.7541 34.9359C87.6421 35.6879 87.5701 36.4399 87.5381 37.1919C87.5221 37.9439 87.5141 38.8799 87.5141 39.9999H69.1061V34.6479C69.9861 34.1519 70.9461 33.5439 71.9861 32.8239C73.0261 32.0879 74.3701 31.1279 76.0181 29.9439C77.5541 28.8239 78.6661 28.0239 79.3541 27.5439C78.0901 27.5599 75.5541 27.6479 71.7461 27.8079C70.4341 27.8719 69.5541 27.9119 69.1061 27.9279C69.1061 26.7439 69.0901 25.7519 69.0581 24.9519C69.0421 24.1519 68.9941 23.3599 68.9141 22.5759H87.5141V27.9519C86.6661 28.5119 85.0981 29.5999 82.8101 31.2159C80.2501 33.0399 78.2741 34.3919 76.8821 35.2719Z" fill="#111111"/>
<path d="M14.528 39.9999C13.776 38.6399 12.528 36.5599 10.784 33.7599L7.976 36.5439V39.9999H2C2.128 36.8959 2.192 33.9919 2.192 31.2879C2.192 28.5839 2.128 25.6799 2 22.5759H7.976V29.6079C10.92 26.6959 13.016 24.3519 14.264 22.5759H22.04L14.48 30.0639C15.6 31.6319 16.856 33.3359 18.248 35.1759C19.656 37.0159 20.928 38.6239 22.064 39.9999H14.528Z" fill="#EEE5DA"/>
<path d="M41.03 33.4479L42.278 22.5759H48.134L44.918 39.9999H37.55L35.918 30.2799L34.022 39.9999H26.966L23.75 22.5759H29.606L30.83 33.3039L32.75 22.5759H39.158L41.03 33.4479Z" fill="#EEE5DA"/>
<path d="M63.9909 27.3519C62.0869 27.2559 60.6789 27.1999 59.7669 27.1839V35.3919C60.6949 35.3759 62.1029 35.3199 63.9909 35.2239V39.9999H50.0469V35.2239C51.8869 35.3199 53.2869 35.3759 54.2469 35.3919V27.1839C53.2869 27.1999 51.8869 27.2559 50.0469 27.3519V22.5759H63.9909V27.3519Z" fill="#EEE5DA"/>
<path d="M73.8821 35.2719C74.7941 35.2559 77.1461 35.1919 80.9381 35.0799C81.4181 35.0639 81.9781 35.0399 82.6181 35.0079C83.2581 34.9759 83.9701 34.9519 84.7541 34.9359C84.6421 35.6879 84.5701 36.4399 84.5381 37.1919C84.5221 37.9439 84.5141 38.8799 84.5141 39.9999H66.1061V34.6479C66.9861 34.1519 67.9461 33.5439 68.9861 32.8239C70.0261 32.0879 71.3701 31.1279 73.0181 29.9439C74.5541 28.8239 75.6661 28.0239 76.3541 27.5439C75.0901 27.5599 72.5541 27.6479 68.7461 27.8079C67.4341 27.8719 66.5541 27.9119 66.1061 27.9279C66.1061 26.7439 66.0901 25.7519 66.0581 24.9519C66.0421 24.1519 65.9941 23.3599 65.9141 22.5759H84.5141V27.9519C83.6661 28.5119 82.0981 29.5999 79.8101 31.2159C77.2501 33.0399 75.2741 34.3919 73.8821 35.2719Z" fill="#EEE5DA"/>
<path d="M17.528 39.9999C16.776 38.6399 15.528 36.5599 13.784 33.7599L10.976 36.5439V39.9999H5C5.128 36.8959 5.192 33.9919 5.192 31.2879C5.192 28.5839 5.128 25.6799 5 22.5759H10.976V29.6079C13.92 26.6959 16.016 24.3519 17.264 22.5759H25.04L17.48 30.0639C18.6 31.6319 19.856 33.3359 21.248 35.1759C22.656 37.0159 23.928 38.6239 25.064 39.9999H17.528Z" stroke="black" stroke-width="2" mask="url(#path-7-outside-1_43_9422)"/>
<path d="M44.03 33.4479L45.278 22.5759H51.134L47.918 39.9999H40.55L38.918 30.2799L37.022 39.9999H29.966L26.75 22.5759H32.606L33.83 33.3039L35.75 22.5759H42.158L44.03 33.4479Z" stroke="black" stroke-width="2" mask="url(#path-7-outside-1_43_9422)"/>
<path d="M66.9909 27.3519C65.0869 27.2559 63.6789 27.1999 62.7669 27.1839V35.3919C63.6949 35.3759 65.1029 35.3199 66.9909 35.2239V39.9999H53.0469V35.2239C54.8869 35.3199 56.2869 35.3759 57.2469 35.3919V27.1839C56.2869 27.1999 54.8869 27.2559 53.0469 27.3519V22.5759H66.9909V27.3519Z" stroke="black" stroke-width="2" mask="url(#path-7-outside-1_43_9422)"/>
<path d="M76.8821 35.2719C77.7941 35.2559 80.1461 35.1919 83.9381 35.0799C84.4181 35.0639 84.9781 35.0399 85.6181 35.0079C86.2581 34.9759 86.9701 34.9519 87.7541 34.9359C87.6421 35.6879 87.5701 36.4399 87.5381 37.1919C87.5221 37.9439 87.5141 38.8799 87.5141 39.9999H69.1061V34.6479C69.9861 34.1519 70.9461 33.5439 71.9861 32.8239C73.0261 32.0879 74.3701 31.1279 76.0181 29.9439C77.5541 28.8239 78.6661 28.0239 79.3541 27.5439C78.0901 27.5599 75.5541 27.6479 71.7461 27.8079C70.4341 27.8719 69.5541 27.9119 69.1061 27.9279C69.1061 26.7439 69.0901 25.7519 69.0581 24.9519C69.0421 24.1519 68.9941 23.3599 68.9141 22.5759H87.5141V27.9519C86.6661 28.5119 85.0981 29.5999 82.8101 31.2159C80.2501 33.0399 78.2741 34.3919 76.8821 35.2719Z" stroke="black" stroke-width="2" mask="url(#path-7-outside-1_43_9422)"/>
<path d="M14.528 39.9999C13.776 38.6399 12.528 36.5599 10.784 33.7599L7.976 36.5439V39.9999H2C2.128 36.8959 2.192 33.9919 2.192 31.2879C2.192 28.5839 2.128 25.6799 2 22.5759H7.976V29.6079C10.92 26.6959 13.016 24.3519 14.264 22.5759H22.04L14.48 30.0639C15.6 31.6319 16.856 33.3359 18.248 35.1759C19.656 37.0159 20.928 38.6239 22.064 39.9999H14.528Z" stroke="black" stroke-width="2" mask="url(#path-7-outside-1_43_9422)"/>
<path d="M41.03 33.4479L42.278 22.5759H48.134L44.918 39.9999H37.55L35.918 30.2799L34.022 39.9999H26.966L23.75 22.5759H29.606L30.83 33.3039L32.75 22.5759H39.158L41.03 33.4479Z" stroke="black" stroke-width="2" mask="url(#path-7-outside-1_43_9422)"/>
<path d="M63.9909 27.3519C62.0869 27.2559 60.6789 27.1999 59.7669 27.1839V35.3919C60.6949 35.3759 62.1029 35.3199 63.9909 35.2239V39.9999H50.0469V35.2239C51.8869 35.3199 53.2869 35.3759 54.2469 35.3919V27.1839C53.2869 27.1999 51.8869 27.2559 50.0469 27.3519V22.5759H63.9909V27.3519Z" stroke="black" stroke-width="2" mask="url(#path-7-outside-1_43_9422)"/>
<path d="M73.8821 35.2719C74.7941 35.2559 77.1461 35.1919 80.9381 35.0799C81.4181 35.0639 81.9781 35.0399 82.6181 35.0079C83.2581 34.9759 83.9701 34.9519 84.7541 34.9359C84.6421 35.6879 84.5701 36.4399 84.5381 37.1919C84.5221 37.9439 84.5141 38.8799 84.5141 39.9999H66.1061V34.6479C66.9861 34.1519 67.9461 33.5439 68.9861 32.8239C70.0261 32.0879 71.3701 31.1279 73.0181 29.9439C74.5541 28.8239 75.6661 28.0239 76.3541 27.5439C75.0901 27.5599 72.5541 27.6479 68.7461 27.8079C67.4341 27.8719 66.5541 27.9119 66.1061 27.9279C66.1061 26.7439 66.0901 25.7519 66.0581 24.9519C66.0421 24.1519 65.9941 23.3599 65.9141 22.5759H84.5141V27.9519C83.6661 28.5119 82.0981 29.5999 79.8101 31.2159C77.2501 33.0399 75.2741 34.3919 73.8821 35.2719Z" stroke="black" stroke-width="2" mask="url(#path-7-outside-1_43_9422)"/>
</svg>
