<svg width="27" height="36" viewBox="0 0 27 36" fill="none" xmlns="http://www.w3.org/2000/svg">
<g id="Frame 182">
<path id="Vector 5" d="M23.6393 26.0352H3.26393C2.0136 26.0352 1 27.0488 1 28.2991V32.8269C1 34.0773 2.0136 35.0909 3.26393 35.0909H23.6393C24.8896 35.0909 25.9032 34.0773 25.9032 32.8269V28.2991C25.9032 27.0488 24.8896 26.0352 23.6393 26.0352Z" fill="#466D79" stroke="#111111" stroke-width="1.13196"/>
<g id="Vector 6">
<path d="M23.6395 21.5075V23.7714C23.6395 25.0217 22.6259 26.0353 21.3756 26.0353H5.52809C4.27776 26.0353 3.26416 25.0217 3.26416 23.7714V21.5075C3.26416 20.2571 4.27776 19.2435 5.52809 19.2435H11.1879V9.62184C11.1879 8.37151 12.2015 7.35791 13.4518 7.35791C14.7022 7.35791 15.7158 8.37151 15.7158 9.62184V19.2435H21.3756C22.6259 19.2435 23.6395 20.2571 23.6395 21.5075Z" fill="#466D79"/>
<path d="M11.1879 19.2435H5.52809C4.27776 19.2435 3.26416 20.2571 3.26416 21.5075V23.7714C3.26416 25.0217 4.27776 26.0353 5.52809 26.0353H21.3756C22.6259 26.0353 23.6395 25.0217 23.6395 23.7714V21.5075C23.6395 20.2571 22.6259 19.2435 21.3756 19.2435H15.7158M11.1879 19.2435H15.7158M11.1879 19.2435V9.62184C11.1879 8.37151 12.2015 7.35791 13.4518 7.35791V7.35791C14.7022 7.35791 15.7158 8.37151 15.7158 9.62184V19.2435" stroke="#111111" stroke-width="1.13196"/>
</g>
<circle id="Ellipse 6" cx="13.4518" cy="5.65982" r="5.09384" fill="#EB4C37" stroke="#111111" stroke-width="1.13196"/>
</g>
</svg>
