<svg width="387" height="399" viewBox="0 0 387 399" fill="none" xmlns="http://www.w3.org/2000/svg">
<g clip-path="url(#clip0_87_12741)">
<g clip-path="url(#clip1_87_12741)">
<path d="M313.046 343.277C313.046 345.208 312.681 353.125 306.44 359.804C299.919 366.774 289.234 370.295 274.65 370.295C237.457 370.295 234.348 348.147 234.093 344.297C237.445 342.002 239.825 339.962 241.403 338.457C241.646 340.982 242.241 343.447 243.213 345.791C244.439 348.79 246.224 351.425 248.349 353.854C250.498 356.307 252.866 358.626 255.768 360.168C258.743 361.759 262.07 362.779 265.337 363.544C271.942 365.086 278.961 365.317 285.518 363.434C290.934 361.868 295.924 358.784 299.592 354.473C301.534 352.178 303.101 349.567 304.097 346.714C304.619 345.196 304.922 343.642 305.189 342.063C305.432 340.618 305.712 339.1 306.489 337.837C307.885 339.21 310.034 341.104 313.046 343.277Z" fill="#1A4730"/>
<path d="M397.256 424.354H147.782C154.291 403.299 177.471 364.988 204.028 357.666C216.098 354.327 224.998 350.016 231.288 346.118C232.442 353.1 238.89 373.33 274.65 373.33C290.132 373.33 301.595 369.469 308.699 361.831C314.333 355.772 315.693 348.96 315.996 345.292C322.396 349.433 331.685 354.132 344.483 357.666C371.817 365.207 394.366 404.379 397.256 424.354ZM293.982 394.167H290.946C290.946 403.517 283.344 411.119 274.007 411.119C264.669 411.119 257.055 403.517 257.055 394.167H254.02C254.02 405.193 262.981 414.154 274.007 414.154C285.032 414.154 293.982 405.193 293.982 394.167ZM285.469 394.167C285.469 390.828 283.854 388.12 281.863 388.12C279.872 388.12 278.257 390.828 278.257 394.167C278.257 397.507 279.872 400.227 281.863 400.227C283.854 400.227 285.469 397.519 285.469 394.167ZM270.412 394.167C270.412 390.828 268.797 388.12 266.806 388.12C264.815 388.12 263.2 390.828 263.2 394.167C263.2 397.507 264.815 400.227 266.806 400.227C268.797 400.227 270.412 397.519 270.412 394.167Z" fill="#1A4730"/>
<path d="M281.863 388.121C283.854 388.121 285.469 390.829 285.469 394.168C285.469 397.507 283.854 400.227 281.863 400.227C279.871 400.227 278.256 397.519 278.256 394.168C278.256 390.817 279.871 388.121 281.863 388.121Z" fill="#1A4730"/>
<path d="M293.981 394.168C293.981 405.193 285.02 414.155 274.007 414.155C262.993 414.155 254.02 405.193 254.02 394.168H257.055C257.055 403.518 264.657 411.119 274.007 411.119C283.357 411.119 290.946 403.518 290.946 394.168H293.981Z" fill="#1A4730"/>
<path d="M266.806 388.121C268.797 388.121 270.412 390.829 270.412 394.168C270.412 397.507 268.797 400.227 266.806 400.227C264.814 400.227 263.199 397.519 263.199 394.168C263.199 390.817 264.814 388.121 266.806 388.121Z" fill="#1A4730"/>
<path d="M274.65 373.331C238.889 373.331 232.442 353.101 231.288 346.119C224.998 350.017 216.097 354.327 204.027 357.667C177.471 364.989 154.291 403.299 147.782 424.355H397.256C394.366 404.38 371.817 365.207 344.483 357.667C331.685 354.133 322.395 349.434 315.996 345.293C315.693 348.96 314.333 355.772 308.698 361.832C301.595 369.469 290.132 373.331 274.65 373.331ZM234.093 344.297C234.348 348.147 237.457 370.295 274.65 370.295C289.233 370.295 299.919 366.774 306.44 359.804C312.681 353.125 313.046 345.208 313.046 343.277C310.034 341.104 307.885 339.209 306.488 337.837C305.711 339.1 305.432 340.618 305.189 342.063C304.922 343.642 304.618 345.196 304.096 346.714C303.101 349.567 301.534 352.178 299.591 354.473C295.924 358.784 290.933 361.868 285.518 363.434C278.961 365.316 271.942 365.086 265.336 363.544C262.07 362.779 258.743 361.759 255.768 360.168C252.866 358.626 250.498 356.307 248.349 353.854C246.224 351.425 244.439 348.79 243.212 345.791C242.241 343.447 241.646 340.982 241.403 338.457C239.824 339.962 237.444 342.002 234.093 344.297ZM242.52 337.352C242.714 340.569 243.504 343.739 244.9 346.641C246.454 349.883 248.749 352.688 251.275 355.226C253.606 357.557 256.254 359.282 259.338 360.447C262.434 361.625 265.652 362.487 268.919 363.009C275.281 364.042 281.996 363.714 288.019 361.297C292.986 359.306 297.466 355.821 300.429 351.352C301.886 349.154 302.979 346.738 303.574 344.164C304.133 341.711 304.23 339.112 305.626 336.975C305.481 336.817 305.335 336.672 305.213 336.538C306.027 335.53 306.44 334.449 306.513 333.393L306.816 333.769C306.962 333.952 317.963 347.199 345.285 354.74C373.735 362.584 398.385 403.214 400.474 425.727L400.632 427.391H143.763L144.297 425.472C149.737 405.558 173.343 362.973 203.226 354.74C230.584 347.187 241.294 334.207 241.403 334.073L241.852 333.514H243.176V334.437C243.042 335.178 243.03 335.955 243.139 336.696C242.969 336.878 242.763 337.109 242.52 337.352Z" fill="#111111"/>
<g clip-path="url(#clip2_87_12741)">
<path d="M258.632 395.836H254.322C254.116 395.836 253.992 395.67 253.992 395.516C253.992 395.373 254.095 395.251 254.322 395.251C254.322 395.251 254.915 395.208 254.915 394.762V388.032C254.915 387.578 254.277 387.578 254.277 387.578C254.06 387.578 253.957 387.435 253.957 387.29C253.957 387.135 254.072 386.978 254.277 386.978H258.279C259.602 386.978 260.557 387.444 260.557 388.949C260.557 390.211 259.987 390.753 259.258 390.853C260.046 390.942 261.195 391.85 261.172 393.212C261.148 394.451 260.284 395.836 258.629 395.836H258.632ZM257.935 387.721L257 387.709C256.806 387.709 256.726 387.786 256.726 387.975L256.715 390.642H257.876C258.72 390.642 259.049 389.899 259.049 389.18C259.061 388.406 258.729 387.718 257.932 387.718L257.935 387.721ZM257.958 391.473H256.726V394.794C256.726 394.971 256.829 395.048 256.965 395.048H257.967C259.255 395.048 259.484 394.085 259.472 393.109C259.472 392.178 258.949 391.47 257.955 391.47L257.958 391.473Z" fill="white"/>
<path d="M267.431 393.754C267.431 394.585 266.714 396.001 264.594 396.001C262.93 396.001 261.654 394.662 261.654 392.9C261.654 391.138 262.954 389.81 264.594 389.81C266.235 389.81 266.987 390.795 267.17 392.023L263.568 393.574C263.648 394.57 264.183 395.059 264.971 395.059C265.609 395.059 266.144 394.65 266.144 394.205C266.144 394.082 266.052 393.951 265.914 393.951C265.835 393.951 265.779 394.016 265.708 394.016C265.629 394.016 265.561 393.951 265.561 393.785C265.561 393.397 265.903 392.866 266.52 392.866C266.817 392.866 267.123 392.988 267.296 393.254C267.387 393.397 267.434 393.565 267.434 393.754H267.431ZM265.609 391.529C265.482 390.964 265.05 390.755 264.729 390.755C264.147 390.755 263.568 391.287 263.533 392.426L265.609 391.529Z" fill="white"/>
<path d="M281.043 388.232C281.043 388.851 280.599 389.539 279.787 389.539C279.308 389.539 278.944 389.228 278.944 389.031C278.944 388.788 279.173 388.943 279.173 388.623C279.173 388.303 278.9 388.115 278.306 388.115C277.327 388.115 275.913 388.757 274.875 390.085L279.217 394.791C279.582 395.19 279.867 395.245 280.005 395.245C280.052 395.245 280.084 395.233 280.084 395.233C280.323 395.245 280.425 395.376 280.437 395.51C280.437 395.676 280.311 395.841 280.084 395.841H276.392C276.174 395.841 276.027 395.699 276.027 395.542C276.027 395.053 276.859 395.419 276.859 394.945C276.859 394.868 276.812 394.768 276.701 394.645L273.872 391.513C273.746 391.767 273.555 392.089 273.496 392.286V394.756C273.496 395.222 274.181 395.245 274.181 395.245C274.363 395.245 274.49 395.399 274.49 395.544C274.49 395.699 274.399 395.844 274.181 395.844H271.047C270.841 395.844 270.738 395.679 270.738 395.524C270.738 395.382 270.829 395.259 271.047 395.259C271.047 395.259 271.685 395.216 271.685 394.771V388.04C271.685 387.598 271.047 387.598 271.023 387.598C270.829 387.598 270.727 387.444 270.727 387.287C270.727 387.144 270.829 386.987 271.056 386.987H274.166C274.384 386.987 274.475 387.109 274.475 387.241C274.475 387.883 273.484 387.275 273.484 388.072V390.342C274.11 389.003 275.342 387.818 276.495 387.187C277.283 386.755 278.032 386.644 278.626 386.644C279.082 386.644 280.631 386.655 280.987 387.852C281.022 387.975 281.043 388.106 281.043 388.24V388.232Z" fill="white"/>
<path d="M284.453 395.836H281.728C281.557 395.836 281.466 395.693 281.466 395.536C281.466 395.393 281.546 395.247 281.728 395.247C281.728 395.247 282.184 395.205 282.184 394.759V391.027C282.184 390.573 281.772 390.573 281.772 390.573C281.555 390.573 281.452 390.43 281.452 390.273C281.452 390.13 281.578 389.973 281.772 389.973L283.995 389.962L283.983 394.745C283.983 395.21 284.45 395.233 284.45 395.233C284.644 395.233 284.724 395.399 284.724 395.553C284.712 395.696 284.621 395.83 284.45 395.83L284.453 395.836ZM283.007 389.371C282.369 389.371 281.854 388.971 281.854 388.474C281.854 387.977 282.366 387.578 283.007 387.578C283.648 387.578 284.148 387.977 284.148 388.474C284.148 388.971 283.633 389.371 283.007 389.371Z" fill="white"/>
<path d="M291.918 395.836H289.193C289.011 395.836 288.92 395.682 288.92 395.525C288.92 395.368 288.999 395.248 289.193 395.248C289.193 395.248 289.649 395.205 289.649 394.759V391.924C289.649 391.347 289.296 390.939 288.623 390.939C288.144 390.939 287.882 391.127 287.608 391.381L287.597 394.748C287.597 395.213 288.064 395.236 288.064 395.236C288.235 395.236 288.338 395.37 288.338 395.513C288.338 395.667 288.246 395.833 288.064 395.833H285.339C285.168 395.833 285.077 395.69 285.077 395.533C285.077 395.376 285.157 395.245 285.339 395.245C285.339 395.245 285.795 395.202 285.795 394.757V391.024C285.795 390.57 285.383 390.57 285.383 390.57C285.165 390.57 285.065 390.428 285.065 390.282C285.065 390.128 285.18 389.971 285.383 389.971L287.594 389.959L287.606 390.556C287.867 390.256 288.37 389.879 289.27 389.879C290.307 389.879 291.448 390.256 291.448 391.573V394.739C291.448 395.216 291.916 395.228 291.916 395.228C292.086 395.228 292.177 395.35 292.201 395.493C292.201 395.647 292.121 395.824 291.916 395.824L291.918 395.836Z" fill="white"/>
<path d="M298.565 388.163C298.565 388.163 298.166 388.163 298.166 388.617V394.762C298.166 395.205 298.621 395.251 298.621 395.251C298.78 395.251 298.883 395.362 298.883 395.505C298.883 395.67 298.792 395.836 298.621 395.836H296.352L296.363 395.459C296.125 395.682 295.587 395.947 295.052 395.947C293.432 395.947 292.43 394.508 292.43 392.835C292.43 391.162 293.273 389.814 294.893 389.814C295.428 389.814 295.931 389.968 296.352 390.222L296.363 388.617C296.363 387.844 295.587 388.395 295.599 387.864C295.599 387.721 295.714 387.564 295.928 387.564H298.562C298.768 387.564 298.883 387.718 298.883 387.864C298.883 388.009 298.804 388.163 298.562 388.163H298.565ZM295.42 390.733C294.541 390.733 294.314 391.653 294.314 392.815C294.314 393.977 294.564 394.908 295.408 394.908C296.137 394.908 296.331 393.889 296.331 392.861C296.331 391.833 296.113 390.736 295.42 390.736V390.733Z" fill="white"/>
</g>
</g>
<path d="M337.416 254.611C337.488 255.109 337.525 255.606 337.525 256.116C337.525 262.989 331.405 268.563 323.864 268.563C322.954 268.563 322.055 268.454 321.181 268.296V255.764C321.326 255.704 321.472 255.631 321.594 255.521C321.679 255.461 322.395 254.878 323.573 254.392C323.5 256.566 324.374 259.286 327.713 261.362C327.968 261.508 328.236 261.581 328.515 261.581C329.025 261.581 329.523 261.326 329.802 260.864C330.251 260.148 330.021 259.213 329.316 258.776C326.451 257.003 326.463 254.854 326.706 253.736C328.612 253.7 330.931 254.295 333.457 256.323C333.736 256.554 334.076 256.663 334.404 256.663C334.853 256.663 335.291 256.469 335.594 256.092C335.898 255.716 335.995 255.242 335.898 254.817L337.416 254.611Z" fill="#8C5A4A"/>
<path d="M337.416 254.61L335.898 254.817C335.825 254.489 335.643 254.185 335.363 253.955C329.681 249.389 324.265 250.445 321.181 252.157V243.949C322.067 243.779 322.954 243.67 323.864 243.67C330.846 243.67 336.614 248.454 337.416 254.61Z" fill="#8C5A4A"/>
<path d="M323.864 240.634C333.068 240.634 340.56 247.58 340.56 256.116C340.56 264.653 333.068 271.598 323.864 271.598C322.966 271.598 322.067 271.526 321.181 271.392V272.509C321.181 285.611 315.716 297.451 306.961 305.902H307.156V335.87C307.156 352.287 293.799 365.644 277.381 365.644H270.751C254.334 365.644 240.977 352.287 240.977 335.87V304.396C240.152 303.522 239.35 302.635 238.597 301.7C231.943 293.468 228.288 283.11 228.288 272.509V271.38C227.365 271.526 226.442 271.598 225.507 271.598C216.303 271.598 208.811 264.653 208.811 256.116C208.811 247.58 216.303 240.634 225.507 240.634C226.442 240.634 227.365 240.719 228.288 240.865V228.795C228.288 203.186 249.125 182.349 274.734 182.349C300.343 182.349 321.181 203.186 321.181 228.795V240.841C322.067 240.719 322.966 240.634 323.864 240.634ZM337.525 256.116C337.525 255.606 337.488 255.109 337.415 254.611C336.614 248.454 330.846 243.67 323.864 243.67C322.953 243.67 322.067 243.779 321.181 243.949V252.158C324.265 250.446 329.68 249.389 335.363 253.955C335.643 254.186 335.825 254.489 335.898 254.817C335.995 255.242 335.898 255.716 335.594 256.092C335.29 256.469 334.853 256.663 334.404 256.663C334.076 256.663 333.736 256.554 333.457 256.323C330.931 254.295 328.612 253.7 326.706 253.736C326.463 254.854 326.451 257.003 329.316 258.776C330.02 259.213 330.251 260.148 329.802 260.864C329.523 261.326 329.025 261.581 328.515 261.581C328.235 261.581 327.968 261.508 327.713 261.362C324.374 259.286 323.5 256.566 323.573 254.392C322.395 254.878 321.678 255.461 321.593 255.521C321.472 255.631 321.326 255.704 321.181 255.764V268.296C322.055 268.453 322.953 268.563 323.864 268.563C331.405 268.563 337.525 262.989 337.525 256.116ZM318.145 272.509V228.795C318.145 204.862 298.668 185.385 274.734 185.385C250.801 185.385 231.324 204.862 231.324 228.795V272.509C231.324 282.418 234.736 292.096 240.953 299.782C249.247 310.043 261.559 315.92 274.734 315.92C298.668 315.92 318.145 296.455 318.145 272.509ZM304.12 335.87V308.452C296.106 315.009 285.869 318.955 274.734 318.955C263.599 318.955 252.428 314.803 244.013 307.359V335.87C244.013 350.612 256.01 362.609 270.751 362.609H277.381C292.123 362.609 304.12 350.612 304.12 335.87ZM228.288 268.283V255.157C227.754 254.854 226.892 254.429 225.787 254.113C225.957 256.335 225.155 259.201 221.658 261.362C221.415 261.508 221.136 261.581 220.869 261.581C220.359 261.581 219.861 261.326 219.57 260.864C219.132 260.148 219.351 259.213 220.067 258.776C222.957 256.991 222.921 254.805 222.654 253.7C220.65 253.749 218.319 254.392 215.915 256.323C215.635 256.554 215.307 256.663 214.967 256.663C214.53 256.663 214.081 256.469 213.79 256.092C213.486 255.716 213.389 255.242 213.486 254.817C213.559 254.489 213.741 254.186 214.02 253.955C219.315 249.693 224.803 250.312 228.288 251.769V243.961C227.377 243.791 226.442 243.67 225.507 243.67C218.537 243.67 212.77 248.454 211.956 254.611C211.883 255.109 211.847 255.606 211.847 256.116C211.847 262.989 217.979 268.563 225.507 268.563C226.455 268.563 227.377 268.453 228.288 268.283Z" fill="#111111"/>
<path d="M318.144 228.795V272.509C318.144 296.455 298.667 315.92 274.734 315.92C261.559 315.92 249.246 310.043 240.952 299.782C234.735 292.095 231.323 282.418 231.323 272.509V228.795C231.323 204.862 250.788 185.385 274.734 185.385C298.679 185.385 318.144 204.862 318.144 228.795Z" fill="#8C5A4A"/>
<path d="M304.121 308.452V335.87C304.121 350.612 292.123 362.609 277.382 362.609H270.752C256.011 362.609 244.014 350.612 244.014 335.87V307.359C252.429 314.802 263.272 318.955 274.735 318.955C286.198 318.955 296.106 315.009 304.121 308.452Z" fill="#8C5A4A"/>
<path d="M228.288 255.157V268.283C227.377 268.453 226.454 268.563 225.507 268.563C217.978 268.563 211.846 262.989 211.846 256.116C211.846 255.606 211.883 255.108 211.955 254.61L213.485 254.817C213.388 255.242 213.485 255.715 213.789 256.092C214.08 256.468 214.53 256.663 214.967 256.663C215.307 256.663 215.635 256.553 215.914 256.323C218.318 254.392 220.65 253.748 222.653 253.7C222.92 254.805 222.957 256.99 220.067 258.775C219.35 259.213 219.132 260.148 219.569 260.864C219.86 261.325 220.358 261.58 220.868 261.58C221.135 261.58 221.415 261.508 221.658 261.362C225.155 259.2 225.956 256.335 225.786 254.113C226.891 254.428 227.753 254.853 228.288 255.157Z" fill="#8C5A4A"/>
<path d="M228.289 243.961V251.769C224.804 250.312 219.315 249.693 214.021 253.955C213.742 254.185 213.559 254.489 213.487 254.817L211.957 254.61C212.77 248.454 218.538 243.67 225.508 243.67C226.443 243.67 227.378 243.791 228.289 243.961Z" fill="#8C5A4A"/>
<g opacity="0.6">
<path d="M296.287 312.896C295.923 313.114 295.534 313.321 295.097 313.479C286.804 316.551 275.377 318.579 266.574 316.903C258.754 315.422 248.177 311.002 242.555 304.979L243.83 332.895C243.83 332.895 277.939 333.648 300.671 311.087C299.286 311.827 297.805 312.422 296.275 312.896H296.287Z" fill="#111111"/>
</g>
<g clip-path="url(#clip3_87_12741)">
<path d="M274.334 274.063C273.496 274.063 272.816 273.383 272.816 272.545V239.663C272.816 238.825 273.496 238.145 274.334 238.145C275.172 238.145 275.852 238.825 275.852 239.663V272.545C275.852 273.383 275.172 274.063 274.334 274.063Z" fill="#111111"/>
<g opacity="0.1">
<path d="M269.743 272.436L272.816 239.662L274.333 274.051H271.225C270.351 274.051 269.658 273.298 269.743 272.424V272.436Z" fill="#111111"/>
</g>
</g>
<path d="M275.779 285.914C270.569 285.914 266.514 283.899 266.259 283.777C265.506 283.401 265.214 282.49 265.591 281.737C265.967 280.984 266.878 280.693 267.631 281.069C267.728 281.118 275.791 285.064 282.955 281.094C283.684 280.693 284.606 280.948 285.019 281.689C285.42 282.417 285.165 283.34 284.424 283.753C281.486 285.38 278.486 285.926 275.779 285.926V285.914Z" fill="#111111"/>
<path d="M266.101 244.824H239.387C238.173 249.074 240.601 259.395 253.351 259.395C263.551 259.395 266.101 249.681 266.101 244.824Z" fill="white"/>
<path d="M311.307 244.824H284.593C283.378 249.074 285.807 259.395 298.557 259.395C308.757 259.395 311.307 249.681 311.307 244.824Z" fill="white"/>
<path d="M252.488 261.071C243.77 261.071 236.678 253.98 236.678 245.249C236.678 244.411 237.358 243.731 238.196 243.731H266.792C267.63 243.731 268.31 244.411 268.31 245.249C268.31 253.968 261.219 261.071 252.5 261.071H252.488ZM239.799 246.767C240.552 253.105 245.955 258.035 252.488 258.035C259.021 258.035 264.425 253.105 265.177 246.767H239.799Z" fill="#111111"/>
<path d="M260.054 246.22H244.523C244.523 250.616 248.093 254.186 252.489 254.186C256.884 254.186 260.454 250.616 260.454 246.22" fill="#111111"/>
<path d="M268.749 241.412H238.185C237.347 241.412 236.667 240.732 236.667 239.894C236.667 239.056 237.347 238.376 238.185 238.376H268.749C269.587 238.376 270.267 239.056 270.267 239.894C270.267 240.732 269.587 241.412 268.749 241.412Z" fill="#111111"/>
<path d="M297.053 261.071C288.334 261.071 281.231 253.98 281.231 245.249C281.231 244.411 281.911 243.731 282.749 243.731H311.345C312.183 243.731 312.863 244.411 312.863 245.249C312.863 253.968 305.772 261.071 297.053 261.071ZM284.364 246.767C285.117 253.105 290.52 258.035 297.053 258.035C303.586 258.035 308.989 253.105 309.742 246.767H284.364Z" fill="#111111"/>
<path d="M289.487 246.22H305.018C305.018 250.616 301.448 254.186 297.052 254.186C292.656 254.186 289.086 250.616 289.086 246.22" fill="#111111"/>
<path d="M311.344 241.412H280.781C279.943 241.412 279.263 240.732 279.263 239.894C279.263 239.056 279.943 238.376 280.781 238.376H311.344C312.182 238.376 312.862 239.056 312.862 239.894C312.862 240.732 312.182 241.412 311.344 241.412Z" fill="#111111"/>
<g clip-path="url(#clip4_87_12741)">
<path d="M257.845 174.736C257.019 175.015 236.303 180.625 228.69 206.088L227.536 215.985V230.216C227.536 230.216 223.056 237.21 229.297 241.048C235.538 244.885 240.699 247.678 252.575 236.288C264.45 224.898 274.918 224.849 274.918 224.849C274.918 224.849 288.797 226.173 301.182 240.453C301.182 240.453 311.273 247.398 322.299 239.821C322.299 239.821 327.812 234.903 322.299 228.856C322.299 228.856 323.404 208.845 317.345 195.864C311.285 182.884 296.993 175.209 285.203 173.194C285.203 173.194 287.461 165.289 274.918 164.366C262.374 163.443 264.633 172.999 264.633 172.999L257.833 174.724L257.845 174.736Z" fill="white"/>
<path d="M323.378 230.386C322.541 230.386 321.861 229.706 321.861 228.868V215.985C321.861 192.998 303.161 174.286 280.162 174.286H271.832C248.834 174.286 230.134 192.998 230.134 215.985V228.868C230.134 229.706 229.454 230.386 228.616 230.386C227.778 230.386 227.098 229.706 227.098 228.868V215.985C227.098 191.323 247.17 171.251 271.832 171.251H280.162C304.824 171.251 324.896 191.323 324.896 215.985V228.868C324.896 229.706 324.216 230.386 323.378 230.386Z" fill="#111111"/>
<path d="M267.291 174.529C266.939 174.529 266.587 174.407 266.296 174.152C264.923 172.962 264.195 171.517 264.195 170C264.195 165.992 269.38 162.847 275.998 162.847C282.615 162.847 287.8 165.992 287.8 170C287.8 171.384 287.181 172.72 286.015 173.849C285.42 174.432 284.449 174.42 283.866 173.812C283.283 173.205 283.295 172.246 283.903 171.663C284.473 171.105 284.765 170.546 284.765 169.987C284.765 168.045 281.013 165.871 275.998 165.871C270.983 165.871 267.231 168.045 267.231 169.987C267.231 170.765 267.801 171.42 268.287 171.845C268.918 172.392 268.991 173.351 268.433 173.982C268.129 174.335 267.716 174.505 267.291 174.505V174.529Z" fill="#111111"/>
<path d="M311.697 245.637C307.447 245.637 303.197 244.022 299.724 240.028C288.735 227.35 278.62 226.415 278.062 226.367H273.884C273.884 226.367 263.514 227.035 252.27 240.028C245.082 248.321 234.493 246.354 227.681 241.023C224.694 238.68 223.953 234.405 226.017 231.309C236.691 215.195 254.59 205.578 273.884 205.578H278.11C297.417 205.578 315.304 215.195 325.977 231.309C328.029 234.418 327.301 238.692 324.313 241.023C320.792 243.78 316.251 245.637 311.697 245.637ZM278.11 223.331H278.171C278.644 223.355 289.84 223.975 302.019 238.036C308.795 245.856 318.339 241.837 322.443 238.631C324.192 237.259 324.641 234.77 323.451 232.973C313.336 217.709 296.397 208.602 278.11 208.602H273.884C255.597 208.602 238.658 217.709 228.543 232.973C227.353 234.77 227.79 237.247 229.551 238.631C233.655 241.849 243.2 245.856 249.975 238.036C262.167 223.975 273.35 223.355 273.824 223.331H278.11Z" fill="#111111"/>
<path d="M307.751 217.114C306.913 217.114 306.233 216.434 306.233 215.596V195.755C306.233 184.693 296.179 177.468 296.082 177.395C295.402 176.909 295.232 175.962 295.718 175.282C296.203 174.602 297.138 174.432 297.831 174.918C298.292 175.246 309.269 183.102 309.269 195.755V215.596C309.269 216.434 308.589 217.114 307.751 217.114Z" fill="#111111"/>
<path d="M244.209 217.114C243.371 217.114 242.691 216.434 242.691 215.596V195.755C242.691 183.102 253.668 175.246 254.129 174.918C254.822 174.432 255.757 174.602 256.242 175.282C256.728 175.962 256.558 176.909 255.878 177.395C255.781 177.468 245.727 184.693 245.727 195.755V215.596C245.727 216.434 245.047 217.114 244.209 217.114Z" fill="#111111"/>
<path d="M274.65 201.413H270.534C269.866 201.413 269.319 200.867 269.319 200.199C269.319 199.531 269.866 198.985 270.534 198.985H274.65C275.318 198.985 275.864 199.531 275.864 200.199C275.864 200.867 275.318 201.413 274.65 201.413Z" fill="#111111"/>
<path d="M282.908 201.413H278.791C278.124 201.413 277.577 200.867 277.577 200.199C277.577 199.531 278.124 198.985 278.791 198.985H282.908C283.576 198.985 284.122 199.531 284.122 200.199C284.122 200.867 283.576 201.413 282.908 201.413Z" fill="#111111"/>
<path d="M271.079 196.155C270.411 196.155 269.865 195.609 269.865 194.941V179.665C269.865 178.998 270.411 178.451 271.079 178.451C271.747 178.451 272.293 178.998 272.293 179.665V194.941C272.293 195.609 271.747 196.155 271.079 196.155Z" fill="#111111"/>
<path d="M282.979 196.155H269.027C268.359 196.155 267.813 195.609 267.813 194.941C267.813 194.273 268.359 193.727 269.027 193.727H281.765V191.602C281.765 190.934 282.311 190.387 282.979 190.387C283.647 190.387 284.194 190.934 284.194 191.602V194.941C284.194 195.609 283.647 196.155 282.979 196.155Z" fill="#111111"/>
<path d="M272.598 201.413C272.488 201.413 272.367 201.401 272.258 201.365C271.614 201.183 271.238 200.503 271.432 199.859L275.646 185.3C275.791 184.778 276.277 184.426 276.811 184.426C277.358 184.426 277.831 184.79 277.977 185.312L282.021 199.871C282.203 200.515 281.826 201.183 281.171 201.365C280.527 201.547 279.859 201.158 279.677 200.515L276.787 190.084L273.763 200.527C273.606 201.061 273.12 201.401 272.598 201.401V201.413Z" fill="#111111"/>
</g>
<g clip-path="url(#clip5_87_12741)">
<path d="M242.603 425.703L242.761 427.366H-14.0957L-13.5736 425.448C-8.12144 405.534 15.4842 362.949 45.3555 354.704C45.7926 354.582 46.2176 354.461 46.6547 354.339L47.4926 357.242C47.0555 357.375 46.6062 357.509 46.1569 357.63C19.6006 364.964 -3.58004 403.275 -10.0886 424.331H91.8624V412.625H137.058V405.157H140.094V424.331H239.385C236.495 404.356 213.946 365.171 186.613 357.63C180.25 355.882 174.773 353.829 170.062 351.717C170.596 353.465 171.058 355.274 171.458 357.108L168.532 357.764C167.281 352.02 165.424 346.629 162.655 342.755C156.632 334.328 152.297 330.977 149.954 329.665C150.597 335.215 151.654 348.535 148.764 359.087L145.837 358.334C146.991 354.097 147.476 349.288 147.598 344.759C147.404 345.269 147.185 345.779 146.954 346.289L145.922 345.779C147.076 343.314 147.731 340.691 147.319 337.983C147.282 337.74 147.367 337.558 147.513 337.425C147.246 331.766 146.626 327.65 146.614 327.54L146.323 325.658L148.229 325.804C148.873 325.84 154.896 326.666 165.12 340.995C166.504 342.925 167.682 345.196 168.666 347.673C173.79 350.187 179.995 352.664 187.414 354.704C215.865 362.56 240.515 403.19 242.603 425.703ZM137.058 424.331V421.89H94.8981V424.331H137.058Z" fill="#111111"/>
<path d="M239.385 424.331H140.093V384.224L150.063 380.156C150.645 379.913 151.301 379.949 151.847 380.229L169.94 389.639C170.341 389.846 170.778 389.943 171.215 389.943C171.701 389.943 172.175 389.821 172.612 389.566C173.437 389.081 173.935 388.206 173.96 387.259C174.081 382.159 174.045 369.021 171.458 357.109C171.057 355.275 170.596 353.466 170.062 351.717C174.773 353.83 180.25 355.882 186.612 357.631C213.946 365.172 236.495 404.356 239.385 424.331Z" fill="#1C2845"/>
<path d="M171.458 357.108C174.044 369.02 174.081 382.159 173.959 387.259C173.935 388.206 173.437 389.08 172.612 389.566C172.174 389.821 171.701 389.942 171.215 389.942C170.778 389.942 170.341 389.845 169.94 389.639L151.847 380.228C151.301 379.949 150.645 379.912 150.062 380.155L140.093 384.223V388.424H94.8977V395.892H91.8619V384.223L81.8927 380.155C81.3099 379.912 80.6663 379.949 80.1077 380.228L62.0149 389.639C61.6142 389.845 61.1771 389.942 60.7399 389.942C60.2664 389.942 59.7807 389.821 59.3435 389.566C58.5178 389.08 58.02 388.206 57.9957 387.246C57.8742 381.43 57.9228 365.147 61.7478 352.166C57.6192 353.963 52.8836 355.712 47.4922 357.242L46.6543 354.339C53.0414 352.506 58.4935 350.369 63.0957 348.195C64.1278 345.512 65.3542 343.059 66.8356 340.995C77.0599 326.666 83.0827 325.84 83.7384 325.804L85.6327 325.658L85.3413 327.54C85.3291 327.625 84.9527 330.151 84.6613 333.94C85.2806 336.805 85.9605 339.659 86.762 342.488C87.697 345.791 88.7777 349.009 90.7934 351.826C93.9141 356.234 98.6376 359.427 103.689 361.212C109.93 363.41 116.73 363.519 123.215 362.536C126.42 362.038 129.711 361.407 132.747 360.253C135.782 359.112 138.005 357.011 139.996 354.509C142.036 351.935 144.404 348.985 145.922 345.779L146.954 346.289C146.711 346.787 146.468 347.285 146.189 347.77C144.44 350.891 142.206 353.866 139.862 356.562C137.677 359.087 135.102 360.812 131.909 361.819C128.606 362.876 125.121 363.532 121.673 363.957C115.043 364.77 108.109 364.382 101.88 361.807C96.6826 359.67 91.9834 356.124 88.9963 351.316C87.2598 348.535 86.3005 345.39 85.4263 342.245C85.062 340.934 84.7463 339.61 84.4184 338.287C84.1877 344.188 84.382 351.559 85.997 357.812C87.7455 359.694 99.8155 371.971 115.893 372.384C126.311 372.663 136.402 367.927 145.837 358.334L148.763 359.087C147.877 362.354 146.602 365.365 144.817 367.794C141.465 372.347 139.68 378.103 138.867 381.454L148.921 377.338C149.552 377.083 150.208 376.962 150.876 376.962C151.69 376.962 152.503 377.156 153.244 377.532L170.936 386.736C171.033 381.454 170.948 368.947 168.532 357.764L171.458 357.108ZM142.364 365.997C142.582 365.693 142.789 365.377 142.995 365.062C134.665 371.947 125.874 375.432 116.755 375.432C116.427 375.432 116.111 375.419 115.795 375.419C103.762 375.092 94.0477 368.862 88.5105 364.309C88.8505 364.892 89.2027 365.462 89.5912 365.997C92.7605 370.307 94.6184 375.517 95.6384 379.172H136.317C137.337 375.517 139.195 370.307 142.364 365.997ZM83.0341 377.338L93.0884 381.454C92.2748 378.103 90.4898 372.347 87.1384 367.794C79.5977 357.533 81.1641 336.939 82.002 329.665C79.6584 330.977 75.3235 334.328 69.3006 342.755C61.1407 354.182 60.8735 378.734 61.0192 386.736L78.7113 377.532C80.0591 376.84 81.6256 376.767 83.0341 377.338Z" fill="#111111"/>
<path d="M168.532 357.764C170.948 368.947 171.033 381.455 170.936 386.737L153.244 377.532C152.504 377.156 151.69 376.962 150.876 376.962C150.209 376.962 149.553 377.083 148.921 377.338L138.867 381.455C139.681 378.103 141.466 372.347 144.817 367.794C146.602 365.365 147.877 362.354 148.764 359.088C151.654 348.535 150.597 335.215 149.954 329.666C152.297 330.977 156.632 334.328 162.655 342.755C165.423 346.629 167.281 352.02 168.532 357.764Z" fill="#1C2845"/>
<path d="M146.953 346.289C147.184 345.779 147.403 345.269 147.597 344.759C147.475 349.288 146.99 354.097 145.836 358.335C136.401 367.928 126.311 372.663 115.892 372.384C99.815 371.971 87.745 359.695 85.9964 357.813C84.3814 351.559 84.1872 344.189 84.4179 338.287C84.7457 339.611 85.0614 340.934 85.4257 342.246C86.3 345.391 87.2593 348.536 88.9957 351.316C91.9828 356.125 96.6821 359.671 101.879 361.808C108.108 364.382 115.042 364.771 121.672 363.957C125.121 363.532 128.606 362.876 131.908 361.82C135.102 360.812 137.676 359.088 139.862 356.562C142.205 353.866 144.44 350.891 146.188 347.771C146.468 347.285 146.71 346.787 146.953 346.289Z" fill="white"/>
<path d="M142.995 365.062C142.789 365.377 142.583 365.693 142.364 365.997C139.195 370.307 137.337 375.517 136.317 379.172H95.6386C94.6186 375.517 92.7607 370.307 89.5915 365.997C89.2029 365.462 88.8507 364.892 88.5107 364.309C94.0479 368.862 103.762 375.092 115.796 375.42C116.111 375.42 116.427 375.432 116.755 375.432C125.874 375.432 134.666 371.947 142.995 365.062Z" fill="white"/>
<path d="M140.094 388.425V405.158H137.058H94.898V412.626H91.8623V395.893H94.898H137.058V388.425H140.094Z" fill="#111111"/>
<path d="M137.057 388.425H94.8975V395.893H137.057V388.425Z" fill="white"/>
<path d="M93.0887 381.455L83.0344 377.338C81.6259 376.767 80.0595 376.84 78.7116 377.532L61.0195 386.737C60.8738 378.735 61.141 354.182 69.3009 342.755C75.3238 334.328 79.6587 330.977 82.0023 329.666C81.1645 336.939 79.598 357.533 87.1387 367.794C90.4901 372.347 92.2751 378.103 93.0887 381.455Z" fill="#1C2845"/>
<path d="M91.8626 412.625V424.331H-10.0884C-3.57984 403.275 19.6008 364.965 46.1571 357.63C46.6064 357.509 47.0557 357.375 47.4928 357.242C52.8842 355.712 57.6199 353.963 61.7484 352.166C57.9235 365.147 57.8749 381.43 57.9963 387.247C58.0206 388.206 58.5185 389.08 59.3442 389.566C59.7813 389.821 60.267 389.942 60.7406 389.942C61.1777 389.942 61.6149 389.845 62.0156 389.639L80.1084 380.228C80.6669 379.949 81.3105 379.912 81.8934 380.155L91.8626 384.223V412.625Z" fill="#1C2845"/>
</g>
<path d="M179.557 254.611C179.63 255.109 179.666 255.607 179.666 256.117C179.666 262.989 173.547 268.563 166.006 268.563C165.095 268.563 164.197 268.454 163.322 268.296V255.765C163.468 255.704 163.614 255.631 163.735 255.522C163.82 255.461 164.537 254.878 165.714 254.392C165.642 256.566 166.516 259.286 169.855 261.362C170.11 261.508 170.377 261.581 170.657 261.581C171.167 261.581 171.664 261.326 171.944 260.864C172.393 260.148 172.162 259.213 171.458 258.776C168.592 257.003 168.604 254.854 168.847 253.737C170.754 253.7 173.073 254.295 175.599 256.323C175.878 256.554 176.218 256.663 176.546 256.663C176.995 256.663 177.432 256.469 177.736 256.092C178.039 255.716 178.136 255.242 178.039 254.817L179.557 254.611Z" fill="#F5C09B"/>
<path d="M179.557 254.611L178.039 254.818C177.966 254.49 177.784 254.186 177.505 253.956C171.822 249.39 166.407 250.446 163.322 252.158V243.95C164.209 243.78 165.095 243.671 166.006 243.671C172.988 243.671 178.756 248.455 179.557 254.611Z" fill="#F5C09B"/>
<path d="M166.006 240.635C175.21 240.635 182.702 247.581 182.702 256.117C182.702 264.653 175.21 271.599 166.006 271.599C165.107 271.599 164.209 271.526 163.322 271.393V272.51C163.322 285.612 157.858 297.451 149.103 305.902H149.297V335.871C149.297 352.288 135.94 365.645 119.523 365.645H112.893C96.476 365.645 83.1189 352.288 83.1189 335.871V304.397C82.2932 303.522 81.4918 302.636 80.7389 301.701C74.0847 293.468 70.4297 283.11 70.4297 272.51V271.38C69.5068 271.526 68.584 271.599 67.649 271.599C58.4447 271.599 50.9526 264.653 50.9526 256.117C50.9526 247.581 58.4447 240.635 67.649 240.635C68.584 240.635 69.5068 240.72 70.4297 240.866V228.796C70.4297 203.186 91.2667 182.349 116.876 182.349C142.485 182.349 163.322 203.186 163.322 228.796V240.841C164.209 240.72 165.107 240.635 166.006 240.635ZM179.666 256.117C179.666 255.607 179.63 255.109 179.557 254.611C178.756 248.455 172.988 243.671 166.006 243.671C165.095 243.671 164.209 243.78 163.322 243.95V252.158C166.406 250.446 171.822 249.39 177.505 253.955C177.784 254.186 177.966 254.49 178.039 254.818C178.136 255.243 178.039 255.716 177.736 256.093C177.432 256.469 176.995 256.663 176.546 256.663C176.218 256.663 175.878 256.554 175.599 256.323C173.073 254.295 170.754 253.7 168.847 253.737C168.604 254.854 168.592 257.003 171.458 258.776C172.162 259.213 172.393 260.148 171.944 260.865C171.664 261.326 171.166 261.581 170.656 261.581C170.377 261.581 170.11 261.508 169.855 261.363C166.516 259.286 165.641 256.566 165.714 254.393C164.536 254.878 163.82 255.461 163.735 255.522C163.614 255.631 163.468 255.704 163.322 255.765V268.296C164.196 268.454 165.095 268.563 166.006 268.563C173.546 268.563 179.666 262.99 179.666 256.117ZM160.286 272.51V228.796C160.286 204.862 140.809 185.385 116.876 185.385C92.9425 185.385 73.4654 204.862 73.4654 228.796V272.51C73.4654 282.418 76.8775 292.096 83.0946 299.782C91.3882 310.043 103.701 315.92 116.876 315.92C140.809 315.92 160.286 296.455 160.286 272.51ZM146.261 335.871V308.452C138.247 315.009 128.011 318.956 116.876 318.956C105.741 318.956 94.5696 314.803 86.1546 307.36V335.871C86.1546 350.612 98.1517 362.609 112.893 362.609H119.523C134.264 362.609 146.261 350.612 146.261 335.871ZM70.4297 268.284V255.158C69.8954 254.854 69.0333 254.429 67.9283 254.113C68.0983 256.335 67.2969 259.201 63.7997 261.363C63.5569 261.508 63.2776 261.581 63.0104 261.581C62.5004 261.581 62.0026 261.326 61.7112 260.865C61.274 260.148 61.4926 259.213 62.209 258.776C65.099 256.991 65.0626 254.805 64.7954 253.7C62.7919 253.749 60.4604 254.393 58.0562 256.323C57.7769 256.554 57.449 256.663 57.109 256.663C56.6719 256.663 56.2226 256.469 55.9312 256.093C55.6276 255.716 55.5305 255.243 55.6276 254.818C55.7005 254.49 55.8826 254.186 56.1619 253.955C61.4562 249.693 66.9447 250.313 70.4297 251.77V243.962C69.519 243.792 68.584 243.671 67.649 243.671C60.679 243.671 54.9112 248.455 54.0976 254.611C54.0248 255.109 53.9883 255.607 53.9883 256.117C53.9883 262.99 60.1205 268.563 67.649 268.563C68.5961 268.563 69.519 268.454 70.4297 268.284Z" fill="#111111"/>
<path d="M160.286 228.795V272.509C160.286 296.455 140.809 315.92 116.875 315.92C103.7 315.92 91.3876 310.043 83.0941 299.782C76.877 292.096 73.4648 282.418 73.4648 272.509V228.795C73.4648 204.862 92.9298 185.385 116.875 185.385C140.821 185.385 160.286 204.862 160.286 228.795Z" fill="#F5C09B"/>
<path d="M146.262 308.452V335.871C146.262 350.612 134.265 362.609 119.524 362.609H112.894C98.1524 362.609 86.1553 350.612 86.1553 335.871V307.36C94.5702 314.803 105.414 318.956 116.877 318.956C128.339 318.956 138.248 315.01 146.262 308.452Z" fill="#F5C09B"/>
<path d="M70.4291 255.158V268.284C69.5184 268.454 68.5956 268.563 67.6484 268.563C60.1199 268.563 53.9878 262.99 53.9878 256.117C53.9878 255.607 54.0242 255.109 54.0971 254.611L55.6271 254.818C55.5299 255.243 55.6271 255.716 55.9306 256.093C56.2221 256.469 56.6714 256.663 57.1085 256.663C57.4485 256.663 57.7763 256.554 58.0556 256.323C60.4599 254.393 62.7913 253.749 64.7949 253.7C65.062 254.805 65.0985 256.991 62.2085 258.776C61.492 259.213 61.2735 260.148 61.7106 260.865C62.002 261.326 62.4999 261.581 63.0099 261.581C63.277 261.581 63.5563 261.508 63.7992 261.363C67.2963 259.201 68.0977 256.335 67.9277 254.113C69.0327 254.429 69.8949 254.854 70.4291 255.158Z" fill="#F5C09B"/>
<path d="M70.4302 243.962V251.77C66.9452 250.313 61.4567 249.693 56.1624 253.956C55.8831 254.186 55.701 254.49 55.6281 254.818L54.0981 254.611C54.9117 248.455 60.6795 243.671 67.6495 243.671C68.5845 243.671 69.5195 243.792 70.4302 243.962Z" fill="#F5C09B"/>
<g opacity="0.6">
<path d="M138.429 312.897C138.064 313.115 137.676 313.322 137.239 313.48C128.945 316.552 117.519 318.58 108.715 316.904C100.895 315.423 90.3189 311.003 84.6968 304.98L85.9718 332.896C85.9718 332.896 120.081 333.649 142.812 311.088C141.428 311.828 139.947 312.423 138.417 312.897H138.429Z" fill="#111111"/>
</g>
<g clip-path="url(#clip6_87_12741)">
<path d="M116.475 274.064C115.638 274.064 114.958 273.384 114.958 272.546V239.664C114.958 238.826 115.638 238.146 116.475 238.146C117.313 238.146 117.993 238.826 117.993 239.664V272.546C117.993 273.384 117.313 274.064 116.475 274.064Z" fill="#111111"/>
<g opacity="0.1">
<path d="M111.885 272.437L114.957 239.663L116.475 274.052H113.366C112.492 274.052 111.8 273.299 111.885 272.425V272.437Z" fill="#111111"/>
</g>
</g>
<path d="M117.92 285.915C112.711 285.915 108.655 283.9 108.4 283.778C107.647 283.402 107.356 282.491 107.732 281.738C108.109 280.985 109.02 280.694 109.772 281.07C109.87 281.119 117.932 285.065 125.097 281.095C125.825 280.694 126.748 280.949 127.161 281.69C127.562 282.418 127.307 283.341 126.566 283.754C123.627 285.381 120.628 285.927 117.92 285.927V285.915Z" fill="#111111"/>
<path d="M78.2022 246.196C77.9957 246.196 77.7772 246.172 77.5707 246.111L69.5322 243.962C68.2329 243.61 67.4679 242.286 67.8201 240.987C68.1722 239.688 69.4958 238.923 70.7951 239.275L78.8336 241.424C80.1329 241.776 80.8979 243.1 80.5457 244.399C80.2543 245.48 79.2707 246.196 78.2022 246.196Z" fill="#111111"/>
<path d="M155.686 246.196C154.617 246.196 153.634 245.48 153.342 244.399C152.99 243.1 153.767 241.776 155.054 241.424L163.081 239.275C164.368 238.922 165.704 239.7 166.056 240.987C166.408 242.286 165.631 243.61 164.344 243.962L156.317 246.111C156.111 246.172 155.892 246.196 155.686 246.196Z" fill="#111111"/>
<path d="M95.1046 265.321C104.171 265.321 111.522 257.971 111.522 248.904C111.522 239.837 104.171 232.487 95.1046 232.487C86.0377 232.487 78.6875 239.837 78.6875 248.904C78.6875 257.971 86.0377 265.321 95.1046 265.321Z" fill="#111111"/>
<path d="M95.1048 234.005C103.338 234.005 110.004 240.672 110.004 248.904C110.004 257.137 103.338 263.804 95.1048 263.804C86.872 263.804 80.2056 257.137 80.2056 248.904C80.2056 240.672 86.872 234.005 95.1048 234.005ZM95.1048 230.969C85.2206 230.969 77.1699 239.02 77.1699 248.904C77.1699 258.789 85.2206 266.839 95.1048 266.839C104.989 266.839 113.04 258.789 113.04 248.904C113.04 239.02 104.989 230.969 95.1048 230.969Z" fill="#111111"/>
<path d="M85.7666 260.525L91.1094 255.267C91.4009 254.988 91.838 254.915 92.2023 255.097L94.3394 256.153C94.6916 256.323 95.1166 256.263 95.408 255.996L108.935 243.379C108.935 243.379 107.672 239.311 104.479 237.344L93.793 247.313C93.5016 247.581 93.0766 247.641 92.7244 247.471L90.5873 246.415C90.223 246.233 89.7859 246.306 89.4944 246.585L81.3345 254.623C81.3345 254.623 82.9616 258.74 85.7666 260.525Z" fill="white"/>
<path d="M138.478 265.321C147.545 265.321 154.895 257.971 154.895 248.904C154.895 239.837 147.545 232.487 138.478 232.487C129.411 232.487 122.061 239.837 122.061 248.904C122.061 257.971 129.411 265.321 138.478 265.321Z" fill="#111111"/>
<path d="M138.478 234.005C146.711 234.005 153.377 240.672 153.377 248.904C153.377 257.137 146.711 263.804 138.478 263.804C130.245 263.804 123.579 257.137 123.579 248.904C123.579 240.672 130.245 234.005 138.478 234.005ZM138.478 230.969C128.594 230.969 120.543 239.02 120.543 248.904C120.543 258.789 128.594 266.839 138.478 266.839C148.362 266.839 156.413 258.789 156.413 248.904C156.413 239.02 148.362 230.969 138.478 230.969Z" fill="#111111"/>
<path d="M129.152 260.525L134.495 255.267C134.787 254.988 135.224 254.915 135.588 255.097L137.725 256.153C138.077 256.323 138.502 256.263 138.794 255.996L152.321 243.379C152.321 243.379 151.058 239.311 147.864 237.344L137.179 247.313C136.887 247.581 136.462 247.641 136.11 247.471L133.973 246.415C133.609 246.233 133.172 246.306 132.88 246.585L124.72 254.623C124.72 254.623 126.347 258.74 129.152 260.525Z" fill="white"/>
<path d="M110.744 247.617C109.858 247.617 109.008 247.131 108.583 246.294C107.975 245.104 108.437 243.634 109.627 243.027C109.93 242.869 117.095 239.275 124.004 243.051C125.182 243.695 125.607 245.176 124.963 246.342C124.32 247.52 122.85 247.957 121.672 247.301C116.997 244.739 111.898 247.301 111.849 247.326C111.497 247.508 111.12 247.593 110.744 247.593V247.617Z" fill="#111111"/>
<path d="M165.602 267.702C167.096 270.616 170.241 270.762 170.241 270.762L166.817 264.205C166.246 265.2 164.765 266.062 165.615 267.702H165.602Z" fill="#111111"/>
<path d="M165.385 261.484L166.806 264.204C167.219 263.488 167.122 262.687 165.385 261.484Z" fill="#111111"/>
<path d="M171.882 161.659C171.784 161.197 171.602 160.639 171.287 159.934C170.959 159.23 170.643 158.684 170.327 158.234C170.898 157.263 171.408 156.279 171.59 155.089C172.039 151.483 169.465 149.455 166.357 148.35C167.182 147.148 167.984 145.909 167.935 144.416C167.826 140.761 164.487 139.85 162.362 137.106C162.192 136.887 162.07 136.669 161.973 136.45C162.847 136.96 163.867 137.167 164.814 136.584C167.498 135.042 168.057 131.775 170.279 132.006C172.622 132.637 173.679 135.442 174.638 137.482C173.63 133.56 170.813 128.205 166.66 132.771C165.822 133.657 164.924 134.592 164.062 134.92C163.612 135.078 163.467 135.005 163.175 134.811C162.884 134.592 162.532 134.143 162.204 133.657C162.167 133.609 162.131 133.548 162.094 133.487C162.556 132.067 163.127 130.792 161.584 129.905C159.86 128.922 158.901 129.723 157.638 130.014C157.407 130.014 157.177 130.063 156.934 130.112C156.314 130.136 155.586 129.99 154.675 129.456C151.336 127.513 154.566 123.057 148.325 120.434C142.083 117.811 140.747 122.255 137.736 121.915C134.725 121.575 132.721 117.799 128.483 118.029C124.245 118.26 119.68 121.114 115.563 120.543C111.435 119.972 111.435 114.836 103.19 117.459C94.9447 120.082 102.303 123.858 96.9483 125.91C95.4669 126.481 94.5076 126.784 93.779 127.015C92.9048 126.59 91.8605 126.469 90.9376 126.784C88.8733 127.222 87.9748 129.468 87.3434 131.095C87.3312 131.119 87.3191 131.119 87.3069 131.144C87.1612 131.253 87.0276 131.35 86.8941 131.435C86.8455 131.435 86.8091 131.435 86.7362 131.435C86.2384 131.314 85.6069 131.095 85.2791 130.731C84.3927 129.942 84.4655 127.902 83.7855 126.639C83.3119 125.679 82.3405 125.036 81.3084 124.817C80.3491 124.672 79.3655 124.538 78.4063 125.072C75.7348 126.627 77.1798 130.488 75.747 132.455C73.2334 133.159 72.2984 129.249 70.5134 128.035C69.5299 127.27 68.2306 127.877 67.4534 128.618C66.6399 129.322 65.9842 130.148 65.3527 130.998C66.3727 129.881 67.4534 128.557 68.9349 128.108C69.4084 127.999 69.882 128.108 70.2463 128.412C71.7156 129.699 72.0434 132.2 74.3384 133.329C75.7834 134.009 77.022 133.172 77.362 131.714C78.0905 129.201 77.702 124.999 81.4177 126.76C82.5834 127.549 82.2069 129.152 82.6562 130.439C82.6805 130.537 82.7291 130.634 82.7655 130.743C82.4984 130.719 82.1827 130.743 81.7941 130.816C78.2241 131.617 80.7862 135.382 75.662 136.523C70.5377 137.664 66.6399 141.429 67.6356 145.885C67.8784 146.954 68.097 148.01 68.2427 148.994C67.3684 149.054 66.482 149.382 65.8992 150.062C64.442 151.726 65.0735 153.656 63.677 154.859C63.1306 155.199 62.2685 155.381 61.6128 155.077C60.6778 154.725 60.1435 153.499 59.3663 152.758C58.6013 152.175 58.0671 153.365 57.8121 153.899C58.3342 153.207 58.9292 152.224 59.4756 153.547C60.2285 155.563 62.0256 157.056 64.3327 156.073C66.2027 155.296 66.4092 152.673 67.5142 151.689C67.757 151.519 68.1213 151.507 68.437 151.58C68.3763 153.486 67.7084 154.98 65.8627 155.721C62.4142 157.093 59.6942 160.626 63.1063 164.172C65.6077 166.759 66.4092 169.284 69.2142 171.251C69.0563 171.3 68.8863 171.312 68.7284 171.373C66.1299 172.453 65.3527 175.489 65.7292 177.954C65.7777 178.221 65.8385 178.501 65.9113 178.78C64.1506 179.035 62.3535 180.079 61.6735 181.415C61.212 182.204 61.1999 183.297 61.552 184.196C61.0299 184.706 60.6413 185.458 60.532 186.138C60.4228 186.661 60.4956 187.268 60.8599 187.668C60.2042 186.758 60.7506 185.556 61.3578 184.766C61.4549 184.645 61.552 184.536 61.6613 184.438C62.0863 185.337 62.8999 185.993 63.9685 185.835C64.5756 185.568 64.2963 184.766 64.0413 184.402C63.4706 183.552 62.7906 183.455 62.1713 183.746C61.7828 182.168 63.1306 180.65 64.7577 180.273C65.2313 180.128 65.802 180.018 66.3606 180.018C66.7977 180.905 67.4899 181.646 68.5706 181.779C69.4449 181.864 70.0399 180.941 69.6391 180.201C69.202 179.472 68.5099 179.035 67.7327 178.841C67.1499 176.898 67.7813 173.947 69.542 173.486C70.1006 173.316 70.7441 173.303 71.3877 173.425C71.4849 173.874 71.582 174.336 71.7277 174.809C72.0556 175.841 72.7234 177.165 73.9498 177.675C75.9291 178.513 78.1998 176.898 77.3013 174.736C79.0984 175.805 78.1027 176.667 76.5363 178.428C74.5934 180.626 73.1484 181.767 75.3463 183.018C74.727 183.188 74.2048 183.588 73.8284 184.208C73.1606 185.288 74.0348 186.612 74.5691 187.316C75.0306 188.021 75.6984 188.652 75.0548 189.332C74.5327 189.915 73.1484 190.388 72.4077 190.753C71.6184 191.093 70.9506 191.688 70.5256 192.441C70.1127 193.303 70.9506 194.08 71.497 194.614C71.1691 194.201 70.8413 193.752 70.7199 193.266C70.5741 192.768 70.9506 192.416 71.3634 192.088C72.1041 191.384 73.1606 191.311 74.217 190.959C75.3948 190.68 76.9734 189.648 76.6213 188.203C76.4391 187.11 75.6013 186.187 75.4556 185.313C75.4677 185.191 75.4677 185.203 75.5041 185.216C75.5163 185.216 75.6255 185.143 75.7348 185.094C76.8034 185.191 77.8841 186.406 79.4748 186.733C80.0334 186.855 80.5191 186.976 81.0412 186.903C80.9562 187.377 80.7012 187.923 80.2155 188.603C78.1027 191.566 78.8798 194.201 74.982 195.343C71.0841 196.484 66.0692 199.107 66.737 202.422C67.4049 205.737 68.4127 210.752 65.6199 212.124C62.8392 213.496 61.5885 215.718 63.0456 219.713C64.3206 223.235 61.5156 223.271 60.5928 225.238C60.1799 225.323 59.7549 225.408 59.3542 225.457C58.6013 225.53 57.8728 225.578 57.2049 225.396C56.8771 225.299 56.3671 225.08 55.7478 225.141C54.9706 225.19 54.2542 225.809 53.9871 226.489C53.2707 228.845 54.3999 231.273 55.6871 233.155C56.5249 234.285 57.3506 234.855 57.3021 236.009C57.3628 237.709 56.1606 239.397 55.6142 241.036C55.4685 241.485 55.3714 241.995 55.6142 242.42C55.6992 242.554 55.8328 242.639 55.9421 242.748C55.4078 242.335 55.5899 241.631 55.8328 241.121C56.7799 239.19 58.5771 237.393 58.1885 234.989C58.0185 234.03 57.2292 233.155 56.8406 232.415C55.9906 230.945 55.4321 228.48 55.9056 227.412C56.9256 227.885 57.9942 228.104 59.0871 228.177C58.2128 230.035 57.5571 232.123 58.2735 234.163C59.2813 237.017 62.6206 237.478 64.4056 241.352C65.4985 243.72 64.9156 245.25 64.3085 246.063C63.6163 246.986 63.1549 248.079 63.1063 249.245C63.0699 250.386 63.252 251.722 64.0656 252.766C65.0856 254.077 66.737 254.94 67.9634 255.984C67.3927 256.142 66.7734 256.275 66.142 256.397C65.5349 256.542 64.7699 256.797 64.357 257.356C63.0213 259.323 65.9356 260.574 67.2713 261.181C69.2263 262.14 71.2663 262.857 72.7477 264.387C73.2213 264.848 73.622 265.516 73.5613 265.65C73.4763 266.026 72.6748 266.378 72.2499 266.572L70.1977 267.447C69.5541 267.75 68.6434 268.078 68.1334 268.576C67.4777 269.122 67.1984 270.069 67.3684 270.847C67.7084 272.413 68.7527 273.591 69.797 274.635C68.862 273.506 67.9756 272.182 67.8299 270.786C67.672 269.159 69.202 268.685 70.5256 268.297L72.6748 267.629C75.1763 266.949 75.6134 265.31 73.9863 263.355C72.4806 261.351 70.0641 260.27 68.012 258.959C68.522 258.874 69.032 258.765 69.5299 258.619C69.5299 258.692 69.542 258.752 69.542 258.825C69.542 261.545 72.4684 260.428 73.3306 256.457C74.1684 255.595 74.7756 254.49 74.9941 253.106C75.0791 251.916 74.2413 251.248 73.3427 251.163C73.1606 249.451 73.1727 248.067 74.8848 246.379C77.8963 243.416 77.3377 237.927 77.2284 234.625C77.1313 231.577 81.3812 225.542 90.4883 223.174C89.5412 224.218 87.9262 224.558 86.5784 224.898C86.0076 225.032 85.5098 225.117 85.0241 225.688C84.5991 226.234 84.6234 227.048 84.8662 227.618C85.4491 229.051 86.5298 230.217 86.8212 231.686C86.9184 232.172 86.8576 232.597 86.6634 233.143C85.7648 235.365 84.1255 237.478 83.4455 239.858C83.0934 241.072 83.0934 242.505 83.8462 243.537C83.2269 242.42 83.4091 241.109 83.8705 240.016C85.2184 236.543 89.8933 233.629 87.9262 229.464C87.6712 228.711 87.2584 227.97 87.0276 227.254C90.7191 227.011 94.0219 225.238 94.0583 222.47C104.052 220.988 108.023 216.945 112.103 215.075C116.34 213.132 119.68 210.169 119.68 210.169C119.68 210.169 121.234 212.683 128.143 213.484C131.567 213.885 134.36 220.357 136.619 220.879C135.805 221.729 135.271 222.785 135.623 224.085C136.619 226.829 140.25 227.011 142.447 226.805C143.067 226.78 143.735 226.756 144.075 226.902C144.172 227.375 143.346 228.262 142.945 228.748C141.828 230.193 139.485 231.735 140.42 234.151C140.99 235.086 141.865 235.171 142.715 235.232C144.487 235.305 146.066 234.795 147.669 235.013C147.924 235.086 147.96 235.086 147.948 235.208C147.815 236.628 145.932 237.952 145.07 239.263C144.062 240.392 144.002 242.505 146.066 242.372C147.523 242.275 149.685 241.376 150.11 243.38C150.389 244.995 149.041 246.512 148.434 247.982C148.191 248.54 148.203 249.196 148.835 249.463C148.252 249.172 148.264 248.528 148.543 248.018C149.515 246.233 151.979 243.452 149.551 241.716C148.24 241 146.722 241.874 145.459 241.437C145.022 240.987 145.459 240.405 145.884 239.882C147.013 238.474 148.628 237.587 149.26 235.742C149.842 233.69 147.547 233.301 146.139 233.386C144.755 233.35 143.127 233.653 142.12 233.216C142.156 233.289 142.144 233.18 142.18 233.058C142.897 231.504 144.803 230.448 145.86 228.881C147.815 225.967 145.544 223.866 142.423 224.06C140.978 224.06 139.533 224 138.78 223.32C139.315 222.81 140.043 222.385 140.82 222.02C141.731 222.3 142.678 222.615 143.722 222.98C149.09 224.801 150.984 223.66 153.546 227.776C156.108 231.893 160.564 236.798 158.779 241.935C156.994 247.071 157.371 249.925 159.192 252.438C161.014 254.952 158.112 259.517 160.674 262.14C160.674 262.14 161.354 262.395 164.159 260.659C164.402 260.841 164.669 261.035 164.972 261.217C165.118 261.315 165.227 261.4 165.361 261.485L164.742 260.295C165.009 260.125 165.288 259.942 165.579 259.736C169.587 256.992 168.251 256.081 166.697 252.317C165.142 248.552 166.915 244.436 168.809 242.153C170.704 239.87 172.149 236.446 169.927 232.9C167.692 229.355 167.474 226.052 168.809 223.648C170.145 221.243 172.489 214.856 167.923 212.683C166.381 211.954 165.956 210.995 165.932 209.938C166.187 210.315 166.49 210.74 167.097 211.116C169.38 212.209 172.513 211.395 173.594 214.079C174.177 215.949 173.436 218.123 172.61 219.871C173.764 218.098 174.808 216.095 174.48 213.848C174.055 210.91 170.315 210.4 168.214 209.392C168.105 209.319 167.887 208.906 167.68 208.481C167.267 207.607 166.879 206.648 166.369 205.749C166.296 205.008 166.004 204.292 165.252 203.66C162.022 200.916 163.357 200.916 159.569 199.544C155.78 198.172 156.448 193.266 152.21 191.554C147.972 189.842 153.327 189.162 158.452 189.271C163.576 189.381 162.131 185.507 164.134 184.244C164.292 184.147 164.438 184.074 164.584 184.001C164.001 184.985 164.171 186.357 165.203 186.928C166.733 187.571 168.36 186.988 169.817 186.151C170.582 186.563 171.323 187.025 172.039 187.486C173.108 188.215 174.395 189.259 174.262 190.643C173.752 192.853 170.862 193.23 168.87 193.181C171.882 193.825 176.775 192.125 174.359 188.336C173.849 187.608 172.598 186.381 171.117 185.313C171.457 185.082 171.772 184.851 172.064 184.633C174.031 183.333 174.589 180.747 173.096 178.756C172.999 178.622 172.889 178.513 172.792 178.391C174.723 176.752 176.01 175.708 175.379 172.599C175.099 171.203 174.359 170.377 173.472 169.806C174.225 168.786 174.954 167.742 175.537 166.576C177.564 162.557 174.735 161.999 171.845 161.646L171.882 161.659ZM62.5842 183.941C63.2035 183.88 63.8835 184.645 63.847 185.252C63.8227 185.325 63.8227 185.337 63.7863 185.337C63.2763 185.337 62.7785 184.924 62.5113 184.487C62.4142 184.329 62.3656 184.183 62.3049 184.026C62.3899 183.989 62.487 183.953 62.5842 183.941ZM74.6541 175.659C74.6541 175.708 74.6784 175.708 74.6541 175.659V175.659ZM164.766 151.119C165.944 151.349 167.037 151.701 167.923 152.248C169.574 153.183 169.599 155.029 168.907 156.631C168.882 156.68 168.858 156.741 168.834 156.789C167.413 155.939 166.089 156.219 164.936 153.875C164.438 152.855 164.474 151.969 164.754 151.119H164.766ZM166.284 185.179C166.284 185.179 166.296 185.216 166.308 185.228C166.308 185.252 166.296 185.228 166.284 185.179ZM166.272 185.07C166.272 185.07 166.272 185.009 166.259 185.021C166.332 184.973 166.502 184.961 166.697 184.985C166.539 185.033 166.393 185.058 166.272 185.07ZM167.389 183.346C168.069 183.03 168.894 182.411 170.06 181.051C170.206 180.881 170.339 180.735 170.485 180.577C170.752 180.881 170.947 181.208 171.007 181.536C170.789 182.289 169.781 183.176 168.773 183.868C168.299 183.637 167.838 183.455 167.389 183.333V183.346ZM173.46 169.782C171.542 168.568 168.992 168.495 169.064 166.321C169.149 164.051 171.396 164.366 171.869 162.909C174.31 162.934 176.581 162.824 175.148 166.406C174.711 167.572 174.092 168.689 173.448 169.782H173.46Z" fill="#111111"/>
<path d="M173.471 151.422C174.236 152.199 174.479 153.316 174.091 154.349C171.395 161.671 164.826 174.688 151.044 179.63C150.704 179.751 150.376 179.861 150.048 179.97C153.156 181.913 159.155 185.592 163.089 187.571C167.861 189.963 168.42 194.845 168.031 197.492C168.894 198.67 169.586 199.775 169.926 200.722C171.31 204.474 169.659 208.833 169.015 210.266C169.804 212.391 170.108 214.407 169.95 216.289C169.61 220.163 167.303 222.008 167.206 222.093L166.089 222.98L165.421 221.717C151.201 194.675 125.507 188.458 121.998 187.717C121.561 187.972 121.099 188.178 120.614 188.288C119.254 188.616 117.432 188.822 115.502 188.822C113.061 188.822 110.487 188.506 108.507 187.79C104.537 188.652 79.2675 195.063 65.2183 221.765L64.5626 223.028L63.4333 222.13C63.3362 222.057 61.0291 220.211 60.6891 216.338C60.5191 214.455 60.8469 212.44 61.6241 210.315C60.9926 208.894 59.3291 204.523 60.7133 200.758C61.0655 199.823 61.7455 198.718 62.6198 197.54C62.219 194.893 62.7898 190.012 67.5497 187.62C71.569 185.604 77.6404 182.483 80.7368 180.893C79.6075 180.286 78.5147 179.654 77.4583 178.986C70.6583 174.651 61.2841 172.915 56.2691 172.271C55.1519 172.126 54.2534 171.312 53.9741 170.219C53.6948 169.078 54.1198 167.924 55.0791 167.268C61.5026 162.836 73.2326 155.381 79.4497 155.381C88.9939 155.381 97.3482 158.222 101.78 162.982C105.508 166.989 108.386 170.705 109.357 171.98C109.928 171.931 110.608 172.041 111.385 172.478C113.522 172.842 117.202 173.158 118.562 172.538C119.642 172.041 120.772 172.028 121.852 172.49C122.071 172.587 122.289 172.696 122.496 172.83C124.645 168.726 131.53 156.935 140.37 155.235C143.855 154.555 148.348 154.057 153.096 153.547C159.774 152.806 166.671 152.054 170.727 150.766C171.699 150.451 172.743 150.706 173.471 151.434V151.422ZM171.881 153.571C171.978 153.341 171.881 153.134 171.771 153.037C171.626 152.891 171.504 152.928 171.456 152.94C167.181 154.312 160.151 155.077 153.363 155.83C148.664 156.352 144.219 156.826 140.832 157.481C132.538 159.084 125.726 171.652 124.244 174.566C124.669 175.173 125.009 175.878 125.24 176.631C125.617 177.784 125.799 179.812 125.447 181.888C128.215 182.216 136.278 182.471 150.23 177.481C163.101 172.878 169.319 160.541 171.869 153.584L171.881 153.571ZM167.631 207.194C168.092 205.555 168.42 203.369 167.728 201.487C166.465 198.075 160.236 192.465 159.119 191.797C158.657 191.639 158.329 191.214 158.329 190.704C158.329 190.073 158.851 189.551 159.507 189.551C160.381 189.551 163.162 191.894 165.664 194.626C165.409 192.926 164.522 190.862 162.021 189.599C157.054 187.11 149.198 182.18 147.207 180.905C143.794 181.973 140.795 182.738 138.148 183.248L143.697 184.463C144.329 184.596 144.729 185.216 144.584 185.847C144.462 186.381 143.989 186.746 143.442 186.746C143.357 186.746 143.26 186.746 143.187 186.709L139.399 185.883L145.81 188.773C146.393 189.041 146.66 189.721 146.393 190.291C146.199 190.716 145.774 190.959 145.324 190.959C145.154 190.959 144.997 190.923 144.827 190.85L130.219 184.293C129.551 184.317 128.919 184.341 128.361 184.341C126.794 184.341 125.641 184.232 124.876 184.123C124.706 184.572 124.524 184.997 124.293 185.398C124.208 185.543 124.099 185.665 124.014 185.798C130.777 187.535 153.229 194.918 166.708 219.094C167.121 218.378 167.534 217.358 167.655 215.973C167.861 213.168 166.805 208.335 160.503 201.305C160.078 200.831 160.126 200.103 160.624 199.69C161.11 199.277 161.851 199.325 162.288 199.799C164.595 202.373 166.38 204.838 167.655 207.17L167.631 207.194ZM122.921 182.496C123.443 180.504 123.309 178.294 123.006 177.323C122.581 176.023 121.755 174.955 120.905 174.591C120.444 174.396 120.019 174.408 119.557 174.615C117.02 175.781 111.397 174.821 110.766 174.712L110.547 174.663L110.353 174.554C109.989 174.336 109.758 174.275 109.6 174.275C109.467 174.275 109.406 174.311 109.37 174.336C108.374 174.87 107.354 178.379 107.354 184.05C107.354 184.256 107.415 184.572 107.925 184.948C108.155 185.131 108.459 185.276 108.775 185.434C109.127 185.41 109.455 185.543 109.697 185.774C112.648 186.697 117.493 186.709 120.055 186.078C120.966 185.859 121.67 185.288 122.217 184.305C122.52 183.771 122.751 183.176 122.909 182.556V182.532C122.909 182.532 122.909 182.532 122.909 182.508L122.921 182.496ZM105.787 186.09C105.715 186.005 105.654 185.932 105.593 185.835C104.306 186.478 102.618 186.782 100.651 186.782C99.6917 186.782 98.6717 186.697 97.6153 186.576L83.1532 193.072C82.9832 193.145 82.8254 193.181 82.6554 193.181C82.2061 193.181 81.7811 192.938 81.5868 192.513C81.3197 191.943 81.5868 191.251 82.1697 190.983L84.9747 189.733L84.8775 189.757C84.7561 189.793 84.6468 189.818 84.5375 189.818C84.0275 189.818 83.5661 189.49 83.4082 189.004C83.214 188.397 83.5782 187.753 84.1975 187.571L91.7018 185.349C88.9211 184.56 86.0675 183.479 83.3232 182.192C81.2468 183.261 73.4633 187.268 68.6547 189.684C66.1533 190.935 65.2912 192.999 65.0119 194.711C67.5255 191.979 70.3062 189.636 71.1804 189.636C71.824 189.636 72.3583 190.146 72.3583 190.789C72.3583 191.299 72.0183 191.724 71.5569 191.87C70.4519 192.55 64.2226 198.16 62.9598 201.572C62.2676 203.442 62.5833 205.628 63.0448 207.279C64.3319 204.948 66.1169 202.47 68.4119 199.896C68.849 199.41 69.5897 199.362 70.0876 199.787C70.5733 200.2 70.6219 200.928 70.1969 201.402C63.8462 208.493 62.814 213.338 63.0569 216.143C63.1783 217.479 63.5912 218.475 64.004 219.167C76.9483 195.962 98.1617 188.227 105.812 186.114L105.787 186.09ZM105.01 183.479C105.047 179.63 105.508 175.137 107.281 173.085C106.2 171.664 103.505 168.228 100.056 164.524C96.1217 160.299 88.2289 157.676 79.474 157.676C75.4061 157.676 67.0155 161.865 56.4512 169.138C56.2084 169.308 56.2569 169.588 56.2691 169.673C56.2934 169.782 56.3784 169.976 56.5848 170.001C61.7941 170.681 71.569 172.49 78.7454 177.08C88.7996 183.491 101.659 186.005 104.998 183.491L105.01 183.479Z" fill="#111111"/>
<path d="M171.772 153.037C171.881 153.146 171.966 153.353 171.881 153.571C169.331 160.529 163.114 172.866 150.243 177.468C136.291 182.471 128.228 182.216 125.459 181.876C125.799 179.812 125.629 177.772 125.253 176.618C125.022 175.865 124.67 175.161 124.257 174.554C125.739 171.652 132.563 159.072 140.844 157.469C144.232 156.813 148.677 156.328 153.376 155.818C160.176 155.065 167.194 154.3 171.469 152.928C171.517 152.928 171.651 152.867 171.784 153.025L171.772 153.037Z" fill="white"/>
<path d="M167.728 201.499C168.42 203.369 168.092 205.555 167.631 207.206C166.356 204.875 164.571 202.41 162.264 199.836C161.827 199.35 161.086 199.301 160.6 199.726C160.102 200.139 160.054 200.88 160.479 201.341C166.781 208.372 167.837 213.205 167.631 216.01C167.51 217.394 167.097 218.414 166.684 219.131C153.205 194.942 130.741 187.571 123.99 185.835C124.087 185.701 124.184 185.58 124.269 185.434C124.5 185.034 124.694 184.609 124.852 184.159C125.617 184.269 126.77 184.378 128.337 184.378C128.908 184.378 129.527 184.354 130.195 184.329L144.803 190.886C144.973 190.959 145.13 190.996 145.3 190.996C145.75 190.996 146.175 190.753 146.369 190.328C146.636 189.757 146.369 189.077 145.786 188.81L139.375 185.92L143.163 186.746C143.248 186.77 143.345 186.782 143.418 186.782C143.965 186.782 144.438 186.418 144.56 185.884C144.718 185.264 144.317 184.645 143.673 184.499L138.124 183.285C140.759 182.763 143.758 182.01 147.182 180.941C149.174 182.204 157.03 187.134 161.997 189.636C164.498 190.886 165.372 192.963 165.64 194.663C163.126 191.931 160.357 189.587 159.483 189.587C158.827 189.587 158.305 190.109 158.305 190.741C158.305 191.251 158.633 191.676 159.095 191.834C160.212 192.501 166.441 198.111 167.704 201.523L167.728 201.499Z" fill="white"/>
<path d="M123.007 177.323C123.31 178.294 123.444 180.504 122.922 182.496C122.922 182.496 122.922 182.504 122.922 182.52V182.544C122.752 183.163 122.533 183.758 122.229 184.293C121.671 185.264 120.967 185.847 120.068 186.065C117.506 186.697 112.661 186.685 109.71 185.762C109.48 185.519 109.14 185.398 108.787 185.422C108.472 185.276 108.18 185.118 107.937 184.936C107.427 184.56 107.367 184.244 107.367 184.038C107.367 178.367 108.375 174.87 109.382 174.323C109.419 174.299 109.492 174.263 109.613 174.263C109.771 174.263 110.002 174.323 110.366 174.542L110.56 174.651L110.779 174.7C111.41 174.809 117.032 175.768 119.57 174.603C120.032 174.396 120.457 174.384 120.918 174.578C121.768 174.943 122.594 176.011 123.019 177.311L123.007 177.323Z" fill="white"/>
<path d="M105.593 185.835C105.666 185.932 105.727 186.005 105.787 186.09C98.1373 188.203 76.9117 195.938 63.9796 219.143C63.5668 218.451 63.1539 217.455 63.0325 216.119C62.7896 213.302 63.8218 208.469 70.1724 201.378C70.5974 200.892 70.5489 200.176 70.0632 199.763C69.5653 199.338 68.8246 199.386 68.3875 199.872C66.0925 202.446 64.3075 204.924 63.0203 207.255C62.5589 205.616 62.2432 203.43 62.9353 201.548C64.1982 198.136 70.4274 192.526 71.5324 191.846C71.9939 191.7 72.3339 191.275 72.3339 190.765C72.3339 190.122 71.7996 189.612 71.156 189.612C70.2817 189.612 67.4889 191.955 64.9875 194.687C65.2546 192.975 66.1289 190.923 68.6303 189.66C73.451 187.244 81.2345 183.237 83.2988 182.168C86.0431 183.455 88.9088 184.536 91.6773 185.325L84.1731 187.547C83.5538 187.729 83.2017 188.373 83.3838 188.98C83.5417 189.478 84.0031 189.794 84.5131 189.794C84.6224 189.794 84.7317 189.769 84.8531 189.733L84.9502 189.709L82.1452 190.959C81.5624 191.226 81.2953 191.919 81.5624 192.489C81.7567 192.914 82.1817 193.157 82.631 193.157C82.801 193.157 82.9588 193.121 83.1288 193.048L97.5909 186.552C98.6473 186.673 99.6795 186.758 100.627 186.758C102.594 186.758 104.294 186.454 105.569 185.811L105.593 185.835Z" fill="white"/>
<path d="M107.282 173.097C105.51 175.137 105.048 179.642 105.012 183.491C101.672 185.993 88.8132 183.491 78.7589 177.08C71.5825 172.49 61.8076 170.681 56.5983 170.001C56.3919 169.976 56.3069 169.794 56.2826 169.673C56.2583 169.588 56.2097 169.321 56.4647 169.139C67.029 161.865 75.4196 157.676 79.4875 157.676C88.2424 157.676 96.1353 160.299 100.07 164.524C103.518 168.228 106.214 171.664 107.294 173.085L107.282 173.097Z" fill="white"/>
<rect x="187.38" y="23.8398" width="33.809" height="8.2777" transform="rotate(77.2484 187.38 23.8398)" fill="#111111"/>
<rect x="187.38" y="23.8398" width="33.809" height="8.2777" transform="rotate(77.2484 187.38 23.8398)" stroke="#111111" stroke-width="2.95607"/>
<rect x="185.126" y="24.2091" width="33.809" height="8.2777" transform="rotate(77.2484 185.126 24.2091)" fill="#EB4C37"/>
<rect x="185.126" y="24.2091" width="33.809" height="8.2777" transform="rotate(77.2484 185.126 24.2091)" stroke="#111111" stroke-width="2.95607"/>
<rect x="257.905" y="25.9203" width="33.809" height="8.2777" transform="rotate(107.248 257.905 25.9203)" fill="#111111"/>
<rect x="257.905" y="25.9203" width="33.809" height="8.2777" transform="rotate(107.248 257.905 25.9203)" stroke="#111111" stroke-width="2.95607"/>
<rect x="255.955" y="25.3152" width="33.809" height="8.2777" transform="rotate(107.248 255.955 25.3152)" fill="#EB4C37"/>
<rect x="255.955" y="25.3152" width="33.809" height="8.2777" transform="rotate(107.248 255.955 25.3152)" stroke="#111111" stroke-width="2.95607"/>
<rect x="313.272" y="70.1981" width="33.809" height="8.2777" transform="rotate(152.248 313.272 70.1981)" fill="#111111"/>
<rect x="313.272" y="70.1981" width="33.809" height="8.2777" transform="rotate(152.248 313.272 70.1981)" stroke="#111111" stroke-width="2.95607"/>
<rect x="311.926" y="67.6414" width="33.809" height="8.2777" transform="rotate(152.248 311.926 67.6414)" fill="#EB4C37"/>
<rect x="311.926" y="67.6414" width="33.809" height="8.2777" transform="rotate(152.248 311.926 67.6414)" stroke="#111111" stroke-width="2.95607"/>
<path d="M224.299 162.363L205.856 157.421L218.471 80.6958L251.738 89.6098L224.299 162.363Z" fill="#111111"/>
<path d="M205.389 196.044C213.211 198.14 221.247 193.512 223.338 185.708C225.43 177.903 220.784 169.877 212.962 167.781C205.14 165.686 197.104 170.313 195.013 178.118C192.922 185.922 197.567 193.948 205.389 196.044Z" fill="#111111"/>
<path d="M245.506 89.921L219.424 159.076L204.329 155.031L216.32 82.1005L245.506 89.921ZM217.794 184.222C215.977 191.002 208.993 195.029 202.188 193.206C195.383 191.382 191.348 184.403 193.165 177.623C194.982 170.843 201.966 166.816 208.771 168.639C215.576 170.463 219.611 177.442 217.794 184.222Z" fill="#EB4C37" stroke="#111111" stroke-width="3.82679"/>
</g>
<defs>
<clipPath id="clip0_87_12741">
<rect width="386.312" height="399" fill="white"/>
</clipPath>
<clipPath id="clip1_87_12741">
<rect width="257.464" height="267.263" fill="white" transform="translate(143.459 160.431)"/>
</clipPath>
<clipPath id="clip2_87_12741">
<rect width="44.9284" height="14.5714" fill="white" transform="translate(253.958 381.43)"/>
</clipPath>
<clipPath id="clip3_87_12741">
<rect width="6.10783" height="35.9184" fill="white" transform="translate(269.743 238.145)"/>
</clipPath>
<clipPath id="clip4_87_12741">
<rect width="257.464" height="262.43" fill="white" transform="translate(143.459 162.86)"/>
</clipPath>
<clipPath id="clip5_87_12741">
<rect width="257.464" height="280.584" fill="white" transform="translate(-14.3994 147.074)"/>
</clipPath>
<clipPath id="clip6_87_12741">
<rect width="6.10783" height="35.9184" fill="white" transform="translate(111.885 238.146)"/>
</clipPath>
</defs>
</svg>
