<svg width="386" height="399" viewBox="0 0 386 399" fill="none" xmlns="http://www.w3.org/2000/svg">
<g clip-path="url(#clip0_87_12616)">
<rect x="-22.5997" y="51.2919" width="45.179" height="11.0615" transform="rotate(62.2484 -22.5997 51.2919)" fill="#111111"/>
<rect x="-22.5997" y="51.2919" width="45.179" height="11.0615" transform="rotate(62.2484 -22.5997 51.2919)" stroke="#111111" stroke-width="3.9502"/>
<rect x="71.5554" y="40.8139" width="45.179" height="11.0615" transform="rotate(107.248 71.5554 40.8139)" fill="#111111"/>
<rect x="71.5554" y="40.8139" width="45.179" height="11.0615" transform="rotate(107.248 71.5554 40.8139)" stroke="#111111" stroke-width="3.9502"/>
<rect x="67.8679" y="39.6697" width="45.179" height="11.0615" transform="rotate(107.248 67.8679 39.6697)" fill="#EB4C37"/>
<rect x="67.8679" y="39.6697" width="45.179" height="11.0615" transform="rotate(107.248 67.8679 39.6697)" stroke="#111111" stroke-width="3.9502"/>
<path d="M74.5712 211.972L52.4745 224.729L-8.10352 140.311L31.7541 117.299L74.5712 211.972Z" fill="#111111"/>
<path d="M88.5292 261.666C97.9005 256.255 101.121 244.289 95.7226 234.938C90.324 225.588 78.3507 222.394 68.9794 227.804C59.608 233.215 56.3875 245.181 61.786 254.531C67.1845 263.882 79.1579 267.076 88.5292 261.666Z" fill="#111111"/>
<path d="M26.1596 123.482L66.859 213.472L48.7735 223.914L-8.80855 143.671L26.1596 123.482ZM89.08 238.774C93.7698 246.896 90.9756 257.301 82.8225 262.008C74.6695 266.715 64.2619 263.933 59.5721 255.81C54.8823 247.687 57.6766 237.283 65.8296 232.575C73.9826 227.868 84.3902 230.651 89.08 238.774Z" fill="#EB4C37" stroke="#111111" stroke-width="5.11374"/>
<path d="M213.571 214.853H94.3283C87.011 214.853 81.0791 220.785 81.0791 228.102V254.601C81.0791 261.918 87.011 267.85 94.3283 267.85H213.571C220.889 267.85 226.821 261.918 226.821 254.601V228.102C226.821 220.785 220.889 214.853 213.571 214.853Z" fill="#466D79" stroke="#111111" stroke-width="6.62462"/>
<path d="M213.571 188.355V201.604C213.571 208.921 207.639 214.853 200.322 214.853H107.577C100.26 214.853 94.3281 208.921 94.3281 201.604V188.355C94.3281 181.037 100.26 175.105 107.577 175.105H140.7V118.796C140.7 111.479 146.632 105.547 153.95 105.547C161.267 105.547 167.199 111.479 167.199 118.796V175.105H200.322C207.639 175.105 213.571 181.037 213.571 188.355Z" fill="#466D79"/>
<path d="M140.7 175.105H107.577C100.26 175.105 94.3281 181.037 94.3281 188.355V201.604C94.3281 208.921 100.26 214.853 107.577 214.853H200.322C207.639 214.853 213.571 208.921 213.571 201.604V188.355C213.571 181.037 207.639 175.105 200.322 175.105H167.199M140.7 175.105H167.199M140.7 175.105V118.796C140.7 111.479 146.632 105.547 153.95 105.547V105.547C161.267 105.547 167.199 111.479 167.199 118.796V175.105" stroke="#111111" stroke-width="6.62462"/>
<circle cx="153.951" cy="95.6097" r="29.8108" fill="#EB4C37" stroke="#111111" stroke-width="6.62462"/>
<path d="M283.133 236.133L283.158 236.137L283.183 236.14C289.25 236.863 295.167 236.279 300.912 234.385C306.809 232.441 311.893 228.643 316.174 223.117C321.483 216.262 324.02 208.468 323.755 199.813C323.493 191.228 320.779 182.652 315.707 174.104C310.723 165.622 303.957 158.087 295.443 151.493C286.127 144.277 276.46 139.513 266.446 137.269C256.594 135.007 247.206 135.321 238.33 138.266L238.324 138.268C229.585 141.201 222.24 146.529 216.306 154.19C215.202 155.615 214.345 156.812 213.765 157.762L212.844 159.271L214.241 160.353C228.155 171.13 237.682 180.125 242.971 187.352L244.953 190.06L246.358 187.013C247.556 184.417 248.783 182.334 250.026 180.728C253.228 176.595 256.794 174.554 260.733 174.251C264.82 174.011 269.212 175.553 273.96 179.23C277.379 181.879 279.387 184.795 280.197 187.958L280.201 187.975L280.206 187.991C281.109 191.277 280.647 193.745 279.137 195.694C277.678 197.578 275.716 198.79 273.139 199.321L273.131 199.322C270.688 199.836 267.346 199.657 262.992 198.599C252.759 196.11 243.998 195.881 236.836 198.143C229.746 200.315 223.533 204.948 218.175 211.866L216.966 213.427L218.527 214.636L248.67 237.983L250.231 239.193L251.441 237.631C252.845 235.818 254.357 234.597 255.956 233.874C257.473 233.188 259.542 232.909 262.293 233.219L262.318 233.222L262.342 233.224C264.111 233.379 267.673 233.859 273.087 234.677L273.099 234.679L283.133 236.133ZM223.008 271.387L224.569 272.597L225.779 271.035L243.926 247.605L245.136 246.044L243.574 244.834L213.036 221.182L211.475 219.972L210.265 221.534L192.118 244.964L190.909 246.525L192.47 247.734L223.008 271.387Z" fill="#111111" stroke="#111111" stroke-width="3.9502"/>
<path d="M273.028 227.655L273.053 227.658L273.078 227.661C279.145 228.384 285.062 227.8 290.807 225.906C296.704 223.962 301.788 220.165 306.068 214.639C311.378 207.783 313.914 199.99 313.65 191.334C313.388 182.75 310.673 174.174 305.602 165.625C300.617 157.144 293.852 149.609 285.338 143.014C276.021 135.798 266.354 131.035 256.34 128.791C246.488 126.528 237.101 126.843 228.225 129.788L228.218 129.79C219.479 132.722 212.134 138.051 206.201 145.711C205.097 147.136 204.24 148.334 203.66 149.284L202.738 150.792L204.136 151.875C218.049 162.651 227.576 171.647 232.866 178.874L234.847 181.581L236.253 178.534C237.45 175.939 238.678 173.855 239.921 172.25C243.123 168.116 246.688 166.076 250.628 165.773C254.715 165.533 259.106 167.075 263.854 170.752C267.274 173.4 269.282 176.317 270.092 179.479L270.096 179.496L270.101 179.513C271.004 182.798 270.541 185.266 269.031 187.216C267.572 189.1 265.61 190.311 263.033 190.842L263.025 190.844C260.583 191.358 257.24 191.178 252.887 190.12C242.654 187.631 233.892 187.402 226.731 189.664C219.641 191.837 213.428 196.469 208.07 203.387L206.86 204.949L208.422 206.158L238.564 229.505L240.126 230.714L241.335 229.153C242.74 227.34 244.251 226.119 245.851 225.395C247.367 224.709 249.437 224.43 252.188 224.74L252.212 224.743L252.236 224.745C254.005 224.901 257.567 225.38 262.981 226.198L262.993 226.2L273.028 227.655ZM212.902 262.909L214.464 264.118L215.673 262.557L233.821 239.127L235.03 237.565L233.469 236.356L202.931 212.703L201.369 211.494L200.16 213.055L182.013 236.485L180.803 238.047L182.365 239.256L212.902 262.909Z" fill="#467966" stroke="#111111" stroke-width="3.9502"/>
<rect x="262.553" y="44.9704" width="45.179" height="11.0615" transform="rotate(97.7593 262.553 44.9704)" fill="#111111"/>
<rect x="262.553" y="44.9704" width="45.179" height="11.0615" transform="rotate(97.7593 262.553 44.9704)" stroke="#111111" stroke-width="3.9502"/>
<rect x="259.561" y="44.3782" width="45.179" height="11.0615" transform="rotate(97.7593 259.561 44.3782)" fill="#467966"/>
<rect x="259.561" y="44.3782" width="45.179" height="11.0615" transform="rotate(97.7593 259.561 44.3782)" stroke="#111111" stroke-width="3.9502"/>
<rect x="349.85" y="80.5969" width="45.179" height="11.0615" transform="rotate(127.759 349.85 80.5969)" fill="#111111"/>
<rect x="349.85" y="80.5969" width="45.179" height="11.0615" transform="rotate(127.759 349.85 80.5969)" stroke="#111111" stroke-width="3.9502"/>
<rect x="347.692" y="78.9253" width="45.179" height="11.0615" transform="rotate(127.759 347.692 78.9253)" fill="#467966"/>
<rect x="347.692" y="78.9253" width="45.179" height="11.0615" transform="rotate(127.759 347.692 78.9253)" stroke="#111111" stroke-width="3.9502"/>
<rect x="398.415" y="161.94" width="45.179" height="11.0615" transform="rotate(172.759 398.415 161.94)" fill="#111111"/>
<rect x="398.415" y="161.94" width="45.179" height="11.0615" transform="rotate(172.759 398.415 161.94)" stroke="#111111" stroke-width="3.9502"/>
<rect x="397.927" y="158.111" width="45.179" height="11.0615" transform="rotate(172.759 397.927 158.111)" fill="#467966"/>
<rect x="397.927" y="158.111" width="45.179" height="11.0615" transform="rotate(172.759 397.927 158.111)" stroke="#111111" stroke-width="3.9502"/>
<g clip-path="url(#clip1_87_12616)">
<path d="M365.046 433.314H152.768C158.306 415.398 178.031 382.8 200.627 376.559C211.828 373.48 219.804 369.399 225.198 365.855C225.787 370.721 230.126 389.898 262.229 389.898C275.402 389.898 285.156 386.612 291.2 380.113C295.871 375.092 296.987 369.802 297.214 366.857C302.587 370.174 310.088 373.79 320.141 376.559C343.399 382.975 362.597 416.318 365.046 433.314Z" fill="#31333A"/>
<path d="M282.469 374.296C285.962 370.204 287.822 364.8 287.532 359.427C288.906 360.802 291.304 362.93 294.858 365.338C294.703 367.9 293.814 373.531 289.278 378.387C283.73 384.308 274.638 387.314 262.228 387.314C228.307 387.314 227.698 365.069 227.688 364.149C230.219 362.3 231.986 360.688 233.081 359.603C233.815 364.687 234.868 369.863 238.464 373.758C240.407 375.856 242.752 377.809 245.211 379.276C247.753 380.805 250.625 381.57 253.549 381.973C263.468 383.336 275.505 382.427 282.469 374.296Z" fill="#31333A"/>
<path d="M199.945 374.069C223.317 367.621 232.337 356.607 232.43 356.493L232.813 356.018H232.937C232.988 356.638 233.164 357.289 233.484 357.95C233.691 357.94 233.887 358.043 233.928 358.322C234.342 361.246 234.765 364.191 235.716 367.001C236.697 369.915 238.34 372.343 240.603 374.42C242.659 376.311 244.912 378.14 247.474 379.297C250.078 380.475 252.95 380.94 255.771 381.188C260.751 381.632 265.876 381.549 270.732 380.227C275.495 378.935 279.856 376.321 282.749 372.261C285.559 368.334 286.913 363.468 286.479 358.663C286.427 358.178 286.954 358.054 287.274 358.271C287.687 357.506 287.842 356.679 287.791 355.853L288.09 356.235C288.214 356.39 297.586 367.663 320.823 374.069C345.042 380.754 366.006 415.326 367.784 434.482L367.918 435.897H149.358L149.803 434.265C154.442 417.32 174.528 381.084 199.945 374.069ZM225.198 365.854C219.804 369.398 211.828 373.48 200.627 376.559C178.031 382.799 158.306 415.398 152.768 433.314H365.046C362.597 416.317 343.399 382.975 320.141 376.559C310.088 373.79 302.587 370.173 297.214 366.857C296.987 369.801 295.871 375.092 291.2 380.113C285.156 386.612 275.402 389.898 262.229 389.898C230.126 389.898 225.787 370.721 225.198 365.854ZM233.081 359.603C231.986 360.688 230.219 362.3 227.688 364.15C227.698 365.069 228.308 387.315 262.229 387.315C274.638 387.315 283.73 384.308 289.279 378.388C293.815 373.531 294.703 367.9 294.858 365.338C291.304 362.93 288.907 360.802 287.532 359.428C287.822 364.801 285.962 370.204 282.47 374.296C275.506 382.428 263.468 383.337 253.549 381.973C250.625 381.57 247.753 380.805 245.211 379.276C242.752 377.809 240.407 375.856 238.464 373.759C234.869 369.863 233.815 364.687 233.081 359.603Z" fill="#111111"/>
</g>
<path d="M314.139 288.693C314.201 289.116 314.233 289.54 314.233 289.974C314.233 295.822 309.025 300.565 302.609 300.565C301.834 300.565 301.069 300.472 300.325 300.337V289.674C300.449 289.623 300.573 289.561 300.676 289.468C300.749 289.416 301.358 288.92 302.361 288.507C302.299 290.356 303.043 292.671 305.884 294.438C306.101 294.562 306.328 294.624 306.566 294.624C307 294.624 307.424 294.407 307.661 294.014C308.043 293.404 307.847 292.609 307.248 292.237C304.809 290.728 304.82 288.899 305.026 287.949C306.649 287.918 308.622 288.424 310.771 290.15C311.009 290.346 311.298 290.439 311.577 290.439C311.959 290.439 312.331 290.274 312.59 289.953C312.848 289.633 312.931 289.23 312.848 288.868L314.139 288.693Z" fill="#734524"/>
<path d="M314.139 288.692L312.848 288.868C312.786 288.589 312.631 288.331 312.393 288.135C307.558 284.25 302.95 285.148 300.325 286.605V279.621C301.079 279.476 301.834 279.383 302.609 279.383C308.55 279.383 313.458 283.454 314.139 288.692Z" fill="#734524"/>
<path d="M302.608 276.8C310.44 276.8 316.815 282.71 316.815 289.974C316.815 297.238 310.44 303.148 302.608 303.148C301.844 303.148 301.079 303.086 300.325 302.972V303.923C300.325 315.071 295.675 325.145 288.226 332.336H288.391V357.837C288.391 371.806 277.025 383.171 263.056 383.171H257.415C243.445 383.171 232.08 371.806 232.08 357.837V331.055C231.377 330.311 230.695 329.557 230.055 328.761C224.393 321.756 221.283 312.943 221.283 303.923V302.962C220.497 303.086 219.712 303.148 218.916 303.148C211.085 303.148 204.709 297.238 204.709 289.974C204.709 282.71 211.085 276.8 218.916 276.8C219.712 276.8 220.497 276.873 221.283 276.997V266.726C221.283 244.935 239.013 227.205 260.804 227.205C282.594 227.205 300.325 244.935 300.325 266.726V276.976C301.079 276.873 301.844 276.8 302.608 276.8ZM314.232 289.974C314.232 289.54 314.201 289.116 314.139 288.693C313.457 283.454 308.549 279.383 302.608 279.383C301.833 279.383 301.079 279.476 300.325 279.621V286.606C302.949 285.149 307.557 284.25 312.393 288.135C312.631 288.331 312.785 288.589 312.847 288.868C312.93 289.23 312.847 289.633 312.589 289.953C312.331 290.274 311.959 290.439 311.577 290.439C311.298 290.439 311.008 290.346 310.771 290.15C308.622 288.424 306.648 287.918 305.026 287.949C304.819 288.899 304.809 290.728 307.247 292.237C307.847 292.609 308.043 293.404 307.661 294.014C307.423 294.406 306.999 294.623 306.565 294.623C306.328 294.623 306.1 294.561 305.884 294.437C303.042 292.671 302.298 290.356 302.36 288.507C301.358 288.92 300.748 289.416 300.676 289.468C300.573 289.561 300.449 289.623 300.325 289.674V300.337C301.069 300.472 301.833 300.565 302.608 300.565C309.025 300.565 314.232 295.822 314.232 289.974ZM297.742 303.923V266.726C297.742 246.361 281.169 229.788 260.804 229.788C240.439 229.788 223.866 246.361 223.866 266.726V303.923C223.866 312.354 226.769 320.589 232.059 327.129C239.116 335.86 249.593 340.861 260.804 340.861C281.169 340.861 297.742 324.298 297.742 303.923ZM285.808 357.837V334.506C278.988 340.086 270.278 343.444 260.804 343.444C251.329 343.444 241.823 339.91 234.663 333.576V357.837C234.663 370.38 244.871 380.588 257.415 380.588H263.056C275.599 380.588 285.808 370.38 285.808 357.837ZM221.283 300.327V289.158C220.828 288.899 220.094 288.538 219.154 288.269C219.299 290.16 218.617 292.598 215.641 294.437C215.434 294.561 215.197 294.623 214.969 294.623C214.536 294.623 214.112 294.406 213.864 294.014C213.492 293.404 213.678 292.609 214.288 292.237C216.747 290.718 216.716 288.858 216.488 287.918C214.783 287.959 212.8 288.507 210.754 290.15C210.516 290.346 210.237 290.439 209.948 290.439C209.576 290.439 209.194 290.274 208.946 289.953C208.687 289.633 208.605 289.23 208.687 288.868C208.749 288.589 208.904 288.331 209.142 288.135C213.647 284.508 218.317 285.035 221.283 286.275V279.631C220.508 279.487 219.712 279.383 218.916 279.383C212.986 279.383 208.078 283.454 207.386 288.693C207.324 289.116 207.293 289.54 207.293 289.974C207.293 295.822 212.51 300.565 218.916 300.565C219.722 300.565 220.508 300.472 221.283 300.327Z" fill="#111111"/>
<path d="M297.74 266.726V303.922C297.74 324.298 281.167 340.86 260.802 340.86C249.591 340.86 239.114 335.86 232.057 327.129C226.767 320.588 223.864 312.354 223.864 303.922V266.726C223.864 246.361 240.426 229.788 260.802 229.788C281.177 229.788 297.74 246.361 297.74 266.726Z" fill="#734524"/>
<path d="M285.807 334.506V357.836C285.807 370.38 275.599 380.588 263.055 380.588H257.414C244.87 380.588 234.662 370.38 234.662 357.836V333.576C241.822 339.91 251.049 343.444 260.803 343.444C270.557 343.444 278.988 340.086 285.807 334.506Z" fill="#734524"/>
<path d="M221.282 289.157V300.327C220.508 300.471 219.722 300.564 218.916 300.564C212.51 300.564 207.292 295.822 207.292 289.974C207.292 289.54 207.323 289.116 207.385 288.692L208.687 288.868C208.605 289.23 208.687 289.633 208.946 289.953C209.194 290.273 209.576 290.439 209.948 290.439C210.237 290.439 210.516 290.346 210.754 290.149C212.8 288.506 214.783 287.959 216.488 287.917C216.716 288.858 216.747 290.718 214.287 292.236C213.678 292.608 213.492 293.404 213.864 294.014C214.112 294.406 214.535 294.623 214.969 294.623C215.197 294.623 215.434 294.561 215.641 294.437C218.617 292.598 219.299 290.16 219.154 288.269C220.094 288.537 220.828 288.899 221.282 289.157Z" fill="#734524"/>
<path d="M221.281 279.631V286.275C218.315 285.035 213.645 284.508 209.14 288.135C208.903 288.331 208.748 288.589 208.686 288.868L207.384 288.692C208.076 283.454 212.984 279.383 218.915 279.383C219.71 279.383 220.506 279.486 221.281 279.631Z" fill="#734524"/>
<g opacity="0.6">
<path d="M279.142 338.288C278.832 338.474 278.501 338.65 278.129 338.784C271.072 341.398 261.35 343.123 253.859 341.698C247.205 340.437 238.205 336.676 233.421 331.551L234.506 355.305C234.506 355.305 263.53 355.946 282.872 336.748C281.694 337.379 280.433 337.885 279.132 338.288H279.142Z" fill="#111111"/>
</g>
<g clip-path="url(#clip2_87_12616)">
<path d="M260.463 305.245C259.75 305.245 259.171 304.666 259.171 303.953V275.973C259.171 275.26 259.75 274.682 260.463 274.682C261.176 274.682 261.754 275.26 261.754 275.973V303.953C261.754 304.666 261.176 305.245 260.463 305.245Z" fill="#111111"/>
<g opacity="0.1">
<path d="M256.556 303.86L259.17 275.973L260.462 305.234H257.817C257.073 305.234 256.484 304.593 256.556 303.849V303.86Z" fill="#111111"/>
</g>
</g>
<path d="M261.692 315.329C257.26 315.329 253.809 313.614 253.592 313.511C252.951 313.19 252.703 312.416 253.023 311.775C253.344 311.134 254.119 310.886 254.759 311.207C254.842 311.248 261.703 314.606 267.799 311.227C268.419 310.886 269.204 311.103 269.555 311.734C269.896 312.354 269.679 313.139 269.049 313.49C266.548 314.875 263.996 315.34 261.692 315.34V315.329Z" fill="#111111"/>
<path d="M243.175 289.52C245.629 289.52 247.618 286.605 247.618 283.01C247.618 279.415 245.629 276.501 243.175 276.501C240.721 276.501 238.732 279.415 238.732 283.01C238.732 286.605 240.721 289.52 243.175 289.52Z" fill="#111111"/>
<path d="M281.456 289.52C283.91 289.52 285.899 286.605 285.899 283.01C285.899 279.415 283.91 276.501 281.456 276.501C279.002 276.501 277.013 279.415 277.013 283.01C277.013 286.605 279.002 289.52 281.456 289.52Z" fill="#111111"/>
<path d="M248.942 274.248C248.694 274.248 248.446 274.176 248.229 274.031C248.146 273.98 243.352 270.921 234.601 271.944C233.888 272.027 233.247 271.521 233.165 270.818C233.082 270.105 233.588 269.465 234.291 269.382C244.076 268.225 249.438 271.738 249.655 271.882C250.244 272.285 250.399 273.081 250.006 273.68C249.758 274.052 249.345 274.248 248.932 274.248H248.942Z" fill="#111111"/>
<path d="M274.711 275.395C274.37 275.395 274.019 275.261 273.771 274.992C273.285 274.476 273.306 273.659 273.823 273.174C274.019 272.988 278.72 268.648 288.567 268.183C289.28 268.163 289.879 268.7 289.92 269.413C289.951 270.126 289.404 270.735 288.691 270.766C279.867 271.18 275.631 275.023 275.589 275.065C275.341 275.292 275.021 275.405 274.711 275.405V275.395Z" fill="#111111"/>
<path d="M281.488 297.331C289.101 297.331 295.272 293.922 295.272 289.716C295.272 285.51 289.101 282.101 281.488 282.101C273.876 282.101 267.705 285.51 267.705 289.716C267.705 293.922 273.876 297.331 281.488 297.331Z" fill="#111111"/>
<path d="M271.3 290.243C271.186 290.243 271.062 290.232 270.948 290.191C259.459 286.967 253.962 290.026 253.91 290.057C253.301 290.408 252.505 290.212 252.143 289.592C251.782 288.982 251.978 288.197 252.588 287.835C252.846 287.68 258.963 284.136 271.641 287.701C272.322 287.897 272.725 288.61 272.539 289.292C272.374 289.86 271.858 290.232 271.3 290.232V290.243Z" fill="#111111"/>
<path d="M294.619 289.489C294.413 289.489 294.196 289.437 293.999 289.334C293.379 288.993 293.142 288.207 293.483 287.577L298.752 277.978C299.093 277.348 299.878 277.121 300.509 277.462C301.129 277.803 301.366 278.588 301.025 279.218L295.756 288.817C295.518 289.251 295.074 289.489 294.619 289.489Z" fill="#111111"/>
<path d="M241.833 297.331C249.445 297.331 255.616 293.922 255.616 289.716C255.616 285.51 249.445 282.101 241.833 282.101C234.22 282.101 228.049 285.51 228.049 289.716C228.049 293.922 234.22 297.331 241.833 297.331Z" fill="#111111"/>
<path d="M228.689 289.489C228.235 289.489 227.79 289.251 227.553 288.817L222.283 279.218C221.942 278.588 222.17 277.803 222.8 277.462C223.42 277.121 224.205 277.348 224.556 277.978L229.826 287.577C230.167 288.207 229.939 288.993 229.309 289.334C229.113 289.437 228.896 289.489 228.689 289.489Z" fill="#111111"/>
<g clip-path="url(#clip3_87_12616)">
<path d="M220.261 249.885C223.835 230.625 240.729 216.046 261.032 216.046C281.335 216.046 298.445 230.822 301.865 250.277V253.894L219.455 254.431L220.261 249.895V249.885Z" fill="white"/>
<path d="M217.906 255.723L218.991 249.647C222.752 229.427 240.43 214.755 261.033 214.755C281.635 214.755 299.541 229.602 303.147 250.05L303.168 250.277V255.175L217.916 255.723H217.906ZM221.532 250.112L220.995 253.119L300.575 252.602V250.381C297.144 231.225 280.53 217.328 261.033 217.328C241.536 217.328 225.066 231.111 221.532 250.102V250.112Z" fill="#111111"/>
<path d="M303.302 252.075C264.598 240.823 229.757 248.242 218.412 251.3C216.129 251.91 214.548 254.131 214.548 256.673V264.608C214.548 268.194 217.648 270.849 220.861 269.991C233.683 266.571 264.587 260.641 299.934 270.518C302.941 271.355 305.948 269.144 306.299 265.797L307.115 258.068C307.404 255.33 305.782 252.788 303.323 252.075H303.302Z" fill="white"/>
<path d="M301.205 271.996C300.657 271.996 300.11 271.924 299.573 271.769C264.153 261.871 232.95 268.101 221.181 271.242C219.363 271.728 217.441 271.335 215.912 270.167C214.238 268.886 213.246 266.809 213.246 264.609V256.673C213.246 253.543 215.23 250.815 218.071 250.05C231.007 246.568 265.238 239.666 303.654 250.836C306.743 251.735 308.727 254.834 308.376 258.213L307.57 265.941C307.353 267.998 306.289 269.816 304.656 270.932C303.623 271.635 302.414 271.996 301.205 271.996ZM259.711 263.823C271.851 263.823 285.707 265.208 300.275 269.279C301.288 269.558 302.321 269.382 303.21 268.783C304.212 268.101 304.873 266.964 305.007 265.663L305.813 257.934C306.03 255.836 304.801 253.853 302.941 253.315C265.156 242.332 231.472 249.12 218.743 252.551C217.028 253.016 215.829 254.71 215.829 256.684V264.619C215.829 266.014 216.449 267.326 217.482 268.122C218.381 268.814 219.456 269.031 220.51 268.752C227.649 266.851 241.805 263.823 259.7 263.823H259.711Z" fill="#111111"/>
<path d="M226.038 268.256C225.418 268.256 224.871 267.811 224.768 267.171C224.716 266.871 223.548 259.68 223.331 254.638C223.3 253.925 223.858 253.325 224.571 253.294C225.263 253.263 225.883 253.821 225.914 254.534C226.121 259.432 227.309 266.695 227.32 266.768C227.433 267.47 226.958 268.132 226.255 268.256C226.183 268.266 226.111 268.276 226.049 268.276L226.038 268.256Z" fill="#111111"/>
<path d="M239.139 261.653C238.539 261.653 238.012 261.24 237.878 260.631C237.093 256.983 237.362 248.779 237.372 248.428C237.393 247.715 238.012 247.137 238.705 247.178C239.418 247.199 239.976 247.798 239.955 248.511C239.955 248.593 239.686 256.746 240.399 260.083C240.554 260.775 240.11 261.467 239.407 261.612C239.314 261.633 239.221 261.643 239.139 261.643V261.653Z" fill="#111111"/>
<path d="M254.078 264.98C253.365 264.98 252.787 264.402 252.787 263.689V251.125C252.787 250.412 253.365 249.833 254.078 249.833C254.791 249.833 255.37 250.412 255.37 251.125V263.689C255.37 264.402 254.791 264.98 254.078 264.98Z" fill="#111111"/>
<path d="M270.589 265.249C270.589 265.249 270.538 265.249 270.507 265.249C269.535 265.187 269.132 260.979 269.298 252.623C269.308 251.91 269.938 251.383 270.61 251.352C271.323 251.363 271.891 251.952 271.871 252.664C271.788 256.653 271.726 262.522 271.819 263.565C271.86 263.71 271.881 263.865 271.871 264.03C271.829 264.712 271.261 265.239 270.579 265.239L270.589 265.249ZM270.672 262.666C270.786 262.666 270.899 262.697 271.013 262.728C270.91 262.697 270.796 262.666 270.672 262.666Z" fill="#111111"/>
<path d="M281.946 257.624C281.946 257.624 281.894 257.624 281.874 257.624C281.161 257.583 280.613 256.973 280.655 256.26L281.13 248.128C281.171 247.416 281.781 246.878 282.494 246.909C283.207 246.951 283.754 247.56 283.713 248.273L283.238 256.405C283.196 257.097 282.628 257.624 281.946 257.624Z" fill="#111111"/>
<path d="M290.015 267.708C290.015 267.708 289.912 267.708 289.86 267.708C289.147 267.626 288.641 266.985 288.724 266.272C288.724 266.2 289.571 258.936 289.84 254.359C289.881 253.646 290.491 253.119 291.203 253.15C291.916 253.191 292.454 253.801 292.412 254.514C292.133 259.163 291.286 266.499 291.286 266.572C291.214 267.233 290.656 267.719 290.005 267.719L290.015 267.708Z" fill="#111111"/>
<path d="M299.003 263.389C298.951 263.389 298.9 263.389 298.848 263.389C298.135 263.306 297.639 262.655 297.722 261.953C298.342 256.787 298.569 250.753 298.569 250.691C298.59 249.978 299.22 249.389 299.902 249.451C300.615 249.471 301.173 250.071 301.142 250.784C301.142 250.846 300.915 256.993 300.274 262.263C300.191 262.914 299.633 263.399 298.993 263.399L299.003 263.389Z" fill="#111111"/>
<path d="M257.582 242.26C256.869 242.26 256.291 241.681 256.291 240.968C256.249 226.658 258.843 221.058 258.956 220.82C259.266 220.18 260.031 219.901 260.682 220.211C261.322 220.521 261.601 221.285 261.291 221.926C261.25 222.019 258.832 227.402 258.874 240.958C258.874 241.671 258.295 242.249 257.582 242.249V242.26Z" fill="#111111"/>
<path d="M268.317 247.55H268.297C267.584 247.55 267.015 246.961 267.015 246.248C267.015 246.165 267.098 237.703 265.734 233.023C265.538 232.341 265.93 231.617 266.612 231.421C267.294 231.225 268.018 231.617 268.214 232.299C269.691 237.352 269.609 245.917 269.609 246.279C269.609 246.992 269.02 247.56 268.317 247.56V247.55Z" fill="#111111"/>
<path d="M285.168 233.942C284.61 233.942 284.094 233.581 283.928 233.023C283.908 232.971 282.255 227.505 276.944 220.438C276.52 219.87 276.634 219.064 277.202 218.63C277.77 218.206 278.587 218.32 279.01 218.888C284.621 226.358 286.336 232.052 286.408 232.289C286.605 232.971 286.222 233.684 285.53 233.891C285.406 233.922 285.282 233.942 285.168 233.942Z" fill="#111111"/>
<path d="M243.333 247.932C243.271 247.932 243.209 247.932 243.136 247.922C242.434 247.819 241.948 247.157 242.051 246.455L243.384 237.548C243.488 236.846 244.149 236.339 244.852 236.463C245.554 236.567 246.04 237.228 245.936 237.93L244.604 246.837C244.511 247.478 243.953 247.943 243.333 247.943V247.932Z" fill="#111111"/>
<path d="M225.324 250.66C225.262 250.66 225.21 250.66 225.149 250.649C224.446 250.556 223.95 249.905 224.043 249.192C224.074 248.996 224.735 244.305 228.114 237.92C228.445 237.29 229.23 237.052 229.86 237.383C230.49 237.713 230.728 238.498 230.397 239.129C227.225 245.111 226.605 249.492 226.595 249.533C226.512 250.184 225.954 250.649 225.314 250.649L225.324 250.66Z" fill="#111111"/>
<path d="M238.871 232.475C238.685 232.475 238.499 232.434 238.323 232.351C237.672 232.052 237.393 231.287 237.693 230.636C241.878 221.637 250.898 215.964 251.879 215.737C252.582 215.571 253.264 216.005 253.429 216.698C253.574 217.338 253.233 217.969 252.634 218.196C252.21 218.434 244.016 223.166 240.028 231.721C239.811 232.196 239.346 232.465 238.861 232.465L238.871 232.475Z" fill="#111111"/>
<path d="M291.14 250.153C291.14 250.153 291.089 250.153 291.058 250.153C290.345 250.112 289.807 249.502 289.849 248.789L290.159 243.592C290.19 243.014 289.766 242.487 289.187 242.414L276.84 240.699C276.51 240.648 276.2 240.751 275.952 240.968C275.704 241.185 275.569 241.484 275.569 241.815C275.569 243.882 275.569 246.403 275.569 246.63C275.569 247.343 275.011 247.932 274.299 247.942C273.637 247.942 272.997 247.384 272.986 246.671C272.986 246.434 272.986 243.902 272.986 241.815C272.986 240.741 273.451 239.728 274.257 239.025C275.063 238.323 276.138 238.002 277.202 238.147L289.549 239.862C291.45 240.131 292.855 241.836 292.742 243.758L292.432 248.955C292.39 249.637 291.822 250.164 291.14 250.164V250.153Z" fill="#111111"/>
</g>
<g clip-path="url(#clip4_87_12616)">
<path d="M205.145 432.838H-7.63818C-2.08685 414.879 17.6846 382.203 40.3352 375.948C51.5622 372.861 59.5577 368.77 64.9641 365.218C65.5544 370.096 69.9043 389.318 102.083 389.318C115.289 389.318 125.066 386.025 131.124 379.51C135.806 374.477 136.924 369.174 137.152 366.222C142.538 369.547 150.057 373.172 160.134 375.948C183.448 382.379 202.691 415.801 205.145 432.838Z" fill="#31333A"/>
<path d="M122.373 373.679C125.873 369.578 127.737 364.161 127.447 358.776C128.825 360.153 131.228 362.287 134.791 364.7C134.635 367.268 133.744 372.913 129.198 377.781C123.636 383.715 114.522 386.729 102.083 386.729C68.0814 386.729 67.4703 364.431 67.46 363.509C69.9974 361.655 71.7685 360.039 72.8663 358.952C73.6016 364.047 74.658 369.236 78.2623 373.141C80.2094 375.243 82.5604 377.201 85.0254 378.671C87.5732 380.204 90.4524 380.971 93.3834 381.375C103.326 382.742 115.392 381.83 122.373 373.679Z" fill="#31333A"/>
<path d="M39.652 373.451C63.0794 366.989 72.1211 355.948 72.2143 355.834L72.5975 355.358H72.7218C72.7736 355.979 72.9496 356.632 73.2707 357.295C73.4778 357.284 73.6746 357.388 73.716 357.667C74.1303 360.598 74.555 363.55 75.5078 366.367C76.4917 369.288 78.1385 371.722 80.4066 373.804C82.4677 375.699 84.7255 377.532 87.294 378.692C89.904 379.873 92.7832 380.339 95.6106 380.587C100.603 381.033 105.74 380.95 110.608 379.624C115.382 378.33 119.753 375.709 122.653 371.639C125.47 367.703 126.827 362.825 126.392 358.009C126.34 357.522 126.868 357.398 127.189 357.616C127.603 356.849 127.759 356.021 127.707 355.192L128.007 355.575C128.132 355.731 137.525 367.03 160.818 373.451C185.095 380.152 206.109 414.807 207.89 434.009L208.025 435.427H-11.0557L-10.6103 433.791C-5.96004 416.806 14.1739 380.484 39.652 373.451ZM64.9644 365.218C59.5581 368.77 51.5625 372.861 40.3356 375.947C17.6849 382.203 -2.08654 414.879 -7.63787 432.838H205.146C202.691 415.801 183.448 382.379 160.134 375.947C150.057 373.172 142.538 369.547 137.152 366.222C136.925 369.174 135.806 374.477 131.125 379.51C125.066 386.025 115.289 389.318 102.084 389.318C69.9047 389.318 65.5548 370.096 64.9644 365.218ZM72.8668 358.952C71.7689 360.039 69.9979 361.655 67.4604 363.509C67.4708 364.431 68.0818 386.729 102.084 386.729C114.522 386.729 123.637 383.715 129.198 377.781C133.745 372.913 134.636 367.268 134.791 364.7C131.228 362.287 128.825 360.153 127.448 358.776C127.738 364.161 125.874 369.578 122.373 373.679C115.392 381.83 103.327 382.742 93.3839 381.375C90.4529 380.971 87.5736 380.204 85.0258 378.671C82.5609 377.201 80.2098 375.243 78.2627 373.141C74.6585 369.236 73.6021 364.047 72.8668 358.952Z" fill="#111111"/>
</g>
<path d="M154.118 287.872C154.18 288.297 154.211 288.722 154.211 289.157C154.211 295.019 148.991 299.772 142.559 299.772C141.783 299.772 141.016 299.679 140.271 299.545V288.856C140.395 288.804 140.519 288.742 140.623 288.649C140.695 288.597 141.306 288.1 142.311 287.686C142.249 289.54 142.994 291.86 145.843 293.631C146.06 293.755 146.288 293.817 146.526 293.817C146.961 293.817 147.386 293.6 147.624 293.206C148.007 292.595 147.81 291.798 147.21 291.425C144.765 289.913 144.776 288.079 144.983 287.127C146.609 287.096 148.587 287.603 150.741 289.333C150.98 289.529 151.27 289.623 151.549 289.623C151.932 289.623 152.305 289.457 152.564 289.136C152.823 288.815 152.906 288.411 152.823 288.048L154.118 287.872Z" fill="#FDDCBC"/>
<path d="M154.118 287.872L152.823 288.048C152.761 287.768 152.606 287.509 152.367 287.313C147.52 283.418 142.901 284.319 140.271 285.78V278.778C141.027 278.633 141.783 278.54 142.559 278.54C148.515 278.54 153.434 282.621 154.118 287.872Z" fill="#FDDCBC"/>
<path d="M142.559 275.951C150.41 275.951 156.8 281.875 156.8 289.156C156.8 296.437 150.41 302.361 142.559 302.361C141.793 302.361 141.027 302.299 140.271 302.185V303.138C140.271 314.313 135.61 324.411 128.143 331.62H128.308V357.181C128.308 371.183 116.916 382.576 102.913 382.576H97.2581C83.2555 382.576 71.8628 371.183 71.8628 357.181V330.336C71.1585 329.59 70.475 328.834 69.8329 328.036C64.1572 321.014 61.0398 312.18 61.0398 303.138V302.175C60.2527 302.299 59.4655 302.361 58.6681 302.361C50.8175 302.361 44.4272 296.437 44.4272 289.156C44.4272 281.875 50.8175 275.951 58.6681 275.951C59.4655 275.951 60.2527 276.024 61.0398 276.148V265.853C61.0398 244.01 78.8123 226.238 100.655 226.238C122.498 226.238 140.271 244.01 140.271 265.853V276.127C141.027 276.024 141.793 275.951 142.559 275.951ZM154.211 289.156C154.211 288.721 154.18 288.297 154.118 287.872C153.434 282.621 148.515 278.54 142.559 278.54C141.783 278.54 141.027 278.634 140.271 278.779V285.78C142.901 284.32 147.52 283.419 152.367 287.313C152.606 287.51 152.761 287.768 152.823 288.048C152.906 288.411 152.823 288.815 152.564 289.136C152.305 289.457 151.932 289.622 151.549 289.622C151.27 289.622 150.98 289.529 150.741 289.332C148.587 287.603 146.609 287.095 144.983 287.126C144.776 288.079 144.765 289.912 147.21 291.424C147.81 291.797 148.007 292.595 147.624 293.206C147.386 293.599 146.961 293.817 146.526 293.817C146.288 293.817 146.06 293.755 145.843 293.631C142.994 291.859 142.249 289.54 142.311 287.686C141.306 288.1 140.695 288.597 140.623 288.649C140.519 288.742 140.395 288.804 140.271 288.856V299.544C141.016 299.679 141.783 299.772 142.559 299.772C148.991 299.772 154.211 295.018 154.211 289.156ZM137.681 303.138V265.853C137.681 245.44 121.069 228.827 100.655 228.827C80.2416 228.827 63.629 245.44 63.629 265.853V303.138C63.629 311.589 66.5394 319.844 71.8421 326.4C78.9159 335.152 89.4179 340.164 100.655 340.164C121.069 340.164 137.681 323.562 137.681 303.138ZM125.719 357.181V333.795C118.883 339.388 110.152 342.754 100.655 342.754C91.1578 342.754 81.6294 339.211 74.4521 332.863V357.181C74.4521 369.754 84.6847 379.987 97.2581 379.987H102.913C115.486 379.987 125.719 369.754 125.719 357.181ZM61.0398 299.534V288.338C60.5841 288.079 59.8488 287.717 58.9063 287.447C59.0513 289.343 58.3677 291.787 55.3849 293.631C55.1778 293.755 54.9396 293.817 54.7117 293.817C54.2767 293.817 53.8521 293.599 53.6035 293.206C53.2307 292.595 53.4171 291.797 54.0281 291.424C56.4931 289.902 56.462 288.038 56.2342 287.095C54.5253 287.137 52.5367 287.686 50.4861 289.332C50.2479 289.529 49.9682 289.622 49.6782 289.622C49.3054 289.622 48.9222 289.457 48.6736 289.136C48.4147 288.815 48.3318 288.411 48.4147 288.048C48.4768 287.768 48.6322 287.51 48.8704 287.313C53.386 283.677 58.0674 284.206 61.0398 285.449V278.789C60.263 278.644 59.4655 278.54 58.6681 278.54C52.7232 278.54 47.8036 282.621 47.1097 287.872C47.0476 288.297 47.0165 288.721 47.0165 289.156C47.0165 295.018 52.2467 299.772 58.6681 299.772C59.4759 299.772 60.263 299.679 61.0398 299.534Z" fill="#111111"/>
<path d="M137.68 265.853V303.138C137.68 323.562 121.067 340.164 100.654 340.164C89.4163 340.164 78.9143 335.152 71.8405 326.4C66.5377 319.844 63.6274 311.59 63.6274 303.138V265.853C63.6274 245.44 80.2296 228.827 100.654 228.827C121.077 228.827 137.68 245.44 137.68 265.853Z" fill="#FDDCBC"/>
<path d="M125.718 333.795V357.181C125.718 369.754 115.485 379.987 102.912 379.987H97.2572C84.6838 379.987 74.4512 369.754 74.4512 357.181V332.863C81.6285 339.212 90.8773 342.754 100.654 342.754C110.431 342.754 118.883 339.388 125.718 333.795Z" fill="#FDDCBC"/>
<path d="M61.0394 288.338V299.534C60.2627 299.679 59.4755 299.772 58.6677 299.772C52.2464 299.772 47.0161 295.018 47.0161 289.156C47.0161 288.721 47.0472 288.297 47.1093 287.872L48.4143 288.048C48.3314 288.411 48.4143 288.814 48.6732 289.136C48.9218 289.457 49.305 289.622 49.6779 289.622C49.9678 289.622 50.2475 289.529 50.4857 289.332C52.5364 287.686 54.5249 287.137 56.2338 287.095C56.4617 288.038 56.4927 289.902 54.0278 291.424C53.4167 291.797 53.2303 292.595 53.6031 293.206C53.8517 293.599 54.2763 293.817 54.7113 293.817C54.9392 293.817 55.1774 293.755 55.3845 293.63C58.3673 291.787 59.0509 289.343 58.9059 287.447C59.8484 287.717 60.5837 288.079 61.0394 288.338Z" fill="#FDDCBC"/>
<path d="M61.0375 278.789V285.448C58.0651 284.206 53.3837 283.677 48.8681 287.313C48.6299 287.509 48.4745 287.768 48.4124 288.048L47.1074 287.872C47.8013 282.621 52.7209 278.54 58.6658 278.54C59.4633 278.54 60.2608 278.644 61.0375 278.789Z" fill="#FDDCBC"/>
<g opacity="0.6">
<path d="M119.037 337.585C118.726 337.772 118.394 337.948 118.022 338.082C110.948 340.703 101.202 342.432 93.6931 341.003C87.0232 339.74 78.0023 335.97 73.207 330.833L74.2945 354.643C74.2945 354.643 103.387 355.285 122.775 336.042C121.595 336.674 120.331 337.181 119.026 337.585H119.037Z" fill="#111111"/>
</g>
<g clip-path="url(#clip5_87_12616)">
<path d="M100.312 304.464C99.5976 304.464 99.0176 303.884 99.0176 303.169V275.123C99.0176 274.408 99.5976 273.828 100.312 273.828C101.027 273.828 101.607 274.408 101.607 275.123V303.169C101.607 303.884 101.027 304.464 100.312 304.464Z" fill="#111111"/>
<g opacity="0.1">
<path d="M96.3996 303.075L99.0199 275.122L100.315 304.453H97.6631C96.9174 304.453 96.3271 303.811 96.3996 303.065V303.075Z" fill="#111111"/>
</g>
</g>
<path d="M141.389 305.22C139.826 301.305 139.173 279.162 139.173 279.162C139.173 279.162 135.703 293.465 133.29 302.082C130.877 310.709 121.991 311.093 117.092 307.561C112.193 304.04 103.183 306.194 103.183 306.194L100.821 307.561L98.522 306.194C98.522 306.194 89.5114 304.04 84.6126 307.561C79.7137 311.082 70.8275 310.709 68.4143 302.082C66.0011 293.455 62.5316 279.162 62.5316 279.162C62.5316 279.162 61.8894 301.295 60.3152 305.22C58.7513 309.135 59.3313 313.92 59.3313 313.92C59.3313 313.92 60.8952 325.002 63.6398 328.72C66.3843 332.438 69.5121 338.456 71.48 340.247C73.2717 341.894 81.143 347 86.3733 347.901C87.3054 348.067 88.2375 348.243 89.1386 348.543C91.5828 349.351 96.7406 350.791 100.811 350.076L101.287 350.118C105.358 350.843 110.101 349.351 112.545 348.543C113.446 348.243 114.378 348.067 115.311 347.901C120.541 347 128.412 341.894 130.204 340.247C132.161 338.456 135.3 332.438 138.044 328.72C140.789 325.002 142.353 313.92 142.353 313.92C142.353 313.92 142.943 309.135 141.369 305.22H141.389ZM100.863 316.188C96.8338 316.188 94.3895 313.92 94.3895 313.92H107.398C107.398 313.92 104.891 316.188 100.863 316.188Z" fill="#111111"/>
<path d="M93.2906 279.525H70.5053C69.4696 283.15 71.541 291.953 82.4158 291.953C91.1156 291.953 93.2906 283.667 93.2906 279.525Z" fill="white"/>
<path d="M131.849 279.525H109.063C108.028 283.15 110.099 291.953 120.974 291.953C129.674 291.953 131.849 283.667 131.849 279.525Z" fill="white"/>
<path d="M81.682 293.383C74.2457 293.383 68.1973 287.334 68.1973 279.887C68.1973 279.173 68.7773 278.593 69.4919 278.593H93.8825C94.5972 278.593 95.1771 279.173 95.1771 279.887C95.1771 287.324 89.1287 293.383 81.6924 293.383H81.682ZM70.859 281.182C71.5011 286.588 76.11 290.793 81.682 290.793C87.2541 290.793 91.8629 286.588 92.505 281.182H70.859Z" fill="#111111"/>
<path d="M88.1337 280.716H74.8872C74.8872 284.465 77.9321 287.51 81.6814 287.51C85.4306 287.51 88.4755 284.465 88.4755 280.716" fill="#111111"/>
<path d="M95.5481 276.614H69.4797C68.765 276.614 68.1851 276.034 68.1851 275.32C68.1851 274.605 68.765 274.025 69.4797 274.025H95.5481C96.2628 274.025 96.8428 274.605 96.8428 275.32C96.8428 276.034 96.2628 276.614 95.5481 276.614Z" fill="#111111"/>
<path d="M119.69 293.383C112.254 293.383 106.195 287.334 106.195 279.887C106.195 279.173 106.775 278.593 107.489 278.593H131.88C132.595 278.593 133.175 279.173 133.175 279.887C133.175 287.324 127.126 293.383 119.69 293.383ZM108.867 281.182C109.509 286.588 114.118 290.793 119.69 290.793C125.262 290.793 129.871 286.588 130.513 281.182H108.867Z" fill="#111111"/>
<path d="M113.239 280.716H126.485C126.485 284.465 123.44 287.51 119.691 287.51C115.942 287.51 112.897 284.465 112.897 280.716" fill="#111111"/>
<path d="M131.881 276.614H105.812C105.098 276.614 104.518 276.034 104.518 275.32C104.518 274.605 105.098 274.025 105.812 274.025H131.881C132.595 274.025 133.175 274.605 133.175 275.32C133.175 276.034 132.595 276.614 131.881 276.614Z" fill="#111111"/>
<g clip-path="url(#clip6_87_12616)">
<path d="M57.9133 278.116C57.9133 278.116 55.4898 270.38 56.5151 266.175C56.5151 266.175 52.8281 257.268 54.858 251.913C54.858 251.913 51.3263 236.719 64.2725 228.734C65.2771 228.113 65.795 226.942 65.5568 225.782C65.3186 224.623 65.0907 223.1 65.1425 221.754C65.1943 220.283 66.375 219.133 67.8457 218.978C69.4613 218.812 72.2474 218.18 76.4834 216.161C83.9922 212.598 87.6896 206.995 100.418 211.065C100.418 211.065 109.708 203.94 116.969 207.502C124.229 211.065 117.984 212.598 127.025 217.942C136.067 223.286 136.574 225.203 138.863 229.656C141.152 234.109 145.74 232.836 147.263 237.548C147.263 237.548 143.358 238.822 144.228 240.862C144.228 240.862 145.264 248.122 145.875 255.507C146.486 262.891 141.038 278.323 141.038 278.323L137.103 278.593C137.103 278.593 135.166 274.004 131.22 271.332C131.22 271.332 128.941 256.377 128.941 250.266C128.941 250.266 117.808 239.06 114.203 235.238C114.203 235.238 101.692 241.225 87.9382 235.497C87.9382 235.497 77.1151 242.882 73.0448 244.156C68.9746 245.43 68.7156 254.088 66.6753 255.869C64.635 257.651 66.8825 267.179 65.7639 271.198C64.6454 275.216 61.4658 282.549 61.4658 282.549L57.8926 278.127L57.9133 278.116Z" fill="#111111"/>
</g>
</g>
<defs>
<clipPath id="clip0_87_12616">
<rect width="386" height="399" fill="white"/>
</clipPath>
<clipPath id="clip1_87_12616">
<rect width="219.086" height="227.59" fill="white" transform="translate(149.1 208.555)"/>
</clipPath>
<clipPath id="clip2_87_12616">
<rect width="5.19716" height="30.563" fill="white" transform="translate(256.558 274.682)"/>
</clipPath>
<clipPath id="clip3_87_12616">
<rect width="215.584" height="221.484" fill="white" transform="translate(153.234 214.755)"/>
</clipPath>
<clipPath id="clip4_87_12616">
<rect width="219.609" height="228.133" fill="white" transform="translate(-11.3145 207.543)"/>
</clipPath>
<clipPath id="clip5_87_12616">
<rect width="5.20955" height="30.6359" fill="white" transform="translate(96.3979 273.828)"/>
</clipPath>
<clipPath id="clip6_87_12616">
<rect width="215.663" height="230.473" fill="white" transform="translate(-9.2417 206.508)"/>
</clipPath>
</defs>
</svg>
