<svg width="683" height="318" viewBox="0 0 683 318" fill="none" xmlns="http://www.w3.org/2000/svg">
<rect x="-1.28072" y="4.77971" width="80.0369" height="19.596" transform="matrix(0.499999 0.866026 -0.866025 0.500001 194.715 47.0595)" fill="#111111"/>
<rect x="-1.28072" y="4.77971" width="80.0369" height="19.596" transform="matrix(0.499999 0.866026 -0.866025 0.500001 194.715 47.0595)" stroke="#111111" stroke-width="6.99798"/>
<rect x="-1.28072" y="4.77971" width="80.0369" height="19.596" transform="matrix(0.499999 0.866026 -0.866025 0.500001 189.887 49.4756)" fill="#EB4C37"/>
<rect x="-1.28072" y="4.77971" width="80.0369" height="19.596" transform="matrix(0.499999 0.866026 -0.866025 0.500001 189.887 49.4756)" stroke="#111111" stroke-width="6.99798"/>
<rect x="350.847" y="3.53952" width="80.037" height="19.596" transform="rotate(90 350.847 3.53952)" fill="#111111"/>
<rect x="350.847" y="3.53952" width="80.037" height="19.596" transform="rotate(90 350.847 3.53952)" stroke="#111111" stroke-width="6.99798"/>
<rect x="346.019" y="3.53854" width="80.037" height="19.596" transform="rotate(90 346.019 3.53854)" fill="#EB4C37"/>
<rect x="346.019" y="3.53854" width="80.037" height="19.596" transform="rotate(90 346.019 3.53854)" stroke="#111111" stroke-width="6.99798"/>
<rect x="-4.94831" width="80.0369" height="19.596" transform="matrix(-0.707106 0.707108 -0.707106 -0.707108 503.61 68.2797)" fill="#111111"/>
<rect x="-4.94831" width="80.0369" height="19.596" transform="matrix(-0.707106 0.707108 -0.707106 -0.707108 503.61 68.2797)" stroke="#111111" stroke-width="6.99798"/>
<rect x="-4.94831" width="80.0369" height="19.596" transform="matrix(-0.707106 0.707108 -0.707106 -0.707108 498.767 63.4443)" fill="#EB4C37"/>
<rect x="-4.94831" width="80.0369" height="19.596" transform="matrix(-0.707106 0.707108 -0.707106 -0.707108 498.767 63.4443)" stroke="#111111" stroke-width="6.99798"/>
<mask id="path-7-outside-1_12_5265" maskUnits="userSpaceOnUse" x="-0.460938" y="166.981" width="683" height="151" fill="black">
<rect fill="white" x="-0.460938" y="166.981" width="683" height="151"/>
<path d="M128.865 310C123.038 299.461 113.367 283.343 99.8532 261.646L78.094 283.219V310H31.786C32.7779 285.947 33.2739 263.444 33.2739 242.49C33.2739 221.537 32.7779 199.034 31.786 174.981H78.094V229.472C100.907 206.907 117.149 188.743 126.82 174.981H187.076L128.493 233.006C137.172 245.156 146.905 258.36 157.692 272.619C168.602 286.877 178.459 299.337 187.262 310H128.865Z"/>
<path d="M334.229 259.228L343.9 174.981H389.278L364.357 310H307.263L294.616 234.679L279.924 310H225.247L200.327 174.981H245.705L255.19 258.112L270.068 174.981H319.723L334.229 259.228Z"/>
<path d="M512.153 211.99C497.399 211.246 486.488 210.812 479.421 210.688V274.292C486.612 274.168 497.523 273.734 512.153 272.99V310H404.101V272.99C418.359 273.734 429.208 274.168 436.647 274.292V210.688C429.208 210.812 418.359 211.246 404.101 211.99V174.981H512.153V211.99Z"/>
<path d="M588.8 273.362C595.867 273.238 614.093 272.743 643.477 271.875C647.196 271.751 651.536 271.565 656.495 271.317C661.454 271.069 666.972 270.883 673.047 270.759C672.179 276.586 671.621 282.413 671.373 288.241C671.249 294.068 671.187 301.321 671.187 310H528.544V268.527C535.363 264.684 542.802 259.972 550.861 254.393C558.92 248.69 569.334 241.251 582.105 232.076C594.007 223.397 602.624 217.198 607.955 213.478C598.161 213.602 578.509 214.284 549.001 215.524C538.834 216.02 532.015 216.33 528.544 216.454C528.544 207.279 528.42 199.592 528.172 193.393C528.048 187.193 527.676 181.056 527.056 174.981H671.187V216.64C664.616 220.979 652.466 229.41 634.736 241.932C614.898 256.067 599.586 266.543 588.8 273.362Z"/>
<path d="M105.618 310C99.7912 299.461 90.1205 283.343 76.6062 261.646L54.8471 283.219V310H8.53906C9.53093 285.947 10.0269 263.444 10.0269 242.49C10.0269 221.537 9.53093 199.034 8.53906 174.981H54.8471V229.472C77.6601 206.907 93.902 188.743 103.573 174.981H163.829L105.247 233.006C113.925 245.156 123.658 258.36 134.445 272.619C145.355 286.877 155.212 299.337 164.015 310H105.618Z"/>
<path d="M310.982 259.228L320.653 174.981H366.031L341.11 310H284.016L271.369 234.679L256.677 310H202L177.08 174.981H222.458L231.943 258.112L246.821 174.981H296.476L310.982 259.228Z"/>
<path d="M488.906 211.99C474.152 211.246 463.241 210.812 456.174 210.688V274.292C463.365 274.168 474.276 273.734 488.906 272.99V310H380.854V272.99C395.112 273.734 405.961 274.168 413.4 274.292V210.688C405.961 210.812 395.112 211.246 380.854 211.99V174.981H488.906V211.99Z"/>
<path d="M565.553 273.362C572.62 273.238 590.846 272.743 620.23 271.875C623.949 271.751 628.289 271.565 633.248 271.317C638.207 271.069 643.725 270.883 649.8 270.759C648.932 276.586 648.374 282.413 648.126 288.241C648.002 294.068 647.94 301.321 647.94 310H505.297V268.527C512.116 264.684 519.555 259.972 527.614 254.393C535.673 248.69 546.087 241.251 558.858 232.076C570.76 223.397 579.377 217.198 584.708 213.478C574.914 213.602 555.262 214.284 525.754 215.524C515.587 216.02 508.768 216.33 505.297 216.454C505.297 207.279 505.173 199.592 504.925 193.393C504.801 187.193 504.429 181.056 503.809 174.981H647.94V216.64C641.369 220.979 629.219 229.41 611.489 241.932C591.651 256.067 576.339 266.543 565.553 273.362Z"/>
</mask>
<path d="M128.865 310C123.038 299.461 113.367 283.343 99.8532 261.646L78.094 283.219V310H31.786C32.7779 285.947 33.2739 263.444 33.2739 242.49C33.2739 221.537 32.7779 199.034 31.786 174.981H78.094V229.472C100.907 206.907 117.149 188.743 126.82 174.981H187.076L128.493 233.006C137.172 245.156 146.905 258.36 157.692 272.619C168.602 286.877 178.459 299.337 187.262 310H128.865Z" fill="#111111"/>
<path d="M334.229 259.228L343.9 174.981H389.278L364.357 310H307.263L294.616 234.679L279.924 310H225.247L200.327 174.981H245.705L255.19 258.112L270.068 174.981H319.723L334.229 259.228Z" fill="#111111"/>
<path d="M512.153 211.99C497.399 211.246 486.488 210.812 479.421 210.688V274.292C486.612 274.168 497.523 273.734 512.153 272.99V310H404.101V272.99C418.359 273.734 429.208 274.168 436.647 274.292V210.688C429.208 210.812 418.359 211.246 404.101 211.99V174.981H512.153V211.99Z" fill="#111111"/>
<path d="M588.8 273.362C595.867 273.238 614.093 272.743 643.477 271.875C647.196 271.751 651.536 271.565 656.495 271.317C661.454 271.069 666.972 270.883 673.047 270.759C672.179 276.586 671.621 282.413 671.373 288.241C671.249 294.068 671.187 301.321 671.187 310H528.544V268.527C535.363 264.684 542.802 259.972 550.861 254.393C558.92 248.69 569.334 241.251 582.105 232.076C594.007 223.397 602.624 217.198 607.955 213.478C598.161 213.602 578.509 214.284 549.001 215.524C538.834 216.02 532.015 216.33 528.544 216.454C528.544 207.279 528.42 199.592 528.172 193.393C528.048 187.193 527.676 181.056 527.056 174.981H671.187V216.64C664.616 220.979 652.466 229.41 634.736 241.932C614.898 256.067 599.586 266.543 588.8 273.362Z" fill="#111111"/>
<path d="M105.618 310C99.7912 299.461 90.1205 283.343 76.6062 261.646L54.8471 283.219V310H8.53906C9.53093 285.947 10.0269 263.444 10.0269 242.49C10.0269 221.537 9.53093 199.034 8.53906 174.981H54.8471V229.472C77.6601 206.907 93.902 188.743 103.573 174.981H163.829L105.247 233.006C113.925 245.156 123.658 258.36 134.445 272.619C145.355 286.877 155.212 299.337 164.015 310H105.618Z" fill="#EB4C37"/>
<path d="M310.982 259.228L320.653 174.981H366.031L341.11 310H284.016L271.369 234.679L256.677 310H202L177.08 174.981H222.458L231.943 258.112L246.821 174.981H296.476L310.982 259.228Z" fill="#EB4C37"/>
<path d="M488.906 211.99C474.152 211.246 463.241 210.812 456.174 210.688V274.292C463.365 274.168 474.276 273.734 488.906 272.99V310H380.854V272.99C395.112 273.734 405.961 274.168 413.4 274.292V210.688C405.961 210.812 395.112 211.246 380.854 211.99V174.981H488.906V211.99Z" fill="#EB4C37"/>
<path d="M565.553 273.362C572.62 273.238 590.846 272.743 620.23 271.875C623.949 271.751 628.289 271.565 633.248 271.317C638.207 271.069 643.725 270.883 649.8 270.759C648.932 276.586 648.374 282.413 648.126 288.241C648.002 294.068 647.94 301.321 647.94 310H505.297V268.527C512.116 264.684 519.555 259.972 527.614 254.393C535.673 248.69 546.087 241.251 558.858 232.076C570.76 223.397 579.377 217.198 584.708 213.478C574.914 213.602 555.262 214.284 525.754 215.524C515.587 216.02 508.768 216.33 505.297 216.454C505.297 207.279 505.173 199.592 504.925 193.393C504.801 187.193 504.429 181.056 503.809 174.981H647.94V216.64C641.369 220.979 629.219 229.41 611.489 241.932C591.651 256.067 576.339 266.543 565.553 273.362Z" fill="#EB4C37"/>
<path d="M128.865 310C123.038 299.461 113.367 283.343 99.8532 261.646L78.094 283.219V310H31.786C32.7779 285.947 33.2739 263.444 33.2739 242.49C33.2739 221.537 32.7779 199.034 31.786 174.981H78.094V229.472C100.907 206.907 117.149 188.743 126.82 174.981H187.076L128.493 233.006C137.172 245.156 146.905 258.36 157.692 272.619C168.602 286.877 178.459 299.337 187.262 310H128.865Z" stroke="#111111" stroke-width="15.498" mask="url(#path-7-outside-1_12_5265)"/>
<path d="M334.229 259.228L343.9 174.981H389.278L364.357 310H307.263L294.616 234.679L279.924 310H225.247L200.327 174.981H245.705L255.19 258.112L270.068 174.981H319.723L334.229 259.228Z" stroke="#111111" stroke-width="15.498" mask="url(#path-7-outside-1_12_5265)"/>
<path d="M512.153 211.99C497.399 211.246 486.488 210.812 479.421 210.688V274.292C486.612 274.168 497.523 273.734 512.153 272.99V310H404.101V272.99C418.359 273.734 429.208 274.168 436.647 274.292V210.688C429.208 210.812 418.359 211.246 404.101 211.99V174.981H512.153V211.99Z" stroke="#111111" stroke-width="15.498" mask="url(#path-7-outside-1_12_5265)"/>
<path d="M588.8 273.362C595.867 273.238 614.093 272.743 643.477 271.875C647.196 271.751 651.536 271.565 656.495 271.317C661.454 271.069 666.972 270.883 673.047 270.759C672.179 276.586 671.621 282.413 671.373 288.241C671.249 294.068 671.187 301.321 671.187 310H528.544V268.527C535.363 264.684 542.802 259.972 550.861 254.393C558.92 248.69 569.334 241.251 582.105 232.076C594.007 223.397 602.624 217.198 607.955 213.478C598.161 213.602 578.509 214.284 549.001 215.524C538.834 216.02 532.015 216.33 528.544 216.454C528.544 207.279 528.42 199.592 528.172 193.393C528.048 187.193 527.676 181.056 527.056 174.981H671.187V216.64C664.616 220.979 652.466 229.41 634.736 241.932C614.898 256.067 599.586 266.543 588.8 273.362Z" stroke="#111111" stroke-width="15.498" mask="url(#path-7-outside-1_12_5265)"/>
<path d="M105.618 310C99.7912 299.461 90.1205 283.343 76.6062 261.646L54.8471 283.219V310H8.53906C9.53093 285.947 10.0269 263.444 10.0269 242.49C10.0269 221.537 9.53093 199.034 8.53906 174.981H54.8471V229.472C77.6601 206.907 93.902 188.743 103.573 174.981H163.829L105.247 233.006C113.925 245.156 123.658 258.36 134.445 272.619C145.355 286.877 155.212 299.337 164.015 310H105.618Z" stroke="#111111" stroke-width="15.498" mask="url(#path-7-outside-1_12_5265)"/>
<path d="M310.982 259.228L320.653 174.981H366.031L341.11 310H284.016L271.369 234.679L256.677 310H202L177.08 174.981H222.458L231.943 258.112L246.821 174.981H296.476L310.982 259.228Z" stroke="#111111" stroke-width="15.498" mask="url(#path-7-outside-1_12_5265)"/>
<path d="M488.906 211.99C474.152 211.246 463.241 210.812 456.174 210.688V274.292C463.365 274.168 474.276 273.734 488.906 272.99V310H380.854V272.99C395.112 273.734 405.961 274.168 413.4 274.292V210.688C405.961 210.812 395.112 211.246 380.854 211.99V174.981H488.906V211.99Z" stroke="#111111" stroke-width="15.498" mask="url(#path-7-outside-1_12_5265)"/>
<path d="M565.553 273.362C572.62 273.238 590.846 272.743 620.23 271.875C623.949 271.751 628.289 271.565 633.248 271.317C638.207 271.069 643.725 270.883 649.8 270.759C648.932 276.586 648.374 282.413 648.126 288.241C648.002 294.068 647.94 301.321 647.94 310H505.297V268.527C512.116 264.684 519.555 259.972 527.614 254.393C535.673 248.69 546.087 241.251 558.858 232.076C570.76 223.397 579.377 217.198 584.708 213.478C574.914 213.602 555.262 214.284 525.754 215.524C515.587 216.02 508.768 216.33 505.297 216.454C505.297 207.279 505.173 199.592 504.925 193.393C504.801 187.193 504.429 181.056 503.809 174.981H647.94V216.64C641.369 220.979 629.219 229.41 611.489 241.932C591.651 256.067 576.339 266.543 565.553 273.362Z" stroke="#111111" stroke-width="15.498" mask="url(#path-7-outside-1_12_5265)"/>
</svg>
