<svg width="80" height="80" viewBox="0 0 80 80" fill="none" xmlns="http://www.w3.org/2000/svg">
<g clip-path="url(#clip0_39_5320)">
<path d="M50.7644 51.129L49.0169 58.909C48.4219 58.9915 46.4694 59.2315 42.2744 59.504C40.1019 59.6465 38.7119 59.7915 37.6994 59.899C36.2869 60.0465 35.7019 60.109 34.8494 59.9615C33.6519 59.754 32.1269 59.6015 31.5244 59.544C31.5369 59.459 31.5469 59.374 31.5469 59.2865V50.154C32.6219 49.4715 33.3069 48.8615 33.6719 48.499C33.7069 49.0265 33.7669 49.554 33.9094 50.064C34.0794 50.6815 34.3819 51.239 34.7919 51.729C35.6244 52.7265 36.8069 53.489 38.0344 53.909C38.6694 54.1265 39.3594 54.1565 40.0269 54.1565C40.7019 54.159 41.3769 54.1015 42.0419 53.9765C42.6919 53.8565 43.3294 53.6665 43.9369 53.4015C44.5269 53.1465 45.0144 52.8015 45.3819 52.269C45.7894 51.6765 46.1294 51.019 46.3969 50.349C46.6394 49.744 46.8019 49.109 46.8369 48.459C47.3894 49.009 48.6294 50.084 50.7644 51.129Z" fill="#FFF1E3"/>
<path d="M50.1867 59.0385C50.0017 59.7785 50.4542 60.5285 51.1942 60.7135C51.3067 60.741 51.4192 60.7535 51.5292 60.7535C52.1492 60.7535 52.7142 60.3335 52.8717 59.706C53.0542 58.966 52.6017 58.2135 51.8617 58.031C51.1217 57.846 50.3717 58.2985 50.1867 59.0385ZM49.5792 59.256L51.4867 50.7585C51.6292 50.6185 51.9367 50.3885 52.1917 50.451C52.4367 50.5135 52.6717 50.596 52.9442 50.696C53.2492 50.806 53.5967 50.9335 54.0542 51.061C54.8717 51.286 55.3467 51.7535 55.3842 51.951C55.4167 52.1185 55.2567 52.651 55.0892 53.041L53.3392 60.051C53.2492 60.416 53.0092 60.7285 52.6792 60.911L51.8267 61.3885C51.3242 61.6685 50.6342 61.496 50.3192 61.0135L49.7117 60.0735C49.5567 59.8335 49.5092 59.5385 49.5792 59.256Z" fill="#3A486B"/>
<path d="M51.7119 58.6364C52.1169 58.7389 52.3644 59.1489 52.2644 59.5564C52.1644 59.9614 51.7519 60.2064 51.3469 60.1064C50.9394 60.0064 50.6919 59.5939 50.7944 59.1889C50.8944 58.7839 51.3069 58.5364 51.7119 58.6364Z" fill="#B1C0E7"/>
<path d="M65.5989 66.3435H58.4489C58.3789 65.871 58.1514 64.9335 57.4089 64.121C56.9014 63.566 56.6164 62.4335 56.3664 61.4335C56.1764 60.6785 56.0114 60.0235 55.7614 59.656C55.2939 58.9685 54.6289 58.7335 54.3289 58.661L55.6714 53.2635C55.6989 53.201 55.7464 53.081 55.7989 52.9385C60.8339 54.921 65.0189 62.0785 65.5989 66.3435Z" fill="#FFF1E3"/>
<path d="M43.7618 62.5084V64.4734C43.7618 64.6709 43.5993 64.8334 43.4018 64.8334H36.7243C36.5243 64.8334 36.3643 64.6709 36.3643 64.4734V62.5084C36.3643 62.3109 36.5243 62.1484 36.7243 62.1484H43.4018C43.5993 62.1484 43.7618 62.3109 43.7618 62.5084Z" fill="#3A486B"/>
<path d="M48.9238 59.5516C48.9313 59.8566 49.0188 60.1541 49.1863 60.4116L49.7938 61.3516C50.1263 61.8641 50.7063 62.1491 51.2913 62.1491C51.5788 62.1491 51.8688 62.0816 52.1313 61.9341L52.9838 61.4591C53.4613 61.1916 53.8138 60.7341 53.9438 60.2016L54.1788 59.2666C54.3788 59.3141 54.8889 59.4841 55.2439 60.0066C55.4314 60.2841 55.5914 60.9166 55.7589 61.5866C56.0289 62.6566 56.3339 63.8716 56.9464 64.5416C57.5289 65.1816 57.7388 65.9266 57.8139 66.3441H21.6938C21.8738 65.2866 23.2013 63.2841 24.0288 62.0416C24.4913 61.3441 24.8563 60.7941 24.9938 60.4841C25.2263 59.9591 25.9988 59.7266 26.4738 59.6466C26.5213 59.9441 26.6663 60.2216 26.8863 60.4291L27.7963 61.2791C28.1288 61.5916 28.5638 61.7466 29.0013 61.7466C29.4388 61.7466 29.8713 61.5916 30.2038 61.2791L31.0088 60.5266C31.1263 60.4166 31.2263 60.2891 31.3063 60.1516C31.7338 60.1916 33.4413 60.3541 34.7438 60.5766C35.1213 60.6416 35.4538 60.6691 35.8088 60.6691C36.3338 60.6691 36.9113 60.6091 37.7638 60.5191C38.7738 60.4141 40.1538 60.2691 42.3138 60.1291C46.2088 59.8741 48.1588 59.6541 48.9238 59.5516ZM44.3863 64.4741V62.5091C44.3863 61.9666 43.9438 61.5241 43.4013 61.5241H36.7238C36.1788 61.5241 35.7388 61.9666 35.7388 62.5091V64.4741C35.7388 65.0166 36.1788 65.4591 36.7238 65.4591H43.4013C43.9438 65.4591 44.3863 65.0166 44.3863 64.4741Z" fill="#B77131"/>
<path d="M29.0016 59.6966C29.42 59.6966 29.7591 59.3575 29.7591 58.9391C29.7591 58.5208 29.42 58.1816 29.0016 58.1816C28.5833 58.1816 28.2441 58.5208 28.2441 58.9391C28.2441 59.3575 28.5833 59.6966 29.0016 59.6966Z" fill="#B1C0E7"/>
<path d="M26.4542 52.4238V59.0188C25.9692 59.0913 24.8142 59.3513 24.4242 60.2313C24.3067 60.4913 23.9367 61.0488 23.5092 61.6938C22.2517 63.5863 21.1967 65.2538 21.0617 66.3438H14.9492C15.5442 62.2313 20.1867 54.1638 25.8142 52.6113C26.0342 52.5513 26.2442 52.4888 26.4542 52.4238Z" fill="#FFF1E3"/>
<path d="M30.5817 60.0709L29.7767 60.8234C29.3567 61.2184 28.6442 61.2184 28.2242 60.8234L27.3142 59.9709C27.1667 59.8309 27.0792 59.6359 27.0792 59.4309V51.9359L27.0667 51.8909C27.0667 51.8909 26.9817 51.6134 27.0867 51.3809C27.2142 51.1009 27.8267 50.2834 28.5567 50.2634C29.1242 50.2484 29.5417 50.0134 29.8742 49.8234C30.1017 49.6959 30.2967 49.5859 30.4667 49.5859C30.7292 49.5859 30.8792 49.9234 30.9217 50.0334V59.2859C30.9217 59.5834 30.7967 59.8684 30.5817 60.0709ZM27.6192 58.9384C27.6192 59.7009 28.2392 60.3209 29.0017 60.3209C29.7642 60.3209 30.3842 59.7009 30.3842 58.9384C30.3842 58.1759 29.7642 57.5559 29.0017 57.5559C28.2392 57.5559 27.6192 58.1759 27.6192 58.9384Z" fill="#3A486B"/>
<path d="M51.1942 60.7141C50.4542 60.5291 50.0017 59.7791 50.1867 59.0391C50.3717 58.2991 51.1217 57.8466 51.8617 58.0316C52.6017 58.2141 53.0542 58.9666 52.8717 59.7066C52.7142 60.3341 52.1492 60.7541 51.5292 60.7541C51.4192 60.7541 51.3067 60.7416 51.1942 60.7141ZM51.3467 60.1066C51.7517 60.2066 52.1642 59.9616 52.2642 59.5566C52.3642 59.1491 52.1167 58.7391 51.7117 58.6366C51.3067 58.5366 50.8942 58.7841 50.7942 59.1891C50.6917 59.5941 50.9392 60.0066 51.3467 60.1066Z" fill="#111111"/>
<path d="M43.7618 62.5084C43.7618 62.3109 43.5993 62.1484 43.4018 62.1484H36.7243C36.5243 62.1484 36.3643 62.3109 36.3643 62.5084V64.4734C36.3643 64.6709 36.5243 64.8334 36.7243 64.8334H43.4018C43.5993 64.8334 43.7618 64.6709 43.7618 64.4734V62.5084ZM36.7243 65.4584C36.1793 65.4584 35.7393 65.0159 35.7393 64.4734V62.5084C35.7393 61.9659 36.1793 61.5234 36.7243 61.5234H43.4018C43.9443 61.5234 44.3868 61.9659 44.3868 62.5084V64.4734C44.3868 65.0159 43.9443 65.4584 43.4018 65.4584H36.7243Z" fill="#111111"/>
<path d="M28.2441 58.9391C28.2441 59.3566 28.5816 59.6966 29.0016 59.6966C29.4216 59.6966 29.7591 59.3566 29.7591 58.9391C29.7591 58.5216 29.4191 58.1816 29.0016 58.1816C28.5841 58.1816 28.2441 58.5216 28.2441 58.9391ZM30.3841 58.9391C30.3841 59.7016 29.7641 60.3216 29.0016 60.3216C28.2391 60.3216 27.6191 59.7016 27.6191 58.9391C27.6191 58.1766 28.2391 57.5566 29.0016 57.5566C29.7641 57.5566 30.3841 58.1766 30.3841 58.9391Z" fill="#111111"/>
<path d="M28.2244 60.8243C28.6444 61.2193 29.3569 61.2193 29.7769 60.8243L30.5819 60.0718C30.7969 59.8693 30.9219 59.5843 30.9219 59.2868V50.0343C30.8794 49.9243 30.7294 49.5868 30.4669 49.5868C30.2969 49.5868 30.1019 49.6968 29.8744 49.8243C29.5419 50.0143 29.1244 50.2493 28.5569 50.2643C27.8269 50.2843 27.2144 51.1018 27.0869 51.3818C26.9819 51.6143 27.0644 51.8893 27.0669 51.8918L27.0794 51.9368V59.4318C27.0794 59.6368 27.1669 59.8318 27.3144 59.9718L28.2244 60.8243ZM54.3294 58.6618C54.6294 58.7343 55.2944 58.9693 55.7619 59.6568C56.0119 60.0243 56.1769 60.6793 56.3669 61.4343C56.6169 62.4343 56.9019 63.5668 57.4094 64.1218C58.1519 64.9343 58.3794 65.8718 58.4494 66.3443H65.5994C65.0194 62.0793 60.8344 54.9218 55.7994 52.9393C55.7469 53.0818 55.6994 53.2018 55.6719 53.2643L54.3294 58.6618ZM14.9494 66.3443H21.0619C21.1969 65.2543 22.2519 63.5868 23.5094 61.6943C23.9369 61.0493 24.3069 60.4918 24.4244 60.2318C24.8144 59.3518 25.9694 59.0918 26.4544 59.0193V52.4243C26.2444 52.4893 26.0344 52.5518 25.8144 52.6118C20.1869 54.1643 15.5444 62.2318 14.9494 66.3443ZM38.0344 53.9093C36.8069 53.4893 35.6244 52.7268 34.7919 51.7293C34.3819 51.2393 34.0794 50.6818 33.9094 50.0643C33.7669 49.5543 33.7069 49.0268 33.6719 48.4993C33.3069 48.8618 32.6219 49.4718 31.5469 50.1543V59.2868C31.5469 59.3743 31.5369 59.4593 31.5244 59.5443C32.1269 59.6018 33.6519 59.7543 34.8494 59.9618C35.7019 60.1093 36.2869 60.0468 37.6994 59.8993C38.7119 59.7918 40.1019 59.6468 42.2744 59.5043C46.4694 59.2318 48.4219 58.9918 49.0169 58.9093L50.7644 51.1293C48.6294 50.0843 47.3894 49.0093 46.8369 48.4593C46.8019 49.1093 46.6394 49.7443 46.3969 50.3493C46.1294 51.0193 45.7894 51.6768 45.3819 52.2693C45.0144 52.8018 44.5269 53.1468 43.9369 53.4018C43.3294 53.6668 42.6919 53.8568 42.0419 53.9768C41.3769 54.1018 40.7019 54.1593 40.0269 54.1568C39.3594 54.1568 38.6694 54.1268 38.0344 53.9093ZM50.3194 61.0143C50.6344 61.4968 51.3244 61.6693 51.8269 61.3893L52.6794 60.9118C53.0094 60.7293 53.2494 60.4168 53.3394 60.0518L55.0894 53.0418C55.2569 52.6518 55.4169 52.1193 55.3844 51.9518C55.3469 51.7543 54.8719 51.2868 54.0544 51.0618C53.5969 50.9343 53.2494 50.8068 52.9444 50.6968C52.6719 50.5968 52.4369 50.5143 52.1919 50.4518C51.9369 50.3893 51.6294 50.6193 51.4869 50.7593L49.5794 59.2568C49.5094 59.5393 49.5569 59.8343 49.7119 60.0743L50.3194 61.0143ZM40.5094 53.8993C41.1619 53.8718 41.8119 53.7893 42.4469 53.6368C43.0444 53.4918 43.6469 53.2968 44.1919 53.0068C44.4619 52.8618 44.7119 52.6868 44.9194 52.4593C45.1294 52.2243 45.2944 51.9543 45.4519 51.6843C46.0769 50.6243 46.5894 49.4543 46.5944 48.2043C46.5344 48.1368 46.4969 48.0943 46.4894 48.0843L46.9769 47.6943C46.9894 47.7068 48.1644 49.1318 50.9044 50.4993L50.9144 50.4593L50.9669 50.3993C50.9944 50.3693 51.6219 49.6668 52.3444 49.8468C52.6194 49.9143 52.8694 50.0043 53.1569 50.1093C53.4519 50.2168 53.7869 50.3368 54.2219 50.4593C55.1494 50.7168 55.8969 51.2943 55.9994 51.8368C56.0244 51.9743 56.0069 52.1518 55.9719 52.3343C61.3769 54.4293 65.8519 62.2468 66.2594 66.6268L66.2919 66.9693H14.2544L14.2869 66.6268C14.7169 61.9918 19.7919 53.6268 25.6494 52.0093C25.9119 51.9368 26.1669 51.8618 26.4144 51.7843C26.3994 51.6043 26.4094 51.3618 26.5194 51.1218C26.7269 50.6693 27.5219 49.6668 28.5394 49.6393C28.9519 49.6293 29.2644 49.4518 29.5669 49.2818C29.8444 49.1243 30.1319 48.9618 30.4669 48.9618C30.8994 48.9618 31.1919 49.2393 31.3669 49.5268C32.8494 48.5618 33.5019 47.7668 33.5094 47.7568L33.7869 47.9793C33.8319 47.9843 33.8744 48.0118 33.8894 48.0643L33.9969 48.1493C33.9969 48.1493 33.9619 48.1918 33.9069 48.2518C33.9419 48.9143 34.0069 49.5793 34.2144 50.2093C34.4294 50.8693 34.8219 51.4343 35.3069 51.9243C35.7494 52.3693 36.2519 52.7518 36.7994 53.0618C37.3494 53.3718 37.9444 53.6693 38.5669 53.7968C39.1994 53.9218 39.8694 53.9243 40.5094 53.8993ZM29.0019 61.7468C28.5644 61.7468 28.1294 61.5918 27.7969 61.2793L26.8869 60.4293C26.6669 60.2218 26.5219 59.9443 26.4744 59.6468C25.9994 59.7268 25.2269 59.9593 24.9944 60.4843C24.8569 60.7943 24.4919 61.3443 24.0294 62.0418C23.2019 63.2843 21.8744 65.2868 21.6944 66.3443H57.8144C57.7394 65.9268 57.5294 65.1818 56.9469 64.5418C56.3344 63.8718 56.0294 62.6568 55.7594 61.5868C55.5919 60.9168 55.4319 60.2843 55.2444 60.0068C54.8894 59.4843 54.3794 59.3143 54.1794 59.2668L53.9444 60.2018C53.8144 60.7343 53.4619 61.1918 52.9844 61.4593L52.1319 61.9343C51.8694 62.0818 51.5794 62.1493 51.2919 62.1493C50.7069 62.1493 50.1269 61.8643 49.7944 61.3518L49.1869 60.4118C49.0194 60.1543 48.9319 59.8568 48.9244 59.5518C48.1594 59.6543 46.2094 59.8743 42.3144 60.1293C40.1544 60.2693 38.7744 60.4143 37.7644 60.5193C36.9119 60.6093 36.3344 60.6693 35.8094 60.6693C35.4544 60.6693 35.1219 60.6418 34.7444 60.5768C33.4419 60.3543 31.7344 60.1918 31.3069 60.1518C31.2269 60.2893 31.1269 60.4168 31.0094 60.5268L30.2044 61.2793C29.8719 61.5918 29.4369 61.7468 29.0019 61.7468Z" fill="#111111"/>
</g>
<path d="M53.3745 31.8317C53.3895 31.9342 53.397 32.0367 53.397 32.1417C53.397 33.5567 52.137 34.7042 50.5845 34.7042C50.397 34.7042 50.212 34.6817 50.032 34.6492V32.0692C50.062 32.0567 50.092 32.0417 50.117 32.0192C50.1345 32.0067 50.282 31.8867 50.5245 31.7867C50.5095 32.2342 50.6895 32.7942 51.377 33.2217C51.4295 33.2517 51.4845 33.2667 51.542 33.2667C51.647 33.2667 51.7495 33.2142 51.807 33.1192C51.8995 32.9717 51.852 32.7792 51.707 32.6892C51.117 32.3242 51.1195 31.8817 51.1695 31.6517C51.562 31.6442 52.0395 31.7667 52.5595 32.1842C52.617 32.2317 52.687 32.2542 52.7545 32.2542C52.847 32.2542 52.937 32.2142 52.9995 32.1367C53.062 32.0592 53.082 31.9617 53.062 31.8742L53.3745 31.8317Z" fill="#FDDCBC"/>
<path d="M53.3745 31.8316L53.062 31.8741C53.047 31.8066 53.0095 31.7441 52.952 31.6966C51.782 30.7566 50.667 30.9741 50.032 31.3266V29.6366C50.2145 29.6016 50.397 29.5791 50.5845 29.5791C52.022 29.5791 53.2095 30.5641 53.3745 31.8316Z" fill="#FDDCBC"/>
<path d="M50.5845 28.9541C52.4795 28.9541 54.022 30.3841 54.022 32.1416C54.022 33.8991 52.4795 35.3291 50.5845 35.3291C50.3995 35.3291 50.2145 35.3141 50.032 35.2866V35.5166C50.032 38.2141 48.907 40.6516 47.1045 42.3916H47.1445V48.5616C47.1445 51.9416 44.3945 54.6916 41.0145 54.6916H39.6495C36.2695 54.6916 33.5195 51.9416 33.5195 48.5616V42.0816C33.3495 41.9016 33.1845 41.7191 33.0295 41.5266C31.6595 39.8316 30.907 37.6991 30.907 35.5166V35.2841C30.717 35.3141 30.527 35.3291 30.3345 35.3291C28.4395 35.3291 26.897 33.8991 26.897 32.1416C26.897 30.3841 28.4395 28.9541 30.3345 28.9541C30.527 28.9541 30.717 28.9716 30.907 29.0016V26.5166C30.907 21.2441 35.197 16.9541 40.4695 16.9541C45.742 16.9541 50.032 21.2441 50.032 26.5166V28.9966C50.2145 28.9716 50.3995 28.9541 50.5845 28.9541ZM53.397 32.1416C53.397 32.0366 53.3895 31.9341 53.3745 31.8316C53.2095 30.5641 52.022 29.5791 50.5845 29.5791C50.397 29.5791 50.2145 29.6016 50.032 29.6366V31.3266C50.667 30.9741 51.782 30.7566 52.952 31.6966C53.0095 31.7441 53.047 31.8066 53.062 31.8741C53.082 31.9616 53.062 32.0591 52.9995 32.1366C52.937 32.2141 52.847 32.2541 52.7545 32.2541C52.687 32.2541 52.617 32.2316 52.5595 32.1841C52.0395 31.7666 51.562 31.6441 51.1695 31.6516C51.1195 31.8816 51.117 32.3241 51.707 32.6891C51.852 32.7791 51.8995 32.9716 51.807 33.1191C51.7495 33.2141 51.647 33.2666 51.542 33.2666C51.4845 33.2666 51.4295 33.2516 51.377 33.2216C50.6895 32.7941 50.5095 32.2341 50.5245 31.7866C50.282 31.8866 50.1345 32.0066 50.117 32.0191C50.092 32.0416 50.062 32.0566 50.032 32.0691V34.6491C50.212 34.6816 50.397 34.7041 50.5845 34.7041C52.137 34.7041 53.397 33.5566 53.397 32.1416ZM49.407 35.5166V26.5166C49.407 21.5891 45.397 17.5791 40.4695 17.5791C35.542 17.5791 31.532 21.5891 31.532 26.5166V35.5166C31.532 37.5566 32.2345 39.5491 33.5145 41.1316C35.222 43.2441 37.757 44.4541 40.4695 44.4541C45.397 44.4541 49.407 40.4466 49.407 35.5166ZM46.5195 48.5616V42.9166C44.8695 44.2666 42.762 45.0791 40.4695 45.0791C38.177 45.0791 35.877 44.2241 34.1445 42.6916V48.5616C34.1445 51.5966 36.6145 54.0666 39.6495 54.0666H41.0145C44.0495 54.0666 46.5195 51.5966 46.5195 48.5616ZM30.907 34.6466V31.9441C30.797 31.8816 30.6195 31.7941 30.392 31.7291C30.427 32.1866 30.262 32.7766 29.542 33.2216C29.492 33.2516 29.4345 33.2666 29.3795 33.2666C29.2745 33.2666 29.172 33.2141 29.112 33.1191C29.022 32.9716 29.067 32.7791 29.2145 32.6891C29.8095 32.3216 29.802 31.8716 29.747 31.6441C29.3345 31.6541 28.8545 31.7866 28.3595 32.1841C28.302 32.2316 28.2345 32.2541 28.1645 32.2541C28.0745 32.2541 27.982 32.2141 27.922 32.1366C27.8595 32.0591 27.8395 31.9616 27.8595 31.8741C27.8745 31.8066 27.912 31.7441 27.9695 31.6966C29.0595 30.8191 30.1895 30.9466 30.907 31.2466V29.6391C30.7195 29.6041 30.527 29.5791 30.3345 29.5791C28.8995 29.5791 27.712 30.5641 27.5445 31.8316C27.5295 31.9341 27.522 32.0366 27.522 32.1416C27.522 33.5566 28.7845 34.7041 30.3345 34.7041C30.5295 34.7041 30.7195 34.6816 30.907 34.6466Z" fill="#111111"/>
<path d="M49.4067 26.5166V35.5166C49.4067 40.4466 45.3967 44.4541 40.4692 44.4541C37.7567 44.4541 35.2217 43.2441 33.5142 41.1316C32.2342 39.5491 31.5317 37.5566 31.5317 35.5166V26.5166C31.5317 21.5891 35.5392 17.5791 40.4692 17.5791C45.3992 17.5791 49.4067 21.5891 49.4067 26.5166Z" fill="#FDDCBC"/>
<path d="M46.5193 42.9164V48.5614C46.5193 51.5964 44.0493 54.0664 41.0143 54.0664H39.6493C36.6143 54.0664 34.1443 51.5964 34.1443 48.5614V42.6914C35.8768 44.2239 38.1093 45.0789 40.4693 45.0789C42.8293 45.0789 44.8693 44.2664 46.5193 42.9164Z" fill="#FDDCBC"/>
<path d="M30.907 31.9436V34.6461C30.7195 34.6811 30.5295 34.7036 30.3345 34.7036C28.7845 34.7036 27.522 33.5561 27.522 32.1411C27.522 32.0361 27.5295 31.9336 27.5445 31.8311L27.8595 31.8736C27.8395 31.9611 27.8595 32.0586 27.922 32.1361C27.982 32.2136 28.0745 32.2536 28.1645 32.2536C28.2345 32.2536 28.302 32.2311 28.3595 32.1836C28.8545 31.7861 29.3345 31.6536 29.747 31.6436C29.802 31.8711 29.8095 32.3211 29.2145 32.6886C29.067 32.7786 29.022 32.9711 29.112 33.1186C29.172 33.2136 29.2745 33.2661 29.3795 33.2661C29.4345 33.2661 29.492 33.2511 29.542 33.2211C30.262 32.7761 30.427 32.1861 30.392 31.7286C30.6195 31.7936 30.797 31.8811 30.907 31.9436Z" fill="#FDDCBC"/>
<path d="M30.9067 29.6391V31.2466C30.1892 30.9466 29.0592 30.8191 27.9692 31.6966C27.9117 31.7441 27.8742 31.8066 27.8592 31.8741L27.5442 31.8316C27.7117 30.5641 28.8992 29.5791 30.3342 29.5791C30.5267 29.5791 30.7192 29.6041 30.9067 29.6391Z" fill="#FDDCBC"/>
<g opacity="0.6">
<path d="M44.9072 43.8312C44.8322 43.8762 44.7522 43.9187 44.6622 43.9512C42.9547 44.5837 40.6022 45.0012 38.7897 44.6562C37.1797 44.3512 35.0022 43.4412 33.8447 42.2012L34.1072 47.9487C34.1072 47.9487 41.1297 48.1037 45.8097 43.4587C45.5247 43.6112 45.2197 43.7337 44.9047 43.8312H44.9072Z" fill="#111111"/>
</g>
<g clip-path="url(#clip1_39_5320)">
<path d="M40.3875 35.8364C40.215 35.8364 40.075 35.6964 40.075 35.5239V28.7539C40.075 28.5814 40.215 28.4414 40.3875 28.4414C40.56 28.4414 40.7 28.5814 40.7 28.7539V35.5239C40.7 35.6964 40.56 35.8364 40.3875 35.8364Z" fill="#111111"/>
<g opacity="0.1">
<path d="M39.4421 35.5014L40.0746 28.7539L40.3871 35.8339H39.7471C39.5671 35.8339 39.4246 35.6789 39.4421 35.4989V35.5014Z" fill="#111111"/>
</g>
</g>
<path d="M40.6845 38.2765C39.612 38.2765 38.777 37.8615 38.7245 37.8365C38.5695 37.759 38.5095 37.5715 38.587 37.4165C38.6645 37.2615 38.852 37.2015 39.007 37.279C39.027 37.289 40.687 38.1015 42.162 37.284C42.312 37.2015 42.502 37.254 42.587 37.4065C42.6695 37.5565 42.617 37.7465 42.4645 37.8315C41.8595 38.1665 41.242 38.279 40.6845 38.279V38.2765Z" fill="#111111"/>
<path d="M50.5946 29.0213C50.5221 28.7538 50.2496 28.5963 49.9821 28.6688L48.6346 29.0288C48.5146 28.5938 48.2896 28.1888 47.9621 27.8688C47.1821 27.1063 46.0271 27.0188 45.1571 27.6563C45.1396 27.6688 45.1121 27.6488 45.1071 27.6463C44.6996 27.3038 44.0896 27.1363 43.4746 27.2013C42.8496 27.2688 42.2921 27.5663 41.9396 28.0163C41.6021 28.4513 41.4246 28.9788 41.3921 29.5138C40.6696 29.2938 39.9871 29.3988 39.5296 29.5288C39.4721 28.9088 39.2171 28.3088 38.7671 27.8688C37.9871 27.1063 36.8321 27.0188 35.9621 27.6563C35.9421 27.6713 35.9171 27.6488 35.9121 27.6463C35.5046 27.3038 34.8946 27.1363 34.2796 27.2013C33.6546 27.2688 33.0946 27.5663 32.7446 28.0163C32.5146 28.3138 32.3596 28.6563 32.2721 29.0138L30.9796 28.6663C30.7121 28.5938 30.4396 28.7538 30.3671 29.0188C30.2946 29.2863 30.4546 29.5588 30.7196 29.6313L32.2096 30.0313C32.2796 30.6188 32.5296 31.1813 32.9546 31.5963L34.6896 33.5063C34.9896 33.8363 35.3971 34.0238 35.8346 34.0313C35.8421 34.0313 35.8521 34.0313 35.8596 34.0313C36.2871 34.0313 36.6921 33.8588 36.9971 33.5438L38.8021 31.6788C38.8021 31.6788 38.9296 31.5413 38.9896 31.4638C39.1846 31.2138 39.3246 30.9313 39.4171 30.6338C39.4221 30.6338 39.4271 30.6313 39.4321 30.6288C39.4421 30.6238 40.4921 30.0963 41.4546 30.6238C41.4871 30.6413 41.5221 30.6563 41.5571 30.6663C41.6846 31.0163 41.8821 31.3388 42.1521 31.6038L43.8871 33.5138C44.1871 33.8438 44.5946 34.0313 45.0321 34.0363C45.0396 34.0363 45.0496 34.0363 45.0571 34.0363C45.4846 34.0363 45.8871 33.8638 46.1921 33.5488L47.9971 31.6813C47.9971 31.6813 48.1246 31.5438 48.1846 31.4663C48.5046 31.0513 48.6846 30.5538 48.7271 30.0438L50.2396 29.6388C50.5071 29.5663 50.6646 29.2938 50.5921 29.0263L50.5946 29.0213Z" fill="#111111"/>
<path d="M34.2769 32.1914L35.136 31.2556C35.1932 31.1999 35.2792 31.1853 35.3507 31.2217L35.9974 31.5829C36.0667 31.6169 36.1502 31.6047 36.2074 31.5514L38.6917 29.1611C38.6917 29.1611 38.484 28.5841 37.8564 28.1914L36.0881 29.9441C36.0309 29.9975 35.9473 30.0096 35.6801 29.8496L35.2601 29.6387C35.1885 29.6023 35.1026 29.6169 35.0453 29.6726L33.4417 31.2775C33.4417 31.2775 33.7996 31.7066 34.2769 32.1914Z" fill="white"/>
<path d="M43.5274 32.1914L44.3865 31.2556C44.4437 31.1999 44.5296 31.1853 44.6012 31.2217L45.2479 31.5829C45.3171 31.6169 45.4007 31.6047 45.4579 31.5514L47.9421 29.1611C47.9421 29.1611 47.7345 28.5841 47.1069 28.1914L45.3386 29.9441C45.2813 29.9975 45.1978 30.0096 44.9305 29.8496L44.5105 29.6387C44.439 29.6023 44.353 29.6169 44.2958 29.6726L42.6921 31.2775C42.6921 31.2775 43.0501 31.7066 43.5274 32.1914Z" fill="white"/>
<g clip-path="url(#clip2_39_5320)">
<path d="M39.8741 18.6738C40.9541 20.4163 44.3941 25.4713 49.7091 28.6913L49.7266 28.6813L49.7166 29.4438C49.7166 29.4438 49.8991 29.0613 51.4366 29.1188C51.6966 29.1288 51.4141 28.5963 51.4141 28.3288C51.4141 24.5888 50.6466 21.6163 50.6466 21.6163C46.9366 12.6813 40.3141 14.7188 38.8116 15.3213C38.6191 15.3988 38.4166 15.4338 38.2091 15.4213C37.3016 15.3663 34.3891 15.5763 30.9191 19.8013C27.9016 23.4763 28.7691 26.3838 28.8891 29.4438C28.8891 29.4438 29.4591 28.9838 31.2166 29.1188L31.3391 26.2363L31.5141 26.2488L35.0366 26.5238C35.2291 26.5388 35.3991 26.3988 35.4191 26.2088C35.5516 25.0138 36.6741 20.0188 38.8566 18.4538C38.2241 19.5113 36.7166 22.4538 37.4766 25.4563C37.5116 25.5988 37.6391 25.6913 37.7791 25.6913C37.8041 25.6913 37.8291 25.6888 37.8566 25.6813C38.0241 25.6388 38.1241 25.4688 38.0841 25.3013C37.4566 22.8213 38.5591 20.2988 39.2091 19.1088C39.1541 20.4663 39.4441 24.1588 43.7491 26.8863C43.8016 26.9188 43.8591 26.9338 43.9166 26.9338C44.0191 26.9338 44.1216 26.8813 44.1816 26.7888C44.2741 26.6438 44.2316 26.4488 44.0841 26.3588C39.2391 23.2888 39.8216 19.0013 39.8766 18.6763L39.8741 18.6738Z" fill="#111111"/>
<path d="M55.0392 47.4091C53.7167 44.9616 52.6167 34.3691 52.6167 34.3691C51.1892 34.5991 49.8367 34.7841 49.8367 34.7841C49.9542 39.6291 46.7092 42.2416 46.7092 42.2416L46.9017 46.6541C46.1767 49.2166 51.1892 51.2266 51.1892 51.2266L56.2467 53.0891C56.2467 53.0891 56.3617 49.8591 55.0392 47.4091Z" fill="#111111"/>
<path d="M31.0192 34.7841C31.0192 34.7841 29.6667 34.5991 28.2392 34.3691C28.2392 34.3691 27.1392 44.9591 25.8167 47.4091C24.4942 49.8591 24.6092 53.0891 24.6092 53.0891L29.6667 51.2266C29.6667 51.2266 34.1467 49.3841 33.9542 46.6541L34.1467 42.2416C34.1467 42.2416 30.9017 39.6291 31.0192 34.7841Z" fill="#111111"/>
</g>
<defs>
<clipPath id="clip0_39_5320">
<rect width="52.1625" height="53.59" fill="white" transform="translate(14.1917 13.4414)"/>
</clipPath>
<clipPath id="clip1_39_5320">
<rect width="1.2575" height="7.395" fill="white" transform="translate(39.4424 28.4414)"/>
</clipPath>
<clipPath id="clip2_39_5320">
<rect width="53.0075" height="52.625" fill="white" transform="translate(13.4417 14.6914)"/>
</clipPath>
</defs>
</svg>
