<?xml version="1.0" encoding="UTF-8" standalone="no"?> <svg width="48" height="48" viewBox="0 0 48 48" fill="none" xmlns="http://www.w3.org/2000/svg">
<path d="M27 31.6401V35.0001C27 35.7958 27.3161 36.5588 27.8787 37.1215C28.4413 37.6841 29.2044 38.0001 30 38.0001V40.0001H18V38.0001C18.7956 38.0001 19.5587 37.6841 20.1213 37.1215C20.6839 36.5588 21 35.7958 21 35.0001V31.6401H27Z" fill="#F87600"/>
<path d="M33 38H15C13.9391 38 12.9217 38.4214 12.1716 39.1716C11.4214 39.9217 11 40.9391 11 42V42C11 42.2652 11.1054 42.5196 11.2929 42.7071C11.4804 42.8946 11.7348 43 12 43H36C36.2652 43 36.5196 42.8946 36.7071 42.7071C36.8946 42.5196 37 42.2652 37 42C37 40.9391 36.5786 39.9217 35.8284 39.1716C35.0783 38.4214 34.0609 38 33 38Z" fill="#FAC100"/>
<path d="M15 42C15 40.9391 15.4214 39.9217 16.1716 39.1716C16.9217 38.4214 17.9391 38 19 38H15C13.9391 38 12.9217 38.4214 12.1716 39.1716C11.4214 39.9217 11 40.9391 11 42C11 42.2652 11.1054 42.5196 11.2929 42.7071C11.4804 42.8946 11.7348 43 12 43H16C15.7348 43 15.4804 42.8946 15.2929 42.7071C15.1054 42.5196 15 42.2652 15 42Z" fill="#FF9500"/>
<path d="M24.0001 34C20.5204 33.9678 17.196 32.5547 14.758 30.0716C12.3201 27.5885 10.9684 24.2387 11.0001 20.759V7C11.0001 6.46957 11.2108 5.96086 11.5858 5.58579C11.9609 5.21071 12.4696 5 13.0001 5H35.0001C35.5305 5 36.0392 5.21071 36.4143 5.58579C36.7893 5.96086 37.0001 6.46957 37.0001 7V20.759C37.0318 24.2387 35.68 27.5885 33.2421 30.0716C30.8042 32.5547 27.4798 33.9678 24.0001 34V34Z" fill="#FAC100"/>
<path d="M28.0001 30C24.5204 29.9678 21.196 28.5547 18.758 26.0716C16.3201 23.5885 14.9684 20.2387 15.0001 16.759V5H13.0001C12.4696 5 11.9609 5.21071 11.5858 5.58579C11.2108 5.96086 11.0001 6.46957 11.0001 7V20.759C10.9684 24.2387 12.3201 27.5885 14.758 30.0716C17.196 32.5547 20.5204 33.9678 24.0001 34C26.1768 33.9935 28.3166 33.4375 30.221 32.3833C32.1255 31.3292 33.7329 29.8111 34.8941 27.97C32.8383 29.2939 30.4452 29.9986 28.0001 30V30Z" fill="#FF9500"/>
<path d="M24 21.3879L20.292 22.7059L20.4 18.7719L18 15.6529L21.775 14.5399L24 11.2939L26.225 14.5399L30 15.6529L27.6 18.7719L27.708 22.7059L24 21.3879Z" fill="#FF9500"/>
<path d="M30.2829 14.6939L26.8489 13.6819L24.8249 10.7279C24.728 10.601 24.6032 10.4982 24.4601 10.4274C24.317 10.3566 24.1596 10.3198 23.9999 10.3198C23.8403 10.3198 23.6828 10.3566 23.5397 10.4274C23.3966 10.4982 23.2718 10.601 23.1749 10.7279L21.1509 13.6819L17.7169 14.6939C17.5611 14.7398 17.4188 14.823 17.3023 14.9363C17.1858 15.0495 17.0987 15.1895 17.0485 15.344C16.9983 15.4985 16.9864 15.6629 17.0141 15.823C17.0417 15.9831 17.1079 16.1341 17.2069 16.2629L19.3909 19.0999L19.2909 22.6789C19.2864 22.8414 19.3215 23.0025 19.3933 23.1483C19.465 23.2941 19.5712 23.4203 19.7027 23.5158C19.8342 23.6113 19.987 23.6734 20.1479 23.6966C20.3087 23.7198 20.4728 23.7034 20.6259 23.6489L23.9999 22.4489L27.3729 23.6489C27.526 23.7034 27.6901 23.7198 27.851 23.6966C28.0119 23.6734 28.1646 23.6113 28.2961 23.5158C28.4276 23.4203 28.5338 23.2941 28.6056 23.1483C28.6773 23.0025 28.7125 22.8414 28.7079 22.6789L28.6079 19.0999L30.7919 16.2629C30.891 16.1341 30.9572 15.9831 30.9848 15.823C31.0124 15.6629 31.0006 15.4985 30.9504 15.344C30.9001 15.1895 30.813 15.0495 30.6966 14.9363C30.5801 14.823 30.4378 14.7398 30.2819 14.6939H30.2829ZM26.8069 18.1619C26.6668 18.3441 26.5937 18.5691 26.5999 18.7989L26.6679 21.2749L24.3349 20.4449C24.1181 20.3689 23.8818 20.3689 23.6649 20.4449L21.3319 21.2749L21.3999 18.7999C21.4062 18.5701 21.3331 18.3451 21.1929 18.1629L19.6829 16.1999L22.0589 15.4999C22.2795 15.4348 22.4709 15.2956 22.6009 15.1059L23.9999 13.0629L25.3999 15.1049C25.5299 15.2946 25.7213 15.4338 25.9419 15.4989L28.3179 16.1989L26.8069 18.1619Z" fill="black"/>
<path d="M41 12H38V7C38 6.20435 37.6839 5.44129 37.1213 4.87868C36.5587 4.31607 35.7956 4 35 4H13C12.2044 4 11.4413 4.31607 10.8787 4.87868C10.3161 5.44129 10 6.20435 10 7V12H7C6.20435 12 5.44129 12.3161 4.87868 12.8787C4.31607 13.4413 4 14.2044 4 15V19.5C4.00175 21.4772 4.78345 23.3738 6.17534 24.7781C7.56723 26.1823 9.45691 26.9808 11.434 27C12.274 28.7577 13.4687 30.3226 14.9429 31.5961C16.4171 32.8696 18.1389 33.8243 20 34.4V35C20 35.5304 19.7893 36.0391 19.4142 36.4142C19.0391 36.7893 18.5304 37 18 37H15C13.6744 37.0016 12.4036 37.5289 11.4662 38.4662C10.5289 39.4036 10.0016 40.6744 10 42C10 42.5304 10.2107 43.0391 10.5858 43.4142C10.9609 43.7893 11.4696 44 12 44H36C36.5304 44 37.0391 43.7893 37.4142 43.4142C37.7893 43.0391 38 42.5304 38 42C37.9984 40.6744 37.4711 39.4036 36.5338 38.4662C35.5964 37.5289 34.3256 37.0016 33 37H30C29.4696 37 28.9609 36.7893 28.5858 36.4142C28.2107 36.0391 28 35.5304 28 35V34.4C29.8611 33.8243 31.5829 32.8696 33.0571 31.5961C34.5313 30.3226 35.726 28.7577 36.566 27C38.5431 26.9808 40.4328 26.1823 41.8247 24.7781C43.2165 23.3738 43.9982 21.4772 44 19.5V15C44 14.2044 43.6839 13.4413 43.1213 12.8787C42.5587 12.3161 41.7956 12 41 12ZM6 19.5V15C6 14.7348 6.10536 14.4804 6.29289 14.2929C6.48043 14.1054 6.73478 14 7 14H10V20.759C10 22.1691 10.2066 23.5717 10.613 24.922C9.32617 24.7117 8.1559 24.0511 7.31097 23.058C6.46604 22.0649 6.00142 20.8039 6 19.5V19.5ZM36 42H12C12 41.2044 12.3161 40.4413 12.8787 39.8787C13.4413 39.3161 14.2044 39 15 39H33C33.7956 39 34.5587 39.3161 35.1213 39.8787C35.6839 40.4413 36 41.2044 36 42ZM26.561 37H21.461C21.8144 36.3928 22.0004 35.7026 22 35V34.837C23.3245 35.0543 24.6755 35.0543 26 34.837V35C26.0052 35.7048 26.1989 36.3953 26.561 37V37ZM24 33C20.7867 32.9641 17.7188 31.6552 15.4692 29.3605C13.2196 27.0657 11.972 23.9724 12 20.759V7C12 6.73478 12.1054 6.48043 12.2929 6.29289C12.4804 6.10536 12.7348 6 13 6H35C35.2652 6 35.5196 6.10536 35.7071 6.29289C35.8946 6.48043 36 6.73478 36 7V20.759C36.028 23.9724 34.7804 27.0657 32.5308 29.3605C30.2812 31.6552 27.2133 32.9641 24 33ZM42 19.5C41.9986 20.8039 41.534 22.0649 40.689 23.058C39.8441 24.0511 38.6738 24.7117 37.387 24.922C37.7934 23.5717 38 22.1691 38 20.759V14H41C41.2652 14 41.5196 14.1054 41.7071 14.2929C41.8946 14.4804 42 14.7348 42 15V19.5Z" fill="black"/>
</svg>
