<svg width="34" height="24" viewBox="0 0 34 24" fill="none" xmlns="http://www.w3.org/2000/svg">
<path d="M4.75 18C4.75 16.9391 5.17143 15.9217 5.92157 15.1716C6.67172 14.4214 7.68913 14 8.75 14H16.75C17.8109 14 18.8283 14.4214 19.5784 15.1716C20.3286 15.9217 20.75 16.9391 20.75 18C20.75 18.5304 20.5393 19.0391 20.1642 19.4142C19.7891 19.7893 19.2804 20 18.75 20H6.75C6.21957 20 5.71086 19.7893 5.33579 19.4142C4.96071 19.0391 4.75 18.5304 4.75 18Z" fill="white" stroke="#111111" stroke-width="2" stroke-linejoin="round"/>
<path d="M12.75 10C14.4069 10 15.75 8.65685 15.75 7C15.75 5.34315 14.4069 4 12.75 4C11.0931 4 9.75 5.34315 9.75 7C9.75 8.65685 11.0931 10 12.75 10Z" stroke="#111111" stroke-width="2"/>
<path d="M13.75 18C13.75 16.9391 14.1714 15.9217 14.9216 15.1716C15.6717 14.4214 16.6891 14 17.75 14H25.75C26.8109 14 27.8283 14.4214 28.5784 15.1716C29.3286 15.9217 29.75 16.9391 29.75 18C29.75 18.5304 29.5393 19.0391 29.1642 19.4142C28.7891 19.7893 28.2804 20 27.75 20H15.75C15.2196 20 14.7109 19.7893 14.3358 19.4142C13.9607 19.0391 13.75 18.5304 13.75 18Z" fill="white" stroke="#111111" stroke-width="2" stroke-linejoin="round"/>
<path d="M21.75 10C23.4069 10 24.75 8.65685 24.75 7C24.75 5.34315 23.4069 4 21.75 4C20.0931 4 18.75 5.34315 18.75 7C18.75 8.65685 20.0931 10 21.75 10Z" stroke="#111111" stroke-width="2"/>
</svg>
