<svg width="25" height="24" viewBox="0 0 25 24" fill="none" xmlns="http://www.w3.org/2000/svg">
<path fill-rule="evenodd" clip-rule="evenodd" d="M16.25 9C16.25 10.0609 15.8286 11.0783 15.0784 11.8284C14.3283 12.5786 13.3109 13 12.25 13C11.1891 13 10.1717 12.5786 9.42157 11.8284C8.67143 11.0783 8.25 10.0609 8.25 9C8.25 7.93913 8.67143 6.92172 9.42157 6.17157C10.1717 5.42143 11.1891 5 12.25 5C13.3109 5 14.3283 5.42143 15.0784 6.17157C15.8286 6.92172 16.25 7.93913 16.25 9ZM14.25 9C14.25 9.53043 14.0393 10.0391 13.6642 10.4142C13.2891 10.7893 12.7804 11 12.25 11C11.7196 11 11.2109 10.7893 10.8358 10.4142C10.4607 10.0391 10.25 9.53043 10.25 9C10.25 8.46957 10.4607 7.96086 10.8358 7.58579C11.2109 7.21071 11.7196 7 12.25 7C12.7804 7 13.2891 7.21071 13.6642 7.58579C14.0393 7.96086 14.25 8.46957 14.25 9Z" fill="#111111"/>
<path fill-rule="evenodd" clip-rule="evenodd" d="M12.25 1C6.175 1 1.25 5.925 1.25 12C1.25 18.075 6.175 23 12.25 23C18.325 23 23.25 18.075 23.25 12C23.25 5.925 18.325 1 12.25 1ZM3.25 12C3.25 14.09 3.963 16.014 5.158 17.542C5.99723 16.4399 7.0799 15.5467 8.32143 14.9323C9.56297 14.3179 10.9297 13.9988 12.315 14C13.6823 13.9987 15.0319 14.3095 16.2609 14.9088C17.4899 15.508 18.566 16.3799 19.407 17.458C20.2734 16.3216 20.8568 14.9952 21.1089 13.5886C21.361 12.182 21.2744 10.7355 20.8565 9.36898C20.4386 8.00243 19.7012 6.75505 18.7055 5.73004C17.7098 4.70503 16.4843 3.93186 15.1304 3.47451C13.7765 3.01716 12.3332 2.88877 10.9199 3.09997C9.50652 3.31117 8.16379 3.85589 7.00277 4.68905C5.84175 5.52222 4.89581 6.61987 4.24323 7.8912C3.59065 9.16252 3.25018 10.571 3.25 12ZM12.25 21C10.1839 21.0031 8.18027 20.2923 6.578 18.988C7.22293 18.0647 8.08134 17.3109 9.08019 16.7907C10.079 16.2705 11.1888 15.9992 12.315 16C13.4272 15.9991 14.5235 16.2636 15.5129 16.7714C16.5024 17.2793 17.3564 18.0159 18.004 18.92C16.3893 20.2667 14.3526 21.0029 12.25 21Z" fill="#111111"/>
</svg>
