<svg class="svg-icon" style="width: 1em;height: 1em;vertical-align: middle;fill: currentColor;overflow: hidden;" viewBox="0 0 1024 1024" version="1.1" xmlns="http://www.w3.org/2000/svg"><path d="M465.44 759.104a321.6 321.6 0 0 1-255.136-207.392c-100.992-12.64-163.392-95.936-187.296-237.536a79.136 79.136 0 0 1 78.048-92.32h89.792V116.352A88.448 88.448 0 0 1 279.296 27.904h465.44a88.448 88.448 0 0 1 88.448 88.448v105.504h94.624a79.136 79.136 0 0 1 78.016 92.32c-24.288 143.936-88.384 227.648-192.352 238.112a321.44 321.44 0 0 1-264.224 208.032v162.816h153.6a41.888 41.888 0 1 1 0 83.776H321.184a41.888 41.888 0 1 1 0-83.776h144.288v-164.032z m367.04-296.832c43.936-17.536 73.856-67.328 89.76-156.64h-89.088v135.648c0 7.04-0.224 14.048-0.672 20.96zM190.848 305.664H106.592c15.296 85.888 43.584 135.232 84.8 154.496a333.984 333.984 0 0 1-0.544-18.816V305.696z m262.432 59.424l-29.696 8.544V284.384l17.632-4.416c8.992-2.24 18.88-6.336 28.832-11.84 11.136-6.816 19.872-13.568 26.528-20.512l6.88-7.168h63.68v293.824h-87.072V355.2a192.64 192.64 0 0 1-26.752 9.856zM279.264 111.712a4.64 4.64 0 0 0-4.64 4.64V441.28a237.376 237.376 0 1 0 474.752 0V116.352a4.64 4.64 0 0 0-4.64-4.64H279.296z"  /></svg>