<svg class="svg-icon" style="width: 1em;height: 1em;vertical-align: middle;fill: currentColor;overflow: hidden;" viewBox="0 0 1024 1024" version="1.1" xmlns="http://www.w3.org/2000/svg"><path d="M512 74.89C270.59 74.89 74.89 270.59 74.89 512S270.59 949.11 512 949.11 949.11 753.41 949.11 512 753.41 74.89 512 74.89z m255.34 692.45c-33.19 33.19-71.82 59.24-114.81 77.42-44.47 18.81-91.75 28.35-140.54 28.35s-96.07-9.54-140.54-28.35c-42.99-18.18-81.62-44.23-114.81-77.42-33.19-33.19-59.24-71.82-77.42-114.81-18.81-44.47-28.35-91.75-28.35-140.54 0-48.78 9.54-96.07 28.35-140.54 18.18-42.99 44.23-81.62 77.42-114.81 33.19-33.19 71.82-59.24 114.81-77.42 44.47-18.81 91.75-28.35 140.54-28.35s96.07 9.54 140.54 28.35c42.99 18.18 81.62 44.23 114.81 77.42 33.19 33.19 59.24 71.82 77.42 114.81 18.81 44.47 28.35 91.75 28.35 140.54 0 48.78-9.54 96.07-28.35 140.54-18.18 43-44.23 81.63-77.42 114.81z"  /><path d="M733.32 636.9H714.4V348.63c0-20.99-17.01-38-38-38s-38 17.01-38 38V636.9h-85.47V292.5c0-20.99-17.01-38-38-38s-38 17.01-38 38v344.4H387V464.4c0-20.99-17.01-38-38-38s-38 17.01-38 38v172.5h-14.46c-20.99 0-38 17.01-38 38s17.01 38 38 38h436.78c20.99 0 38-17.01 38-38s-17.01-38-38-38z"  /></svg>