<svg width="25" height="24" viewBox="0 0 25 24" fill="none" xmlns="http://www.w3.org/2000/svg">
<path d="M13.9499 13.8004V17.4004C13.9499 17.5595 14.0131 17.7121 14.1256 17.8247C14.2382 17.9372 14.3908 18.0004 14.5499 18.0004H18.1499C18.309 18.0004 18.4616 17.9372 18.5742 17.8247C18.6867 17.7121 18.7499 17.5595 18.7499 17.4004V13.8004C18.7499 13.6413 18.6867 13.4886 18.5742 13.3761C18.4616 13.2636 18.309 13.2004 18.1499 13.2004H14.5499C14.3908 13.2004 14.2382 13.2636 14.1256 13.3761C14.0131 13.4886 13.9499 13.6413 13.9499 13.8004ZM15.1499 16.8004V14.4004H17.5499V16.8004H15.1499ZM6.7499 2.40039C6.66196 2.40042 6.5751 2.41979 6.49547 2.45712C6.41584 2.49444 6.34539 2.54882 6.2891 2.61639L3.2891 6.21639C3.19922 6.32417 3.14997 6.46005 3.1499 6.60039V8.40039C3.1499 9.46599 3.6131 10.4248 4.3499 11.0836V21.0004C4.3499 21.1595 4.41312 21.3121 4.52564 21.4247C4.63816 21.5372 4.79077 21.6004 4.9499 21.6004H20.5499C20.709 21.6004 20.8616 21.5372 20.9742 21.4247C21.0867 21.3121 21.1499 21.1595 21.1499 21.0004V11.0836C21.8867 10.4236 22.3499 9.46599 22.3499 8.40039V6.57879C22.3499 6.47079 22.3499 6.38439 22.2107 6.21639L19.2107 2.61639C19.1544 2.54882 19.084 2.49444 19.0043 2.45712C18.9247 2.41979 18.8378 2.40042 18.7499 2.40039H6.7499ZM6.7499 10.8004C6.11338 10.8004 5.50293 10.5475 5.05285 10.0974C4.60276 9.64736 4.3499 9.03691 4.3499 8.40039V7.20039H9.1499V8.40039C9.1499 9.03691 8.89705 9.64736 8.44696 10.0974C7.99687 10.5475 7.38642 10.8004 6.7499 10.8004ZM12.7499 10.8004C12.1134 10.8004 11.5029 10.5475 11.0528 10.0974C10.6028 9.64736 10.3499 9.03691 10.3499 8.40039V7.20039H15.1499V8.40039C15.1499 9.03691 14.897 9.64736 14.447 10.0974C13.9969 10.5475 13.3864 10.8004 12.7499 10.8004ZM18.7499 10.8004C18.1134 10.8004 17.5029 10.5475 17.0528 10.0974C16.6028 9.64736 16.3499 9.03691 16.3499 8.40039V7.20039H21.1499V8.40039C21.1499 9.03691 20.897 9.64736 20.447 10.0974C19.9969 10.5475 19.3864 10.8004 18.7499 10.8004ZM6.7499 20.4004H5.5499V11.7964C6.30626 12.0645 7.13056 12.0719 7.89163 11.8175C8.6527 11.5631 9.30682 11.0614 9.7499 10.3924C10.0783 10.8873 10.5241 11.2932 11.0476 11.5738C11.5711 11.8544 12.156 12.0009 12.7499 12.0004C13.344 12.0008 13.9289 11.854 14.4524 11.5732C14.9759 11.2924 15.4217 10.8863 15.7499 10.3912C16.193 11.0602 16.8471 11.5619 17.6082 11.8163C18.3692 12.0707 19.1935 12.0633 19.9499 11.7952V20.4004H12.7499V13.8004C12.7499 13.6413 12.6867 13.4886 12.5742 13.3761C12.4616 13.2636 12.309 13.2004 12.1499 13.2004H7.3499C7.19077 13.2004 7.03816 13.2636 6.92564 13.3761C6.81312 13.4886 6.7499 13.6413 6.7499 13.8004V20.4004ZM9.3179 6.00039H5.0315L7.0307 3.60039H10.1171L9.3179 6.00039ZM14.9171 6.00039H10.5827L11.3819 3.60039H14.1179L14.9171 6.00039ZM16.1819 6.00039L15.3827 3.60039H18.4691L20.4695 6.00039H16.1819ZM7.9499 20.4004V14.4004H11.5499V20.4004H7.9499Z" fill="#111111"/>
</svg>
