<svg width="40" height="41" viewBox="0 0 40 41" fill="none" xmlns="http://www.w3.org/2000/svg">
<path d="M6.66699 30.9855C6.66699 29.2174 7.36937 27.5217 8.61961 26.2715C9.86986 25.0212 11.5655 24.3188 13.3337 24.3188H26.667C28.4351 24.3188 30.1308 25.0212 31.381 26.2715C32.6313 27.5217 33.3337 29.2174 33.3337 30.9855C33.3337 31.8696 32.9825 32.7174 32.3573 33.3425C31.7322 33.9677 30.8844 34.3188 30.0003 34.3188H10.0003C9.11627 34.3188 8.26842 33.9677 7.6433 33.3425C7.01818 32.7174 6.66699 31.8696 6.66699 30.9855Z" stroke="#111111" stroke-width="2" stroke-linejoin="round"/>
<path d="M20 17.6523C22.7614 17.6523 25 15.4138 25 12.6523C25 9.89092 22.7614 7.65234 20 7.65234C17.2386 7.65234 15 9.89092 15 12.6523C15 15.4138 17.2386 17.6523 20 17.6523Z" stroke="#111111" stroke-width="2"/>
</svg>
